%TF.GenerationSoftware,KiCad,Pcbnew,10.0.6*%
%TF.CreationDate,2026-09-05T00:02:13+05:30*%
%TF.ProjectId,hackpad_v2,6861636b-7061-4645-9f76-322e6b696361,rev?*%
%TF.SameCoordinates,Original*%
%TF.FileFunction,Legend,Bot*%
%TF.FilePolarity,Positive*%
%FSLAX46Y46*%
G04 Gerber Fmt 4.6, Leading zero omitted, Abs format (unit mm)*
G04 Created by KiCad (PCBNEW 10.0.6) date 2026-09-05 00:02:13*
%MOMM*%
%LPD*%
G01*
G04 APERTURE LIST*
%ADD10C,0.150000*%
%ADD11C,0.120000*%
G04 APERTURE END LIST*
D10*
X109923543Y-56335655D02*
X108923543Y-56335655D01*
X108923543Y-56335655D02*
X108923543Y-56573750D01*
X108923543Y-56573750D02*
X108971162Y-56716607D01*
X108971162Y-56716607D02*
X109066400Y-56811845D01*
X109066400Y-56811845D02*
X109161638Y-56859464D01*
X109161638Y-56859464D02*
X109352114Y-56907083D01*
X109352114Y-56907083D02*
X109494971Y-56907083D01*
X109494971Y-56907083D02*
X109685447Y-56859464D01*
X109685447Y-56859464D02*
X109780685Y-56811845D01*
X109780685Y-56811845D02*
X109875924Y-56716607D01*
X109875924Y-56716607D02*
X109923543Y-56573750D01*
X109923543Y-56573750D02*
X109923543Y-56335655D01*
X109923543Y-57859464D02*
X109923543Y-57288036D01*
X109923543Y-57573750D02*
X108923543Y-57573750D01*
X108923543Y-57573750D02*
X109066400Y-57478512D01*
X109066400Y-57478512D02*
X109161638Y-57383274D01*
X109161638Y-57383274D02*
X109209257Y-57288036D01*
X109603543Y-60621845D02*
X108603543Y-60621845D01*
X109603543Y-61193273D02*
X109032114Y-60764702D01*
X108603543Y-61193273D02*
X109174971Y-60621845D01*
X127923543Y-94525655D02*
X126923543Y-94525655D01*
X126923543Y-94525655D02*
X126923543Y-94763750D01*
X126923543Y-94763750D02*
X126971162Y-94906607D01*
X126971162Y-94906607D02*
X127066400Y-95001845D01*
X127066400Y-95001845D02*
X127161638Y-95049464D01*
X127161638Y-95049464D02*
X127352114Y-95097083D01*
X127352114Y-95097083D02*
X127494971Y-95097083D01*
X127494971Y-95097083D02*
X127685447Y-95049464D01*
X127685447Y-95049464D02*
X127780685Y-95001845D01*
X127780685Y-95001845D02*
X127875924Y-94906607D01*
X127875924Y-94906607D02*
X127923543Y-94763750D01*
X127923543Y-94763750D02*
X127923543Y-94525655D01*
X126923543Y-95954226D02*
X126923543Y-95763750D01*
X126923543Y-95763750D02*
X126971162Y-95668512D01*
X126971162Y-95668512D02*
X127018781Y-95620893D01*
X127018781Y-95620893D02*
X127161638Y-95525655D01*
X127161638Y-95525655D02*
X127352114Y-95478036D01*
X127352114Y-95478036D02*
X127733066Y-95478036D01*
X127733066Y-95478036D02*
X127828304Y-95525655D01*
X127828304Y-95525655D02*
X127875924Y-95573274D01*
X127875924Y-95573274D02*
X127923543Y-95668512D01*
X127923543Y-95668512D02*
X127923543Y-95858988D01*
X127923543Y-95858988D02*
X127875924Y-95954226D01*
X127875924Y-95954226D02*
X127828304Y-96001845D01*
X127828304Y-96001845D02*
X127733066Y-96049464D01*
X127733066Y-96049464D02*
X127494971Y-96049464D01*
X127494971Y-96049464D02*
X127399733Y-96001845D01*
X127399733Y-96001845D02*
X127352114Y-95954226D01*
X127352114Y-95954226D02*
X127304495Y-95858988D01*
X127304495Y-95858988D02*
X127304495Y-95668512D01*
X127304495Y-95668512D02*
X127352114Y-95573274D01*
X127352114Y-95573274D02*
X127399733Y-95525655D01*
X127399733Y-95525655D02*
X127494971Y-95478036D01*
X127603543Y-98811845D02*
X126603543Y-98811845D01*
X127603543Y-99383273D02*
X127032114Y-98954702D01*
X126603543Y-99383273D02*
X127174971Y-98811845D01*
X71923543Y-94525655D02*
X70923543Y-94525655D01*
X70923543Y-94525655D02*
X70923543Y-94763750D01*
X70923543Y-94763750D02*
X70971162Y-94906607D01*
X70971162Y-94906607D02*
X71066400Y-95001845D01*
X71066400Y-95001845D02*
X71161638Y-95049464D01*
X71161638Y-95049464D02*
X71352114Y-95097083D01*
X71352114Y-95097083D02*
X71494971Y-95097083D01*
X71494971Y-95097083D02*
X71685447Y-95049464D01*
X71685447Y-95049464D02*
X71780685Y-95001845D01*
X71780685Y-95001845D02*
X71875924Y-94906607D01*
X71875924Y-94906607D02*
X71923543Y-94763750D01*
X71923543Y-94763750D02*
X71923543Y-94525655D01*
X70923543Y-96001845D02*
X70923543Y-95525655D01*
X70923543Y-95525655D02*
X71399733Y-95478036D01*
X71399733Y-95478036D02*
X71352114Y-95525655D01*
X71352114Y-95525655D02*
X71304495Y-95620893D01*
X71304495Y-95620893D02*
X71304495Y-95858988D01*
X71304495Y-95858988D02*
X71352114Y-95954226D01*
X71352114Y-95954226D02*
X71399733Y-96001845D01*
X71399733Y-96001845D02*
X71494971Y-96049464D01*
X71494971Y-96049464D02*
X71733066Y-96049464D01*
X71733066Y-96049464D02*
X71828304Y-96001845D01*
X71828304Y-96001845D02*
X71875924Y-95954226D01*
X71875924Y-95954226D02*
X71923543Y-95858988D01*
X71923543Y-95858988D02*
X71923543Y-95620893D01*
X71923543Y-95620893D02*
X71875924Y-95525655D01*
X71875924Y-95525655D02*
X71828304Y-95478036D01*
X71603543Y-98811845D02*
X70603543Y-98811845D01*
X71603543Y-99383273D02*
X71032114Y-98954702D01*
X70603543Y-99383273D02*
X71174971Y-98811845D01*
X127923543Y-75335655D02*
X126923543Y-75335655D01*
X126923543Y-75335655D02*
X126923543Y-75573750D01*
X126923543Y-75573750D02*
X126971162Y-75716607D01*
X126971162Y-75716607D02*
X127066400Y-75811845D01*
X127066400Y-75811845D02*
X127161638Y-75859464D01*
X127161638Y-75859464D02*
X127352114Y-75907083D01*
X127352114Y-75907083D02*
X127494971Y-75907083D01*
X127494971Y-75907083D02*
X127685447Y-75859464D01*
X127685447Y-75859464D02*
X127780685Y-75811845D01*
X127780685Y-75811845D02*
X127875924Y-75716607D01*
X127875924Y-75716607D02*
X127923543Y-75573750D01*
X127923543Y-75573750D02*
X127923543Y-75335655D01*
X127256876Y-76764226D02*
X127923543Y-76764226D01*
X126875924Y-76526131D02*
X127590209Y-76288036D01*
X127590209Y-76288036D02*
X127590209Y-76907083D01*
X127603543Y-79621845D02*
X126603543Y-79621845D01*
X127603543Y-80193273D02*
X127032114Y-79764702D01*
X126603543Y-80193273D02*
X127174971Y-79621845D01*
X108923543Y-75335655D02*
X107923543Y-75335655D01*
X107923543Y-75335655D02*
X107923543Y-75573750D01*
X107923543Y-75573750D02*
X107971162Y-75716607D01*
X107971162Y-75716607D02*
X108066400Y-75811845D01*
X108066400Y-75811845D02*
X108161638Y-75859464D01*
X108161638Y-75859464D02*
X108352114Y-75907083D01*
X108352114Y-75907083D02*
X108494971Y-75907083D01*
X108494971Y-75907083D02*
X108685447Y-75859464D01*
X108685447Y-75859464D02*
X108780685Y-75811845D01*
X108780685Y-75811845D02*
X108875924Y-75716607D01*
X108875924Y-75716607D02*
X108923543Y-75573750D01*
X108923543Y-75573750D02*
X108923543Y-75335655D01*
X107923543Y-76240417D02*
X107923543Y-76859464D01*
X107923543Y-76859464D02*
X108304495Y-76526131D01*
X108304495Y-76526131D02*
X108304495Y-76668988D01*
X108304495Y-76668988D02*
X108352114Y-76764226D01*
X108352114Y-76764226D02*
X108399733Y-76811845D01*
X108399733Y-76811845D02*
X108494971Y-76859464D01*
X108494971Y-76859464D02*
X108733066Y-76859464D01*
X108733066Y-76859464D02*
X108828304Y-76811845D01*
X108828304Y-76811845D02*
X108875924Y-76764226D01*
X108875924Y-76764226D02*
X108923543Y-76668988D01*
X108923543Y-76668988D02*
X108923543Y-76383274D01*
X108923543Y-76383274D02*
X108875924Y-76288036D01*
X108875924Y-76288036D02*
X108828304Y-76240417D01*
X108603543Y-79621845D02*
X107603543Y-79621845D01*
X108603543Y-80193273D02*
X108032114Y-79764702D01*
X107603543Y-80193273D02*
X108174971Y-79621845D01*
X89923543Y-75335655D02*
X88923543Y-75335655D01*
X88923543Y-75335655D02*
X88923543Y-75573750D01*
X88923543Y-75573750D02*
X88971162Y-75716607D01*
X88971162Y-75716607D02*
X89066400Y-75811845D01*
X89066400Y-75811845D02*
X89161638Y-75859464D01*
X89161638Y-75859464D02*
X89352114Y-75907083D01*
X89352114Y-75907083D02*
X89494971Y-75907083D01*
X89494971Y-75907083D02*
X89685447Y-75859464D01*
X89685447Y-75859464D02*
X89780685Y-75811845D01*
X89780685Y-75811845D02*
X89875924Y-75716607D01*
X89875924Y-75716607D02*
X89923543Y-75573750D01*
X89923543Y-75573750D02*
X89923543Y-75335655D01*
X89018781Y-76288036D02*
X88971162Y-76335655D01*
X88971162Y-76335655D02*
X88923543Y-76430893D01*
X88923543Y-76430893D02*
X88923543Y-76668988D01*
X88923543Y-76668988D02*
X88971162Y-76764226D01*
X88971162Y-76764226D02*
X89018781Y-76811845D01*
X89018781Y-76811845D02*
X89114019Y-76859464D01*
X89114019Y-76859464D02*
X89209257Y-76859464D01*
X89209257Y-76859464D02*
X89352114Y-76811845D01*
X89352114Y-76811845D02*
X89923543Y-76240417D01*
X89923543Y-76240417D02*
X89923543Y-76859464D01*
X89603543Y-79621845D02*
X88603543Y-79621845D01*
X89603543Y-80193273D02*
X89032114Y-79764702D01*
X88603543Y-80193273D02*
X89174971Y-79621845D01*
%TO.C,D1*%
D11*
X106228724Y-54953750D02*
X108468724Y-54953750D01*
X108468724Y-59193750D01*
X106228724Y-59193750D01*
X106228724Y-54953750D01*
X107348724Y-54303750D02*
X107348724Y-54953750D01*
X108468724Y-58353750D02*
X106228724Y-58353750D01*
X108468724Y-58473750D02*
X106228724Y-58473750D01*
X108468724Y-58593750D02*
X106228724Y-58593750D01*
X107348724Y-59843750D02*
X107348724Y-59193750D01*
%TO.C,D6*%
X125348724Y-98033750D02*
X125348724Y-97383750D01*
X126468724Y-96783750D02*
X124228724Y-96783750D01*
X126468724Y-96663750D02*
X124228724Y-96663750D01*
X126468724Y-96543750D02*
X124228724Y-96543750D01*
X125348724Y-92493750D02*
X125348724Y-93143750D01*
X124228724Y-93143750D02*
X126468724Y-93143750D01*
X126468724Y-97383750D01*
X124228724Y-97383750D01*
X124228724Y-93143750D01*
%TO.C,D5*%
X69348724Y-98033750D02*
X69348724Y-97383750D01*
X70468724Y-96783750D02*
X68228724Y-96783750D01*
X70468724Y-96663750D02*
X68228724Y-96663750D01*
X70468724Y-96543750D02*
X68228724Y-96543750D01*
X69348724Y-92493750D02*
X69348724Y-93143750D01*
X68228724Y-93143750D02*
X70468724Y-93143750D01*
X70468724Y-97383750D01*
X68228724Y-97383750D01*
X68228724Y-93143750D01*
%TO.C,D4*%
X125348724Y-78843750D02*
X125348724Y-78193750D01*
X126468724Y-77593750D02*
X124228724Y-77593750D01*
X126468724Y-77473750D02*
X124228724Y-77473750D01*
X126468724Y-77353750D02*
X124228724Y-77353750D01*
X125348724Y-73303750D02*
X125348724Y-73953750D01*
X124228724Y-73953750D02*
X126468724Y-73953750D01*
X126468724Y-78193750D01*
X124228724Y-78193750D01*
X124228724Y-73953750D01*
%TO.C,D3*%
X106348724Y-78843750D02*
X106348724Y-78193750D01*
X107468724Y-77593750D02*
X105228724Y-77593750D01*
X107468724Y-77473750D02*
X105228724Y-77473750D01*
X107468724Y-77353750D02*
X105228724Y-77353750D01*
X106348724Y-73303750D02*
X106348724Y-73953750D01*
X105228724Y-73953750D02*
X107468724Y-73953750D01*
X107468724Y-78193750D01*
X105228724Y-78193750D01*
X105228724Y-73953750D01*
%TO.C,D2*%
X87348724Y-78843750D02*
X87348724Y-78193750D01*
X88468724Y-77593750D02*
X86228724Y-77593750D01*
X88468724Y-77473750D02*
X86228724Y-77473750D01*
X88468724Y-77353750D02*
X86228724Y-77353750D01*
X87348724Y-73303750D02*
X87348724Y-73953750D01*
X86228724Y-73953750D02*
X88468724Y-73953750D01*
X88468724Y-78193750D01*
X86228724Y-78193750D01*
X86228724Y-73953750D01*
%TD*%
M02*
