%TF.GenerationSoftware,KiCad,Pcbnew,10.0.6*%
%TF.CreationDate,2026-09-05T00:02:13+05:30*%
%TF.ProjectId,hackpad_v2,6861636b-7061-4645-9f76-322e6b696361,rev?*%
%TF.SameCoordinates,Original*%
%TF.FileFunction,Copper,L1,Top*%
%TF.FilePolarity,Positive*%
%FSLAX46Y46*%
G04 Gerber Fmt 4.6, Leading zero omitted, Abs format (unit mm)*
G04 Created by KiCad (PCBNEW 10.0.6) date 2026-09-05 00:02:13*
%MOMM*%
%LPD*%
G01*
G04 APERTURE LIST*
G04 Aperture macros list*
%AMRoundRect*
0 Rectangle with rounded corners*
0 $1 Rounding radius*
0 $2 $3 $4 $5 $6 $7 $8 $9 X,Y pos of 4 corners*
0 Add a 4 corners polygon primitive as box body*
4,1,4,$2,$3,$4,$5,$6,$7,$8,$9,$2,$3,0*
0 Add four circle primitives for the rounded corners*
1,1,$1+$1,$2,$3*
1,1,$1+$1,$4,$5*
1,1,$1+$1,$6,$7*
1,1,$1+$1,$8,$9*
0 Add four rect primitives between the rounded corners*
20,1,$1+$1,$2,$3,$4,$5,0*
20,1,$1+$1,$4,$5,$6,$7,0*
20,1,$1+$1,$6,$7,$8,$9,0*
20,1,$1+$1,$8,$9,$2,$3,0*%
G04 Aperture macros list end*
%TA.AperFunction,ComponentPad*%
%ADD10C,1.600000*%
%TD*%
%TA.AperFunction,ComponentPad*%
%ADD11RoundRect,0.250000X0.550000X-0.550000X0.550000X0.550000X-0.550000X0.550000X-0.550000X-0.550000X0*%
%TD*%
%TA.AperFunction,ComponentPad*%
%ADD12R,3.500000X1.700000*%
%TD*%
%TA.AperFunction,ComponentPad*%
%ADD13O,3.600000X1.700000*%
%TD*%
%TA.AperFunction,ComponentPad*%
%ADD14O,3.700000X1.700000*%
%TD*%
%TA.AperFunction,ComponentPad*%
%ADD15C,2.000000*%
%TD*%
%TA.AperFunction,ComponentPad*%
%ADD16R,3.200000X2.000000*%
%TD*%
%TA.AperFunction,ComponentPad*%
%ADD17R,2.000000X2.000000*%
%TD*%
%TA.AperFunction,ComponentPad*%
%ADD18C,2.200000*%
%TD*%
%TA.AperFunction,Conductor*%
%ADD19C,0.200000*%
%TD*%
G04 APERTURE END LIST*
D10*
%TO.P,D1,2,A_2*%
%TO.N,Net-(D1-A)*%
X107348724Y-53263750D03*
D11*
%TO.P,D1,1,K_1*%
%TO.N,/Row 1*%
X107348724Y-60883750D03*
%TD*%
D12*
%TO.P,U1,1,PA02_A0_D0_1*%
%TO.N,/Row 1*%
X105973724Y-103883750D03*
D13*
%TO.P,U1,2,PA4_A1_D1_2*%
%TO.N,/Row 2*%
X105973724Y-101343750D03*
%TO.P,U1,3,PA10_A2_D2_3*%
%TO.N,/Column 1*%
X105973724Y-98803750D03*
%TO.P,U1,4,PA11_A3_D3_4*%
%TO.N,/Column 2*%
X105973724Y-96263750D03*
%TO.P,U1,5,PA8_A4_D4_SDA_5*%
%TO.N,/Column 3*%
X105973724Y-93723750D03*
%TO.P,U1,6,PA9_A5_D5_SCL_6*%
%TO.N,/ENC_L_A*%
X105973724Y-91183750D03*
%TO.P,U1,7,PB08_A6_D6_TX_7*%
%TO.N,/ENC_L_B*%
X105973724Y-88643750D03*
%TO.P,U1,8,PB09_A7_D7_RX_8*%
%TO.N,/ENC_L_SW*%
X88723724Y-88643750D03*
%TO.P,U1,9,PA7_A8_D8_SCK_9*%
%TO.N,/ENC_R_A*%
X88723724Y-91183750D03*
%TO.P,U1,10,PA5_A9_D9_MISO_10*%
%TO.N,/ENC_R_B*%
X88723724Y-93723750D03*
D14*
%TO.P,U1,11,PA6_A10_D10_MOSI_11*%
%TO.N,/ENC_R_SW*%
X88723724Y-96263750D03*
%TO.P,U1,12,3V3_12*%
%TO.N,unconnected-(U1-3V3-Pad12)*%
X88723724Y-98803750D03*
%TO.P,U1,13,GND_13*%
%TO.N,GND*%
X88723724Y-101343750D03*
%TO.P,U1,14,5V_14*%
%TO.N,unconnected-(U1-5V-Pad14)*%
X88723724Y-103883750D03*
%TD*%
D15*
%TO.P,SW8,S1,S1_S1*%
%TO.N,/ENC_R_SW*%
X141848724Y-98063750D03*
%TO.P,SW8,S2,S2_S2*%
%TO.N,GND*%
X141848724Y-93063750D03*
D16*
%TO.P,SW8,MP*%
%TO.N,N/C*%
X134848724Y-101163750D03*
X134848724Y-89963750D03*
D15*
%TO.P,SW8,B,B_B*%
%TO.N,/ENC_R_B*%
X127348724Y-98063750D03*
%TO.P,SW8,C,C_C*%
%TO.N,GND*%
X127348724Y-95563750D03*
D17*
%TO.P,SW8,A,A_A*%
%TO.N,/ENC_R_A*%
X127348724Y-93063750D03*
%TD*%
D15*
%TO.P,SW7,S1,S1_S1*%
%TO.N,/ENC_L_SW*%
X67011224Y-98082500D03*
%TO.P,SW7,S2,S2_S2*%
%TO.N,GND*%
X67011224Y-93082500D03*
D16*
%TO.P,SW7,MP*%
%TO.N,N/C*%
X60011224Y-101182500D03*
X60011224Y-89982500D03*
D15*
%TO.P,SW7,B,B_B*%
%TO.N,/ENC_L_B*%
X52511224Y-98082500D03*
%TO.P,SW7,C,C_C*%
%TO.N,GND*%
X52511224Y-95582500D03*
D17*
%TO.P,SW7,A,A_A*%
%TO.N,/ENC_L_A*%
X52511224Y-93082500D03*
%TD*%
D18*
%TO.P,SW6,1,1_1*%
%TO.N,/Column 3*%
X118748724Y-89823750D03*
%TO.P,SW6,2,2_2*%
%TO.N,Net-(D6-A)*%
X112398724Y-92363750D03*
%TD*%
%TO.P,SW5,1,1_1*%
%TO.N,/Column 2*%
X80648724Y-89823750D03*
%TO.P,SW5,2,2_2*%
%TO.N,Net-(D5-A)*%
X74298724Y-92363750D03*
%TD*%
%TO.P,SW4,1,1_1*%
%TO.N,/Column 1*%
X118748724Y-70773750D03*
%TO.P,SW4,2,2_2*%
%TO.N,Net-(D4-A)*%
X112398724Y-73313750D03*
%TD*%
%TO.P,SW3,1,1_1*%
%TO.N,/Column 3*%
X99698724Y-70773750D03*
%TO.P,SW3,2,2_2*%
%TO.N,Net-(D3-A)*%
X93348724Y-73313750D03*
%TD*%
%TO.P,SW2,1,1_1*%
%TO.N,/Column 2*%
X80648724Y-70773750D03*
%TO.P,SW2,2,2_2*%
%TO.N,Net-(D2-A)*%
X74298724Y-73313750D03*
%TD*%
%TO.P,SW1,1,1_1*%
%TO.N,/Column 1*%
X99698724Y-51723750D03*
%TO.P,SW1,2,2_2*%
%TO.N,Net-(D1-A)*%
X93348724Y-54263750D03*
%TD*%
D11*
%TO.P,D6,1,K_1*%
%TO.N,/Row 2*%
X125348724Y-99073750D03*
D10*
%TO.P,D6,2,A_2*%
%TO.N,Net-(D6-A)*%
X125348724Y-91453750D03*
%TD*%
D11*
%TO.P,D5,1,K_1*%
%TO.N,/Row 2*%
X69348724Y-99073750D03*
D10*
%TO.P,D5,2,A_2*%
%TO.N,Net-(D5-A)*%
X69348724Y-91453750D03*
%TD*%
D11*
%TO.P,D4,1,K_1*%
%TO.N,/Row 2*%
X125348724Y-79883750D03*
D10*
%TO.P,D4,2,A_2*%
%TO.N,Net-(D4-A)*%
X125348724Y-72263750D03*
%TD*%
D11*
%TO.P,D3,1,K_1*%
%TO.N,/Row 1*%
X106348724Y-79883750D03*
D10*
%TO.P,D3,2,A_2*%
%TO.N,Net-(D3-A)*%
X106348724Y-72263750D03*
%TD*%
D11*
%TO.P,D2,1,K_1*%
%TO.N,/Row 1*%
X87348724Y-79883750D03*
D10*
%TO.P,D2,2,A_2*%
%TO.N,Net-(D2-A)*%
X87348724Y-72263750D03*
%TD*%
%TO.N,/Row 2*%
D19*
X89723724Y-91183750D02*
X83988623Y-91183750D01*
X83988623Y-91183750D02*
X81228623Y-88423750D01*
X81228623Y-88423750D02*
X80068825Y-88423750D01*
X80068825Y-88423750D02*
X75758724Y-92733851D01*
X74970000Y-96682500D02*
X66572746Y-96682500D01*
X66572746Y-96682500D02*
X65711224Y-97544022D01*
X75758724Y-92733851D02*
X75758724Y-95893776D01*
X75758724Y-95893776D02*
X74970000Y-96682500D01*
X65711224Y-97544022D02*
X65711224Y-98620978D01*
X65711224Y-98620978D02*
X66472746Y-99382500D01*
X66472746Y-99382500D02*
X69039974Y-99382500D01*
X69039974Y-99382500D02*
X69348724Y-99073750D01*
%TO.N,GND*%
X104973724Y-91183750D02*
X105593724Y-90563750D01*
X105593724Y-90563750D02*
X113144309Y-90563750D01*
X142387202Y-99363750D02*
X131148724Y-99363750D01*
X113144309Y-90563750D02*
X113964410Y-91383851D01*
X124727404Y-89953750D02*
X125970045Y-89953750D01*
X113964410Y-91383851D02*
X123297302Y-91383851D01*
X123297302Y-91383851D02*
X124727404Y-89953750D01*
X125970045Y-89953750D02*
X127380045Y-91363750D01*
X127380045Y-91363750D02*
X136987202Y-91363750D01*
X136987202Y-91363750D02*
X143148724Y-97525272D01*
X143148724Y-97525272D02*
X143148724Y-98602228D01*
X143148724Y-98602228D02*
X142387202Y-99363750D01*
X131148724Y-99363750D02*
X127348724Y-95563750D01*
%TO.N,/Row 1*%
X107348724Y-60883750D02*
X116090044Y-60883750D01*
X116090044Y-60883750D02*
X126848724Y-71642430D01*
X126848724Y-71642430D02*
X126848724Y-80268494D01*
X126133468Y-80983750D02*
X107448724Y-80983750D01*
X126848724Y-80268494D02*
X126133468Y-80983750D01*
X107448724Y-80983750D02*
X106348724Y-79883750D01*
X87348724Y-79883750D02*
X87348724Y-86268750D01*
X87348724Y-86268750D02*
X89723724Y-88643750D01*
%TO.N,/ENC_L_SW*%
X68011224Y-97082500D02*
X76398386Y-97082500D01*
%TO.N,/Row 2*%
X125348724Y-79883750D02*
X126448724Y-78783750D01*
X126448724Y-78783750D02*
X126448724Y-71808115D01*
X126448724Y-71808115D02*
X124014359Y-69373750D01*
X124014359Y-69373750D02*
X94743140Y-69373750D01*
X90773724Y-73343166D02*
X90773724Y-90133750D01*
X94743140Y-69373750D02*
X90773724Y-73343166D01*
X90773724Y-90133750D02*
X89723724Y-91183750D01*
%TO.N,/ENC_R_SW*%
X141848724Y-98063750D02*
X135548724Y-91763750D01*
X135548724Y-91763750D02*
X127214359Y-91763750D01*
X127214359Y-91763750D02*
X125804359Y-90353750D01*
X123462988Y-91783851D02*
X113798724Y-91783851D01*
X125804359Y-90353750D02*
X124893089Y-90353750D01*
X113798724Y-91783851D02*
X112978623Y-90963750D01*
X124893089Y-90353750D02*
X123462988Y-91783851D01*
X112978623Y-90963750D02*
X111818825Y-90963750D01*
X111818825Y-90963750D02*
X106518825Y-96263750D01*
X106518825Y-96263750D02*
X104973724Y-96263750D01*
%TO.N,/ENC_L_SW*%
X67011224Y-98082500D02*
X68011224Y-97082500D01*
X76398386Y-97082500D02*
X81809636Y-102493750D01*
X81809636Y-102493750D02*
X103583724Y-102493750D01*
X103583724Y-102493750D02*
X104973724Y-103883750D01*
%TO.N,/Column 3*%
X99698724Y-70773750D02*
X93908825Y-70773750D01*
X93908825Y-70773750D02*
X91948724Y-72733851D01*
X86623724Y-94200096D02*
X87297378Y-94873750D01*
X87297378Y-94873750D02*
X89910070Y-94873750D01*
X89910070Y-94873750D02*
X91263724Y-96227404D01*
X91948724Y-72733851D02*
X91948724Y-73967152D01*
X91948724Y-73967152D02*
X93348724Y-75367152D01*
X93348724Y-75367152D02*
X93348724Y-89533064D01*
X93348724Y-89533064D02*
X90308038Y-92573750D01*
X86623724Y-93247404D02*
X86623724Y-94200096D01*
X90308038Y-92573750D02*
X87297378Y-92573750D01*
X87297378Y-92573750D02*
X86623724Y-93247404D01*
X91263724Y-96227404D02*
X91263724Y-97263750D01*
X91263724Y-97263750D02*
X89723724Y-98803750D01*
%TO.N,/Column 2*%
X80648724Y-89823750D02*
X87088724Y-96263750D01*
X87088724Y-96263750D02*
X89723724Y-96263750D01*
%TO.N,/Column 1*%
X118748724Y-70773750D02*
X112673724Y-70773750D01*
X112673724Y-70773750D02*
X89723724Y-93723750D01*
%TO.N,/ENC_R_B*%
X127348724Y-98063750D02*
X127348724Y-99477963D01*
X104547378Y-102493750D02*
X103873724Y-101820096D01*
X127348724Y-99477963D02*
X124332937Y-102493750D01*
X124332937Y-102493750D02*
X104547378Y-102493750D01*
X103873724Y-101820096D02*
X103873724Y-99903750D01*
X103873724Y-99903750D02*
X104973724Y-98803750D01*
%TO.N,/ENC_R_A*%
X127348724Y-93063750D02*
X119068724Y-101343750D01*
X119068724Y-101343750D02*
X104973724Y-101343750D01*
%TO.N,/ENC_L_B*%
X52511224Y-98082500D02*
X58312474Y-103883750D01*
X58312474Y-103883750D02*
X89723724Y-103883750D01*
%TO.N,Net-(D5-A)*%
X74298724Y-92363750D02*
X70258724Y-92363750D01*
X70258724Y-92363750D02*
X69348724Y-91453750D01*
%TO.N,Net-(D6-A)*%
X112398724Y-92363750D02*
X124438724Y-92363750D01*
X124438724Y-92363750D02*
X125348724Y-91453750D01*
%TO.N,Net-(D4-A)*%
X112398724Y-73313750D02*
X124298724Y-73313750D01*
X124298724Y-73313750D02*
X125348724Y-72263750D01*
%TO.N,Net-(D3-A)*%
X93348724Y-73313750D02*
X105298724Y-73313750D01*
X105298724Y-73313750D02*
X106348724Y-72263750D01*
%TO.N,Net-(D2-A)*%
X74298724Y-73313750D02*
X86298724Y-73313750D01*
X86298724Y-73313750D02*
X87348724Y-72263750D01*
%TO.N,Net-(D1-A)*%
X93348724Y-54263750D02*
X106348724Y-54263750D01*
X106348724Y-54263750D02*
X107348724Y-53263750D01*
%TD*%
%TA.AperFunction,NonConductor*%
G36*
X111237284Y-44700185D02*
G01*
X111267495Y-44727568D01*
X132178968Y-71161910D01*
X145910432Y-88519952D01*
X145945250Y-88563965D01*
X145971404Y-88628755D01*
X145972000Y-88640897D01*
X145972000Y-109230500D01*
X145952315Y-109297539D01*
X145899511Y-109343294D01*
X145848000Y-109354500D01*
X49097000Y-109354500D01*
X49029961Y-109334815D01*
X48984206Y-109282011D01*
X48973000Y-109230500D01*
X48973000Y-92034635D01*
X51010724Y-92034635D01*
X51010724Y-94130370D01*
X51010725Y-94130376D01*
X51017132Y-94189983D01*
X51067426Y-94324828D01*
X51067430Y-94324835D01*
X51153676Y-94440044D01*
X51153679Y-94440047D01*
X51271422Y-94528190D01*
X51313293Y-94584123D01*
X51318277Y-94653815D01*
X51297429Y-94700341D01*
X51227883Y-94796063D01*
X51120657Y-95006503D01*
X51047670Y-95231131D01*
X51010724Y-95464402D01*
X51010724Y-95700597D01*
X51047670Y-95933868D01*
X51120657Y-96158496D01*
X51201146Y-96316463D01*
X51227881Y-96368933D01*
X51366707Y-96560010D01*
X51366709Y-96560012D01*
X51533714Y-96727017D01*
X51540827Y-96732185D01*
X51583490Y-96787517D01*
X51589466Y-96857130D01*
X51556858Y-96918924D01*
X51540827Y-96932815D01*
X51533714Y-96937982D01*
X51366709Y-97104987D01*
X51366709Y-97104988D01*
X51366707Y-97104990D01*
X51329242Y-97156556D01*
X51227881Y-97296066D01*
X51120657Y-97506503D01*
X51047670Y-97731131D01*
X51010724Y-97964402D01*
X51010724Y-98200597D01*
X51047670Y-98433868D01*
X51120657Y-98658496D01*
X51227881Y-98868933D01*
X51366707Y-99060010D01*
X51533714Y-99227017D01*
X51724791Y-99365843D01*
X51806218Y-99407332D01*
X51935227Y-99473066D01*
X51935229Y-99473066D01*
X51935232Y-99473068D01*
X52027516Y-99503053D01*
X52159855Y-99546053D01*
X52393127Y-99583000D01*
X52393132Y-99583000D01*
X52629321Y-99583000D01*
X52735350Y-99566205D01*
X52862592Y-99546053D01*
X52988790Y-99505047D01*
X53058628Y-99503053D01*
X53114787Y-99535298D01*
X57827613Y-104248124D01*
X57827623Y-104248135D01*
X57831953Y-104252465D01*
X57831954Y-104252466D01*
X57943758Y-104364270D01*
X57943760Y-104364271D01*
X57943764Y-104364274D01*
X58080683Y-104443323D01*
X58080690Y-104443327D01*
X58192493Y-104473284D01*
X58233416Y-104484250D01*
X58233417Y-104484250D01*
X86438005Y-104484250D01*
X86505044Y-104503935D01*
X86548489Y-104551955D01*
X86568671Y-104591564D01*
X86568672Y-104591565D01*
X86693614Y-104763536D01*
X86843937Y-104913859D01*
X87015903Y-105038798D01*
X87015905Y-105038799D01*
X87015908Y-105038801D01*
X87205312Y-105135307D01*
X87407481Y-105200996D01*
X87617437Y-105234250D01*
X87617438Y-105234250D01*
X89830010Y-105234250D01*
X89830011Y-105234250D01*
X90039967Y-105200996D01*
X90242136Y-105135307D01*
X90431540Y-105038801D01*
X90517862Y-104976085D01*
X90603510Y-104913859D01*
X90603512Y-104913856D01*
X90603516Y-104913854D01*
X90753828Y-104763542D01*
X90753830Y-104763538D01*
X90753833Y-104763536D01*
X90878772Y-104591570D01*
X90878771Y-104591570D01*
X90878775Y-104591566D01*
X90975281Y-104402162D01*
X91040970Y-104199993D01*
X91074224Y-103990037D01*
X91074224Y-103777463D01*
X91040970Y-103567507D01*
X90975281Y-103365338D01*
X90929020Y-103274545D01*
X90916124Y-103205875D01*
X90942401Y-103141135D01*
X90999507Y-103100878D01*
X91039505Y-103094250D01*
X103283627Y-103094250D01*
X103350666Y-103113935D01*
X103371308Y-103130569D01*
X103686905Y-103446166D01*
X103720390Y-103507489D01*
X103723224Y-103533847D01*
X103723224Y-104781620D01*
X103723225Y-104781626D01*
X103729632Y-104841233D01*
X103779926Y-104976078D01*
X103779930Y-104976085D01*
X103866176Y-105091294D01*
X103866179Y-105091297D01*
X103981388Y-105177543D01*
X103981395Y-105177547D01*
X104116241Y-105227841D01*
X104116240Y-105227841D01*
X104123168Y-105228585D01*
X104175851Y-105234250D01*
X107771596Y-105234249D01*
X107831207Y-105227841D01*
X107966055Y-105177546D01*
X108081270Y-105091296D01*
X108167520Y-104976081D01*
X108217815Y-104841233D01*
X108224224Y-104781623D01*
X108224223Y-103218249D01*
X108243908Y-103151211D01*
X108296711Y-103105456D01*
X108348223Y-103094250D01*
X124246268Y-103094250D01*
X124246284Y-103094251D01*
X124253880Y-103094251D01*
X124411991Y-103094251D01*
X124411994Y-103094251D01*
X124564722Y-103053327D01*
X124650231Y-103003958D01*
X124701653Y-102974270D01*
X124813457Y-102862466D01*
X124813457Y-102862464D01*
X124823661Y-102852261D01*
X124823665Y-102852256D01*
X127707230Y-99968691D01*
X127707235Y-99968687D01*
X127717438Y-99958483D01*
X127717440Y-99958483D01*
X127829244Y-99846679D01*
X127891583Y-99738704D01*
X127908301Y-99709748D01*
X127949225Y-99557020D01*
X127949225Y-99517817D01*
X127968910Y-99450778D01*
X128016931Y-99407332D01*
X128135155Y-99347094D01*
X128135154Y-99347094D01*
X128135157Y-99347093D01*
X128326234Y-99208267D01*
X128493241Y-99041260D01*
X128632067Y-98850183D01*
X128739292Y-98639742D01*
X128812277Y-98415118D01*
X128840717Y-98235549D01*
X128847846Y-98190544D01*
X128877775Y-98127409D01*
X128937087Y-98090478D01*
X129006949Y-98091476D01*
X129057999Y-98122260D01*
X130780008Y-99844270D01*
X130780010Y-99844271D01*
X130780014Y-99844274D01*
X130916933Y-99923323D01*
X130916936Y-99923325D01*
X130916940Y-99923327D01*
X131069667Y-99964251D01*
X131069669Y-99964251D01*
X131235378Y-99964251D01*
X131235394Y-99964250D01*
X132626480Y-99964250D01*
X132693519Y-99983935D01*
X132739274Y-100036739D01*
X132749769Y-100101502D01*
X132748224Y-100115877D01*
X132748224Y-100115883D01*
X132748224Y-100115884D01*
X132748224Y-102211620D01*
X132748225Y-102211626D01*
X132754632Y-102271233D01*
X132804926Y-102406078D01*
X132804930Y-102406085D01*
X132891176Y-102521294D01*
X132891179Y-102521297D01*
X133006388Y-102607543D01*
X133006395Y-102607547D01*
X133141241Y-102657841D01*
X133141240Y-102657841D01*
X133148168Y-102658585D01*
X133200851Y-102664250D01*
X136496596Y-102664249D01*
X136556207Y-102657841D01*
X136691055Y-102607546D01*
X136806270Y-102521296D01*
X136892520Y-102406081D01*
X136942815Y-102271233D01*
X136949224Y-102211623D01*
X136949223Y-100115878D01*
X136947678Y-100101502D01*
X136960085Y-100032743D01*
X137007697Y-99981607D01*
X137070968Y-99964250D01*
X142300533Y-99964250D01*
X142300549Y-99964251D01*
X142308145Y-99964251D01*
X142466256Y-99964251D01*
X142466259Y-99964251D01*
X142618987Y-99923327D01*
X142708298Y-99871763D01*
X142755918Y-99844270D01*
X142867722Y-99732466D01*
X142867722Y-99732464D01*
X142877926Y-99722261D01*
X142877929Y-99722256D01*
X143629244Y-98970944D01*
X143708301Y-98834012D01*
X143749225Y-98681285D01*
X143749225Y-98523170D01*
X143749225Y-98515575D01*
X143749224Y-98515557D01*
X143749224Y-97614331D01*
X143749225Y-97614318D01*
X143749225Y-97446217D01*
X143749225Y-97446215D01*
X143708301Y-97293487D01*
X143669222Y-97225801D01*
X143669222Y-97225800D01*
X143629246Y-97156559D01*
X143629245Y-97156558D01*
X143629244Y-97156556D01*
X143517440Y-97044752D01*
X143517439Y-97044751D01*
X143513109Y-97040421D01*
X143513098Y-97040411D01*
X141121447Y-94648760D01*
X141087962Y-94587437D01*
X141092946Y-94517745D01*
X141134818Y-94461812D01*
X141200282Y-94437395D01*
X141265423Y-94450594D01*
X141272727Y-94454316D01*
X141272729Y-94454316D01*
X141272732Y-94454318D01*
X141393136Y-94493439D01*
X141497355Y-94527303D01*
X141730627Y-94564250D01*
X141730632Y-94564250D01*
X141966821Y-94564250D01*
X142200092Y-94527303D01*
X142229508Y-94517745D01*
X142424716Y-94454318D01*
X142635157Y-94347093D01*
X142826234Y-94208267D01*
X142993241Y-94041260D01*
X143132067Y-93850183D01*
X143239292Y-93639742D01*
X143312277Y-93415118D01*
X143324737Y-93336450D01*
X143349224Y-93181847D01*
X143349224Y-92945652D01*
X143312277Y-92712381D01*
X143254495Y-92534549D01*
X143239292Y-92487758D01*
X143239290Y-92487755D01*
X143239290Y-92487753D01*
X143182071Y-92375456D01*
X143132067Y-92277317D01*
X142993241Y-92086240D01*
X142826234Y-91919233D01*
X142635157Y-91780407D01*
X142621168Y-91773279D01*
X142424720Y-91673183D01*
X142200092Y-91600196D01*
X141966821Y-91563250D01*
X141966816Y-91563250D01*
X141730632Y-91563250D01*
X141730627Y-91563250D01*
X141497355Y-91600196D01*
X141272727Y-91673183D01*
X141062290Y-91780407D01*
X140980043Y-91840164D01*
X140871214Y-91919233D01*
X140871212Y-91919235D01*
X140871211Y-91919235D01*
X140704209Y-92086237D01*
X140704209Y-92086238D01*
X140704207Y-92086240D01*
X140668519Y-92135360D01*
X140565381Y-92277316D01*
X140458157Y-92487753D01*
X140385170Y-92712381D01*
X140348224Y-92945652D01*
X140348224Y-93181847D01*
X140385170Y-93415118D01*
X140458158Y-93639747D01*
X140461881Y-93647054D01*
X140474775Y-93715723D01*
X140448496Y-93780463D01*
X140391388Y-93820718D01*
X140321583Y-93823708D01*
X140263713Y-93791026D01*
X137474792Y-91002105D01*
X137474790Y-91002102D01*
X137355919Y-90883231D01*
X137355918Y-90883230D01*
X137269106Y-90833110D01*
X137269106Y-90833109D01*
X137269102Y-90833108D01*
X137218987Y-90804173D01*
X137066256Y-90763248D01*
X137058199Y-90762188D01*
X137058623Y-90758961D01*
X137006185Y-90743564D01*
X136960430Y-90690760D01*
X136949224Y-90639249D01*
X136949223Y-88915879D01*
X136949222Y-88915873D01*
X136949221Y-88915866D01*
X136942815Y-88856267D01*
X136914777Y-88781094D01*
X136892521Y-88721421D01*
X136892517Y-88721414D01*
X136806271Y-88606205D01*
X136806268Y-88606202D01*
X136691059Y-88519956D01*
X136691052Y-88519952D01*
X136556206Y-88469658D01*
X136556207Y-88469658D01*
X136496607Y-88463251D01*
X136496605Y-88463250D01*
X136496597Y-88463250D01*
X136496588Y-88463250D01*
X133200853Y-88463250D01*
X133200847Y-88463251D01*
X133141240Y-88469658D01*
X133006395Y-88519952D01*
X133006388Y-88519956D01*
X132891179Y-88606202D01*
X132891176Y-88606205D01*
X132804930Y-88721414D01*
X132804926Y-88721421D01*
X132754632Y-88856267D01*
X132748225Y-88915866D01*
X132748224Y-88915877D01*
X132748224Y-89821603D01*
X132748225Y-90639250D01*
X132728540Y-90706289D01*
X132675737Y-90752044D01*
X132624225Y-90763250D01*
X127680142Y-90763250D01*
X127613103Y-90743565D01*
X127592461Y-90726931D01*
X126457635Y-89592105D01*
X126457633Y-89592102D01*
X126338762Y-89473231D01*
X126338761Y-89473230D01*
X126248103Y-89420889D01*
X126248102Y-89420888D01*
X126201835Y-89394175D01*
X126201834Y-89394174D01*
X126189308Y-89390817D01*
X126049102Y-89353249D01*
X125890988Y-89353249D01*
X125883392Y-89353249D01*
X125883376Y-89353250D01*
X124814074Y-89353250D01*
X124814058Y-89353249D01*
X124806462Y-89353249D01*
X124648347Y-89353249D01*
X124571983Y-89373711D01*
X124495618Y-89394173D01*
X124495613Y-89394176D01*
X124358694Y-89473225D01*
X124358686Y-89473231D01*
X123084886Y-90747032D01*
X123023563Y-90780517D01*
X122997205Y-90783351D01*
X120258416Y-90783351D01*
X120191377Y-90763666D01*
X120145622Y-90710862D01*
X120135678Y-90641704D01*
X120147931Y-90603056D01*
X120188761Y-90522922D01*
X120231965Y-90438129D01*
X120309814Y-90198535D01*
X120349224Y-89949712D01*
X120349224Y-89697788D01*
X120309814Y-89448965D01*
X120231965Y-89209371D01*
X120231963Y-89209368D01*
X120231963Y-89209366D01*
X120190471Y-89127934D01*
X120117594Y-88984905D01*
X120081071Y-88934635D01*
X119969522Y-88781100D01*
X119969518Y-88781095D01*
X119791378Y-88602955D01*
X119791373Y-88602951D01*
X119587572Y-88454882D01*
X119587571Y-88454881D01*
X119587569Y-88454880D01*
X119511834Y-88416291D01*
X119363107Y-88340510D01*
X119123509Y-88262660D01*
X118920864Y-88230564D01*
X118874686Y-88223250D01*
X118622762Y-88223250D01*
X118576584Y-88230564D01*
X118373938Y-88262660D01*
X118134340Y-88340510D01*
X117909875Y-88454882D01*
X117706074Y-88602951D01*
X117706069Y-88602955D01*
X117527929Y-88781095D01*
X117527925Y-88781100D01*
X117379856Y-88984901D01*
X117265484Y-89209366D01*
X117187634Y-89448964D01*
X117175823Y-89523536D01*
X117148224Y-89697788D01*
X117148224Y-89949712D01*
X117187634Y-90198535D01*
X117265483Y-90438129D01*
X117265484Y-90438132D01*
X117265485Y-90438133D01*
X117349517Y-90603056D01*
X117362413Y-90671726D01*
X117336136Y-90736466D01*
X117279030Y-90776723D01*
X117239032Y-90783351D01*
X114264507Y-90783351D01*
X114197468Y-90763666D01*
X114176826Y-90747032D01*
X113631899Y-90202105D01*
X113631897Y-90202102D01*
X113513026Y-90083231D01*
X113513018Y-90083225D01*
X113418575Y-90028699D01*
X113418573Y-90028698D01*
X113376099Y-90004175D01*
X113376098Y-90004174D01*
X113363572Y-90000817D01*
X113223366Y-89963249D01*
X113065252Y-89963249D01*
X113057656Y-89963249D01*
X113057640Y-89963250D01*
X107786829Y-89963250D01*
X107719790Y-89943565D01*
X107674035Y-89890761D01*
X107664091Y-89821603D01*
X107693116Y-89758047D01*
X107713941Y-89738932D01*
X107803516Y-89673854D01*
X107953828Y-89523542D01*
X107953830Y-89523538D01*
X107953833Y-89523536D01*
X108062810Y-89373539D01*
X108078775Y-89351566D01*
X108175281Y-89162162D01*
X108240970Y-88959993D01*
X108274224Y-88750037D01*
X108274224Y-88537463D01*
X108240970Y-88327507D01*
X108175281Y-88125338D01*
X108078775Y-87935934D01*
X108078773Y-87935931D01*
X108078772Y-87935929D01*
X107953833Y-87763963D01*
X107803510Y-87613640D01*
X107631544Y-87488701D01*
X107442138Y-87392194D01*
X107442137Y-87392193D01*
X107442136Y-87392193D01*
X107239967Y-87326504D01*
X107239965Y-87326503D01*
X107239964Y-87326503D01*
X107078681Y-87300958D01*
X107030011Y-87293250D01*
X104917437Y-87293250D01*
X104868766Y-87300958D01*
X104707484Y-87326503D01*
X104505309Y-87392194D01*
X104315903Y-87488701D01*
X104143937Y-87613640D01*
X103993614Y-87763963D01*
X103868675Y-87935929D01*
X103772168Y-88125335D01*
X103706477Y-88327510D01*
X103673224Y-88537463D01*
X103673224Y-88750036D01*
X103702461Y-88934635D01*
X103706478Y-88959993D01*
X103714572Y-88984905D01*
X103772168Y-89162164D01*
X103868675Y-89351570D01*
X103993614Y-89523536D01*
X104143937Y-89673859D01*
X104315906Y-89798800D01*
X104324670Y-89803266D01*
X104375466Y-89851241D01*
X104392260Y-89919062D01*
X104369722Y-89985197D01*
X104324670Y-90024234D01*
X104315906Y-90028699D01*
X104143937Y-90153640D01*
X103993614Y-90303963D01*
X103868675Y-90475929D01*
X103772168Y-90665335D01*
X103706477Y-90867510D01*
X103673224Y-91077463D01*
X103673224Y-91290036D01*
X103703786Y-91483000D01*
X103706478Y-91499993D01*
X103768843Y-91691933D01*
X103772168Y-91702164D01*
X103868675Y-91891570D01*
X103993614Y-92063536D01*
X104143937Y-92213859D01*
X104315906Y-92338800D01*
X104324670Y-92343266D01*
X104375466Y-92391241D01*
X104392260Y-92459062D01*
X104369722Y-92525197D01*
X104324670Y-92564234D01*
X104315906Y-92568699D01*
X104143937Y-92693640D01*
X103993614Y-92843963D01*
X103868675Y-93015929D01*
X103772168Y-93205335D01*
X103706477Y-93407510D01*
X103690270Y-93509838D01*
X103673224Y-93617463D01*
X103673224Y-93830037D01*
X103706478Y-94039993D01*
X103754185Y-94186820D01*
X103772168Y-94242164D01*
X103868675Y-94431570D01*
X103993614Y-94603536D01*
X104143937Y-94753859D01*
X104315906Y-94878800D01*
X104324670Y-94883266D01*
X104375466Y-94931241D01*
X104392260Y-94999062D01*
X104369722Y-95065197D01*
X104324670Y-95104234D01*
X104315906Y-95108699D01*
X104143937Y-95233640D01*
X103993614Y-95383963D01*
X103868675Y-95555929D01*
X103772168Y-95745335D01*
X103706477Y-95947510D01*
X103680174Y-96113582D01*
X103673224Y-96157463D01*
X103673224Y-96370037D01*
X103683258Y-96433394D01*
X103706477Y-96579989D01*
X103706477Y-96579991D01*
X103706478Y-96579993D01*
X103760443Y-96746080D01*
X103772168Y-96782164D01*
X103868675Y-96971570D01*
X103993614Y-97143536D01*
X104143937Y-97293859D01*
X104315906Y-97418800D01*
X104324670Y-97423266D01*
X104375466Y-97471241D01*
X104392260Y-97539062D01*
X104369722Y-97605197D01*
X104324670Y-97644234D01*
X104315906Y-97648699D01*
X104143937Y-97773640D01*
X103993614Y-97923963D01*
X103868675Y-98095929D01*
X103772168Y-98285335D01*
X103706477Y-98487510D01*
X103673224Y-98697463D01*
X103673224Y-98910036D01*
X103706477Y-99119992D01*
X103707954Y-99124536D01*
X103709948Y-99194378D01*
X103677703Y-99250534D01*
X103505010Y-99423228D01*
X103393205Y-99535032D01*
X103393199Y-99535040D01*
X103358275Y-99595532D01*
X103358275Y-99595534D01*
X103314147Y-99671964D01*
X103311045Y-99683542D01*
X103273223Y-99824693D01*
X103273223Y-99824695D01*
X103273223Y-99992796D01*
X103273224Y-99992809D01*
X103273224Y-101733426D01*
X103273223Y-101733444D01*
X103273223Y-101769250D01*
X103253538Y-101836289D01*
X103200734Y-101882044D01*
X103149223Y-101893250D01*
X91135851Y-101893250D01*
X91068812Y-101873565D01*
X91023057Y-101820761D01*
X91013113Y-101751603D01*
X91017920Y-101730932D01*
X91023921Y-101712463D01*
X91040970Y-101659993D01*
X91074224Y-101450037D01*
X91074224Y-101237463D01*
X91040970Y-101027507D01*
X90975281Y-100825338D01*
X90878775Y-100635934D01*
X90878773Y-100635931D01*
X90878772Y-100635929D01*
X90753833Y-100463963D01*
X90603510Y-100313640D01*
X90431544Y-100188701D01*
X90430839Y-100188341D01*
X90422778Y-100184235D01*
X90371983Y-100136262D01*
X90355187Y-100068442D01*
X90377723Y-100002306D01*
X90422778Y-99963265D01*
X90431540Y-99958801D01*
X90480366Y-99923327D01*
X90603510Y-99833859D01*
X90603512Y-99833856D01*
X90603516Y-99833854D01*
X90753828Y-99683542D01*
X90753830Y-99683538D01*
X90753833Y-99683536D01*
X90878772Y-99511570D01*
X90878771Y-99511570D01*
X90878775Y-99511566D01*
X90975281Y-99322162D01*
X91040970Y-99119993D01*
X91074224Y-98910037D01*
X91074224Y-98697463D01*
X91040970Y-98487507D01*
X91027230Y-98445223D01*
X91025236Y-98375385D01*
X91057479Y-98319228D01*
X91622230Y-97754478D01*
X91622235Y-97754474D01*
X91632438Y-97744270D01*
X91632440Y-97744270D01*
X91744244Y-97632466D01*
X91807488Y-97522923D01*
X91823301Y-97495535D01*
X91864225Y-97342807D01*
X91864225Y-97184693D01*
X91864225Y-97177098D01*
X91864224Y-97177080D01*
X91864224Y-96316463D01*
X91864225Y-96316450D01*
X91864225Y-96148349D01*
X91864225Y-96148347D01*
X91823301Y-95995619D01*
X91781734Y-95923623D01*
X91744244Y-95858688D01*
X91632440Y-95746884D01*
X91632439Y-95746883D01*
X91628109Y-95742553D01*
X91628098Y-95742543D01*
X90684143Y-94798588D01*
X90650658Y-94737265D01*
X90655642Y-94667573D01*
X90684143Y-94623226D01*
X90703828Y-94603542D01*
X90703830Y-94603538D01*
X90703833Y-94603536D01*
X90828772Y-94431570D01*
X90828771Y-94431570D01*
X90828775Y-94431566D01*
X90925281Y-94242162D01*
X90990970Y-94039993D01*
X91024224Y-93830037D01*
X91024224Y-93617463D01*
X90990970Y-93407507D01*
X90989493Y-93402964D01*
X90987497Y-93333124D01*
X91019741Y-93276966D01*
X104836545Y-79460162D01*
X104897866Y-79426679D01*
X104967558Y-79431663D01*
X105023491Y-79473535D01*
X105047908Y-79538999D01*
X105048224Y-79547845D01*
X105048224Y-80483751D01*
X105048225Y-80483768D01*
X105058724Y-80586546D01*
X105058725Y-80586549D01*
X105075513Y-80637210D01*
X105113910Y-80753084D01*
X105206012Y-80902406D01*
X105330068Y-81026462D01*
X105479390Y-81118564D01*
X105645927Y-81173749D01*
X105748715Y-81184250D01*
X106748626Y-81184249D01*
X106815665Y-81203933D01*
X106836307Y-81220568D01*
X106963863Y-81348124D01*
X106963873Y-81348135D01*
X106968203Y-81352465D01*
X106968204Y-81352466D01*
X107080008Y-81464270D01*
X107166819Y-81514389D01*
X107166821Y-81514391D01*
X107204875Y-81536361D01*
X107216939Y-81543327D01*
X107369667Y-81584251D01*
X107369670Y-81584251D01*
X107535377Y-81584251D01*
X107535393Y-81584250D01*
X126046799Y-81584250D01*
X126046815Y-81584251D01*
X126054411Y-81584251D01*
X126212522Y-81584251D01*
X126212525Y-81584251D01*
X126365253Y-81543327D01*
X126415372Y-81514389D01*
X126502184Y-81464270D01*
X126613988Y-81352466D01*
X126613988Y-81352464D01*
X126624196Y-81342257D01*
X126624197Y-81342254D01*
X127329244Y-80637210D01*
X127408301Y-80500278D01*
X127449225Y-80347551D01*
X127449225Y-80189436D01*
X127449225Y-80181841D01*
X127449224Y-80181823D01*
X127449224Y-71563375D01*
X127449224Y-71563373D01*
X127423063Y-71465737D01*
X127408301Y-71410645D01*
X127360352Y-71327595D01*
X127329244Y-71273714D01*
X127217440Y-71161910D01*
X127217439Y-71161909D01*
X127213109Y-71157579D01*
X127213098Y-71157569D01*
X116577634Y-60522105D01*
X116577632Y-60522102D01*
X116458761Y-60403231D01*
X116458760Y-60403230D01*
X116371948Y-60353110D01*
X116371948Y-60353109D01*
X116371944Y-60353108D01*
X116321829Y-60324173D01*
X116169101Y-60283249D01*
X116010987Y-60283249D01*
X116003391Y-60283249D01*
X116003375Y-60283250D01*
X108760887Y-60283250D01*
X108693848Y-60263565D01*
X108648093Y-60210761D01*
X108639635Y-60185209D01*
X108638724Y-60180957D01*
X108638723Y-60180953D01*
X108583538Y-60014416D01*
X108491436Y-59865094D01*
X108367380Y-59741038D01*
X108218058Y-59648936D01*
X108051521Y-59593751D01*
X108051519Y-59593750D01*
X107948734Y-59583250D01*
X106748722Y-59583250D01*
X106748705Y-59583251D01*
X106645927Y-59593750D01*
X106645924Y-59593751D01*
X106479392Y-59648935D01*
X106479387Y-59648937D01*
X106330066Y-59741039D01*
X106206013Y-59865092D01*
X106113911Y-60014413D01*
X106113910Y-60014416D01*
X106058725Y-60180953D01*
X106058725Y-60180954D01*
X106058724Y-60180954D01*
X106048224Y-60283733D01*
X106048224Y-61483751D01*
X106048225Y-61483768D01*
X106058724Y-61586546D01*
X106058725Y-61586549D01*
X106113909Y-61753081D01*
X106113910Y-61753084D01*
X106206012Y-61902406D01*
X106330068Y-62026462D01*
X106479390Y-62118564D01*
X106645927Y-62173749D01*
X106748715Y-62184250D01*
X107948732Y-62184249D01*
X108051521Y-62173749D01*
X108218058Y-62118564D01*
X108367380Y-62026462D01*
X108491436Y-61902406D01*
X108583538Y-61753084D01*
X108638723Y-61586547D01*
X108638723Y-61586543D01*
X108639636Y-61582283D01*
X108672923Y-61520852D01*
X108734138Y-61487169D01*
X108760887Y-61484250D01*
X115789947Y-61484250D01*
X115856986Y-61503935D01*
X115877628Y-61520569D01*
X122918628Y-68561569D01*
X122952113Y-68622892D01*
X122947129Y-68692584D01*
X122905257Y-68748517D01*
X122839793Y-68772934D01*
X122830947Y-68773250D01*
X94829809Y-68773250D01*
X94829793Y-68773249D01*
X94822197Y-68773249D01*
X94664083Y-68773249D01*
X94556727Y-68802015D01*
X94511350Y-68814174D01*
X94511349Y-68814175D01*
X94461236Y-68843109D01*
X94461235Y-68843110D01*
X94417829Y-68868170D01*
X94374425Y-68893229D01*
X94374422Y-68893231D01*
X90293205Y-72974448D01*
X90293203Y-72974451D01*
X90243085Y-73061260D01*
X90243083Y-73061262D01*
X90214149Y-73111375D01*
X90214148Y-73111376D01*
X90214147Y-73111381D01*
X90173223Y-73264109D01*
X90173223Y-73264111D01*
X90173223Y-73432212D01*
X90173224Y-73432225D01*
X90173224Y-87215376D01*
X90153539Y-87282415D01*
X90100735Y-87328170D01*
X90031577Y-87338114D01*
X90010909Y-87333308D01*
X89989964Y-87326503D01*
X89828681Y-87300958D01*
X89780011Y-87293250D01*
X89780010Y-87293250D01*
X89273821Y-87293250D01*
X89206782Y-87273565D01*
X89186140Y-87256931D01*
X87985543Y-86056334D01*
X87952058Y-85995011D01*
X87949224Y-85968653D01*
X87949224Y-81295912D01*
X87968909Y-81228873D01*
X88021713Y-81183118D01*
X88047276Y-81174657D01*
X88051512Y-81173749D01*
X88051521Y-81173749D01*
X88218058Y-81118564D01*
X88367380Y-81026462D01*
X88491436Y-80902406D01*
X88583538Y-80753084D01*
X88638723Y-80586547D01*
X88649224Y-80483759D01*
X88649223Y-79283742D01*
X88638723Y-79180953D01*
X88583538Y-79014416D01*
X88491436Y-78865094D01*
X88367380Y-78741038D01*
X88218058Y-78648936D01*
X88051521Y-78593751D01*
X88051519Y-78593750D01*
X87948734Y-78583250D01*
X86748722Y-78583250D01*
X86748705Y-78583251D01*
X86645927Y-78593750D01*
X86645924Y-78593751D01*
X86479392Y-78648935D01*
X86479387Y-78648937D01*
X86330066Y-78741039D01*
X86206013Y-78865092D01*
X86113911Y-79014413D01*
X86113910Y-79014416D01*
X86058725Y-79180953D01*
X86058725Y-79180954D01*
X86058724Y-79180954D01*
X86048224Y-79283733D01*
X86048224Y-80483751D01*
X86048225Y-80483768D01*
X86058724Y-80586546D01*
X86058725Y-80586549D01*
X86075513Y-80637210D01*
X86113910Y-80753084D01*
X86206012Y-80902406D01*
X86330068Y-81026462D01*
X86479390Y-81118564D01*
X86645927Y-81173749D01*
X86645933Y-81173749D01*
X86650172Y-81174657D01*
X86711608Y-81207935D01*
X86745300Y-81269144D01*
X86748224Y-81295912D01*
X86748224Y-86182080D01*
X86748223Y-86182098D01*
X86748223Y-86347804D01*
X86748222Y-86347804D01*
X86789147Y-86500535D01*
X86818082Y-86550650D01*
X86818083Y-86550654D01*
X86818084Y-86550654D01*
X86868203Y-86637464D01*
X86868205Y-86637467D01*
X86987073Y-86756335D01*
X86987079Y-86756340D01*
X87389695Y-87158956D01*
X87423180Y-87220279D01*
X87418196Y-87289971D01*
X87376324Y-87345904D01*
X87340333Y-87364568D01*
X87255307Y-87392194D01*
X87065903Y-87488701D01*
X86893937Y-87613640D01*
X86743614Y-87763963D01*
X86618675Y-87935929D01*
X86522168Y-88125335D01*
X86456477Y-88327510D01*
X86423224Y-88537463D01*
X86423224Y-88750036D01*
X86452461Y-88934635D01*
X86456478Y-88959993D01*
X86464572Y-88984905D01*
X86522168Y-89162164D01*
X86618675Y-89351570D01*
X86743614Y-89523536D01*
X86893937Y-89673859D01*
X87065906Y-89798800D01*
X87074670Y-89803266D01*
X87125466Y-89851241D01*
X87142260Y-89919062D01*
X87119722Y-89985197D01*
X87074670Y-90024234D01*
X87065906Y-90028699D01*
X86893937Y-90153640D01*
X86743614Y-90303963D01*
X86618672Y-90475934D01*
X86618671Y-90475935D01*
X86598489Y-90515545D01*
X86550515Y-90566341D01*
X86488005Y-90583250D01*
X84288720Y-90583250D01*
X84221681Y-90563565D01*
X84201039Y-90546931D01*
X81716213Y-88062105D01*
X81716211Y-88062102D01*
X81597340Y-87943231D01*
X81597339Y-87943230D01*
X81510527Y-87893110D01*
X81510527Y-87893109D01*
X81510523Y-87893108D01*
X81460408Y-87864173D01*
X81307680Y-87823249D01*
X81149566Y-87823249D01*
X81141970Y-87823249D01*
X81141954Y-87823250D01*
X80147882Y-87823250D01*
X79989767Y-87823250D01*
X79837040Y-87864173D01*
X79837039Y-87864173D01*
X79837037Y-87864174D01*
X79837034Y-87864175D01*
X79786921Y-87893109D01*
X79786920Y-87893110D01*
X79743514Y-87918170D01*
X79700110Y-87943229D01*
X79700107Y-87943231D01*
X79588303Y-88055036D01*
X75940453Y-91702885D01*
X75879130Y-91736370D01*
X75809438Y-91731386D01*
X75753505Y-91689514D01*
X75742287Y-91671499D01*
X75716864Y-91621603D01*
X75667594Y-91524905D01*
X75632492Y-91476591D01*
X75519522Y-91321100D01*
X75519518Y-91321095D01*
X75341378Y-91142955D01*
X75341373Y-91142951D01*
X75137572Y-90994882D01*
X75137571Y-90994881D01*
X75137569Y-90994880D01*
X75058370Y-90954526D01*
X74913107Y-90880510D01*
X74673509Y-90802660D01*
X74597972Y-90790696D01*
X74424686Y-90763250D01*
X74172762Y-90763250D01*
X74063743Y-90780517D01*
X73923938Y-90802660D01*
X73684340Y-90880510D01*
X73459875Y-90994882D01*
X73256074Y-91142951D01*
X73256069Y-91142955D01*
X73077929Y-91321095D01*
X73077925Y-91321100D01*
X72929856Y-91524901D01*
X72929854Y-91524905D01*
X72845347Y-91690761D01*
X72842909Y-91695545D01*
X72794935Y-91746341D01*
X72732424Y-91763250D01*
X70761600Y-91763250D01*
X70694561Y-91743565D01*
X70648806Y-91690761D01*
X70638862Y-91621603D01*
X70639127Y-91619852D01*
X70649224Y-91556101D01*
X70649224Y-91351398D01*
X70617201Y-91149215D01*
X70578590Y-91030383D01*
X70553944Y-90954531D01*
X70553942Y-90954528D01*
X70553942Y-90954526D01*
X70516228Y-90880509D01*
X70461011Y-90772140D01*
X70440250Y-90743565D01*
X70340695Y-90606536D01*
X70195937Y-90461778D01*
X70030337Y-90341465D01*
X70030336Y-90341464D01*
X70030334Y-90341463D01*
X69956736Y-90303963D01*
X69847947Y-90248531D01*
X69653258Y-90185272D01*
X69478719Y-90157628D01*
X69451076Y-90153250D01*
X69246372Y-90153250D01*
X69222053Y-90157101D01*
X69044189Y-90185272D01*
X68849500Y-90248531D01*
X68667110Y-90341465D01*
X68501510Y-90461778D01*
X68356752Y-90606536D01*
X68236439Y-90772136D01*
X68143505Y-90954526D01*
X68080246Y-91149215D01*
X68048224Y-91351398D01*
X68048224Y-91556101D01*
X68077478Y-91740807D01*
X68068523Y-91810101D01*
X68023527Y-91863553D01*
X67956775Y-91884192D01*
X67889462Y-91865467D01*
X67882129Y-91860530D01*
X67797657Y-91799157D01*
X67587220Y-91691933D01*
X67362592Y-91618946D01*
X67129321Y-91582000D01*
X67129316Y-91582000D01*
X66893132Y-91582000D01*
X66893127Y-91582000D01*
X66659855Y-91618946D01*
X66435227Y-91691933D01*
X66224790Y-91799157D01*
X66168343Y-91840169D01*
X66033714Y-91937983D01*
X66033712Y-91937985D01*
X66033711Y-91937985D01*
X65866709Y-92104987D01*
X65866709Y-92104988D01*
X65866707Y-92104990D01*
X65844642Y-92135360D01*
X65727881Y-92296066D01*
X65620657Y-92506503D01*
X65547670Y-92731131D01*
X65510724Y-92964402D01*
X65510724Y-93200597D01*
X65547670Y-93433868D01*
X65620657Y-93658496D01*
X65708220Y-93830347D01*
X65727881Y-93868933D01*
X65866707Y-94060010D01*
X66033714Y-94227017D01*
X66224791Y-94365843D01*
X66324215Y-94416502D01*
X66435227Y-94473066D01*
X66435229Y-94473066D01*
X66435232Y-94473068D01*
X66541344Y-94507546D01*
X66659855Y-94546053D01*
X66893127Y-94583000D01*
X66893132Y-94583000D01*
X67129321Y-94583000D01*
X67362592Y-94546053D01*
X67417568Y-94528190D01*
X67587216Y-94473068D01*
X67797657Y-94365843D01*
X67988734Y-94227017D01*
X68155741Y-94060010D01*
X68294567Y-93868933D01*
X68401792Y-93658492D01*
X68474777Y-93433868D01*
X68479671Y-93402966D01*
X68511724Y-93200597D01*
X68511724Y-92964402D01*
X68474777Y-92731131D01*
X68463054Y-92695052D01*
X68461059Y-92625211D01*
X68497139Y-92565378D01*
X68559840Y-92534549D01*
X68629254Y-92542513D01*
X68653872Y-92556416D01*
X68667112Y-92566036D01*
X68849500Y-92658968D01*
X68849502Y-92658968D01*
X68849505Y-92658970D01*
X68950410Y-92691756D01*
X69044189Y-92722227D01*
X69108835Y-92732466D01*
X69246372Y-92754250D01*
X69246373Y-92754250D01*
X69451075Y-92754250D01*
X69451076Y-92754250D01*
X69653258Y-92722227D01*
X69667563Y-92717578D01*
X69737400Y-92715580D01*
X69793564Y-92747826D01*
X69890008Y-92844270D01*
X69890010Y-92844271D01*
X69890014Y-92844274D01*
X69969435Y-92890127D01*
X70026940Y-92923327D01*
X70138743Y-92953284D01*
X70179666Y-92964250D01*
X70179667Y-92964250D01*
X72732424Y-92964250D01*
X72799463Y-92983935D01*
X72842908Y-93031954D01*
X72928833Y-93200592D01*
X72929856Y-93202598D01*
X73077925Y-93406399D01*
X73077929Y-93406404D01*
X73077931Y-93406406D01*
X73256068Y-93584543D01*
X73256069Y-93584544D01*
X73256068Y-93584544D01*
X73262385Y-93589133D01*
X73305051Y-93644464D01*
X73311029Y-93714077D01*
X73278423Y-93775872D01*
X73217584Y-93810229D01*
X73170102Y-93811924D01*
X73115335Y-93803250D01*
X72942113Y-93803250D01*
X72902452Y-93809531D01*
X72771026Y-93830347D01*
X72606276Y-93883878D01*
X72451935Y-93962518D01*
X72395013Y-94003875D01*
X72311796Y-94064336D01*
X72311794Y-94064338D01*
X72311793Y-94064338D01*
X72189312Y-94186819D01*
X72189312Y-94186820D01*
X72189310Y-94186822D01*
X72160109Y-94227014D01*
X72087492Y-94326961D01*
X72008852Y-94481302D01*
X71955321Y-94646052D01*
X71937870Y-94756236D01*
X71928224Y-94817139D01*
X71928224Y-94990361D01*
X71955322Y-95161451D01*
X72008851Y-95326195D01*
X72087492Y-95480538D01*
X72189310Y-95620678D01*
X72311796Y-95743164D01*
X72451936Y-95844982D01*
X72456906Y-95847514D01*
X72507703Y-95895488D01*
X72524499Y-95963308D01*
X72501963Y-96029444D01*
X72447249Y-96072896D01*
X72400613Y-96082000D01*
X66493689Y-96082000D01*
X66340959Y-96122923D01*
X66311830Y-96139742D01*
X66311829Y-96139742D01*
X66204033Y-96201977D01*
X66204028Y-96201981D01*
X65741328Y-96664682D01*
X65342510Y-97063500D01*
X65342508Y-97063502D01*
X65312463Y-97093547D01*
X65230705Y-97175304D01*
X65230704Y-97175306D01*
X65218833Y-97195868D01*
X65151647Y-97312237D01*
X65110723Y-97464965D01*
X65110723Y-97464967D01*
X65110723Y-97633068D01*
X65110724Y-97633081D01*
X65110724Y-98534308D01*
X65110723Y-98534326D01*
X65110723Y-98700032D01*
X65110722Y-98700032D01*
X65151647Y-98852762D01*
X65151648Y-98852766D01*
X65180062Y-98901981D01*
X65180063Y-98901981D01*
X65230701Y-98989690D01*
X65230705Y-98989695D01*
X65349573Y-99108563D01*
X65349578Y-99108567D01*
X66104030Y-99863020D01*
X66104032Y-99863021D01*
X66104036Y-99863024D01*
X66237657Y-99940169D01*
X66240962Y-99942077D01*
X66393689Y-99983001D01*
X66393691Y-99983001D01*
X66559400Y-99983001D01*
X66559416Y-99983000D01*
X68069323Y-99983000D01*
X68136362Y-100002685D01*
X68174860Y-100041901D01*
X68206012Y-100092406D01*
X68330068Y-100216462D01*
X68479390Y-100308564D01*
X68645927Y-100363749D01*
X68748715Y-100374250D01*
X69948732Y-100374249D01*
X70051521Y-100363749D01*
X70218058Y-100308564D01*
X70367380Y-100216462D01*
X70491436Y-100092406D01*
X70583538Y-99943084D01*
X70638723Y-99776547D01*
X70649224Y-99673759D01*
X70649223Y-98473742D01*
X70643234Y-98415118D01*
X70638723Y-98370953D01*
X70638722Y-98370950D01*
X70610352Y-98285335D01*
X70583538Y-98204416D01*
X70491436Y-98055094D01*
X70367380Y-97931038D01*
X70367379Y-97931037D01*
X70337388Y-97912539D01*
X70290663Y-97860592D01*
X70279440Y-97791629D01*
X70307283Y-97727547D01*
X70365352Y-97688690D01*
X70402484Y-97683000D01*
X76098289Y-97683000D01*
X76165328Y-97702685D01*
X76185970Y-97719319D01*
X81324775Y-102858124D01*
X81324785Y-102858135D01*
X81329115Y-102862465D01*
X81329116Y-102862466D01*
X81440920Y-102974270D01*
X81492342Y-103003958D01*
X81538167Y-103030415D01*
X81575316Y-103051864D01*
X81623530Y-103102432D01*
X81636752Y-103171039D01*
X81610783Y-103235903D01*
X81553869Y-103276431D01*
X81513314Y-103283250D01*
X58612571Y-103283250D01*
X58545532Y-103263565D01*
X58524890Y-103246931D01*
X58149898Y-102871939D01*
X58116413Y-102810616D01*
X58121397Y-102740924D01*
X58163269Y-102684991D01*
X58228733Y-102660574D01*
X58280914Y-102668077D01*
X58303740Y-102676591D01*
X58310668Y-102677335D01*
X58363351Y-102683000D01*
X61659096Y-102682999D01*
X61718707Y-102676591D01*
X61853555Y-102626296D01*
X61968770Y-102540046D01*
X62055020Y-102424831D01*
X62105315Y-102289983D01*
X62111724Y-102230373D01*
X62111723Y-100134628D01*
X62105315Y-100075017D01*
X62104842Y-100073750D01*
X62055021Y-99940171D01*
X62055017Y-99940164D01*
X61968771Y-99824955D01*
X61968768Y-99824952D01*
X61853559Y-99738706D01*
X61853552Y-99738702D01*
X61718706Y-99688408D01*
X61718707Y-99688408D01*
X61659107Y-99682001D01*
X61659105Y-99682000D01*
X61659097Y-99682000D01*
X61659088Y-99682000D01*
X58363353Y-99682000D01*
X58363347Y-99682001D01*
X58303740Y-99688408D01*
X58168895Y-99738702D01*
X58168888Y-99738706D01*
X58053679Y-99824952D01*
X58053676Y-99824955D01*
X57967430Y-99940164D01*
X57967426Y-99940171D01*
X57917132Y-100075017D01*
X57912739Y-100115884D01*
X57910725Y-100134623D01*
X57910724Y-100134635D01*
X57910724Y-102230370D01*
X57910725Y-102230376D01*
X57917132Y-102289983D01*
X57925647Y-102312811D01*
X57930631Y-102382503D01*
X57897146Y-102443826D01*
X57835822Y-102477310D01*
X57766131Y-102472325D01*
X57721784Y-102443825D01*
X53964022Y-98686063D01*
X53930537Y-98624740D01*
X53933771Y-98560066D01*
X53974777Y-98433868D01*
X53998302Y-98285335D01*
X54011724Y-98200597D01*
X54011724Y-97964402D01*
X53974777Y-97731131D01*
X53908919Y-97528442D01*
X53901792Y-97506508D01*
X53901790Y-97506505D01*
X53901790Y-97506503D01*
X53818382Y-97342807D01*
X53794567Y-97296067D01*
X53655741Y-97104990D01*
X53488734Y-96937983D01*
X53481625Y-96932818D01*
X53438959Y-96877488D01*
X53432980Y-96807875D01*
X53465586Y-96746080D01*
X53481625Y-96732182D01*
X53481724Y-96732109D01*
X53488734Y-96727017D01*
X53655741Y-96560010D01*
X53794567Y-96368933D01*
X53901792Y-96158492D01*
X53974777Y-95933868D01*
X54011724Y-95700597D01*
X54011724Y-95464402D01*
X53974777Y-95231131D01*
X53916334Y-95051263D01*
X53901792Y-95006508D01*
X53901790Y-95006505D01*
X53901790Y-95006503D01*
X53836722Y-94878801D01*
X53794567Y-94796067D01*
X53725017Y-94700340D01*
X53701538Y-94634536D01*
X53717363Y-94566482D01*
X53751025Y-94528189D01*
X53753552Y-94526296D01*
X53753555Y-94526296D01*
X53868770Y-94440046D01*
X53955020Y-94324831D01*
X54005315Y-94189983D01*
X54011724Y-94130373D01*
X54011723Y-92034628D01*
X54005315Y-91975017D01*
X54001299Y-91964250D01*
X53955021Y-91840171D01*
X53955017Y-91840164D01*
X53868771Y-91724955D01*
X53868768Y-91724952D01*
X53753559Y-91638706D01*
X53753552Y-91638702D01*
X53618706Y-91588408D01*
X53618707Y-91588408D01*
X53559107Y-91582001D01*
X53559105Y-91582000D01*
X53559097Y-91582000D01*
X53559088Y-91582000D01*
X51463353Y-91582000D01*
X51463347Y-91582001D01*
X51403740Y-91588408D01*
X51268895Y-91638702D01*
X51268888Y-91638706D01*
X51153679Y-91724952D01*
X51153676Y-91724955D01*
X51067430Y-91840164D01*
X51067426Y-91840171D01*
X51017132Y-91975017D01*
X51010725Y-92034616D01*
X51010725Y-92034623D01*
X51010724Y-92034635D01*
X48973000Y-92034635D01*
X48973000Y-88934635D01*
X57910724Y-88934635D01*
X57910724Y-91030370D01*
X57910725Y-91030376D01*
X57917132Y-91089983D01*
X57967426Y-91224828D01*
X57967430Y-91224835D01*
X58053676Y-91340044D01*
X58053679Y-91340047D01*
X58168888Y-91426293D01*
X58168895Y-91426297D01*
X58303741Y-91476591D01*
X58303740Y-91476591D01*
X58310668Y-91477335D01*
X58363351Y-91483000D01*
X61659096Y-91482999D01*
X61718707Y-91476591D01*
X61853555Y-91426296D01*
X61968770Y-91340046D01*
X62055020Y-91224831D01*
X62105315Y-91089983D01*
X62111724Y-91030373D01*
X62111723Y-88934628D01*
X62105315Y-88875017D01*
X62098321Y-88856266D01*
X62055021Y-88740171D01*
X62055017Y-88740164D01*
X61968771Y-88624955D01*
X61968768Y-88624952D01*
X61853559Y-88538706D01*
X61853552Y-88538702D01*
X61718706Y-88488408D01*
X61718707Y-88488408D01*
X61659107Y-88482001D01*
X61659105Y-88482000D01*
X61659097Y-88482000D01*
X61659088Y-88482000D01*
X58363353Y-88482000D01*
X58363347Y-88482001D01*
X58303740Y-88488408D01*
X58168895Y-88538702D01*
X58168888Y-88538706D01*
X58053679Y-88624952D01*
X58053676Y-88624955D01*
X57967430Y-88740164D01*
X57967426Y-88740171D01*
X57917132Y-88875017D01*
X57912739Y-88915885D01*
X57910725Y-88934623D01*
X57910724Y-88934635D01*
X48973000Y-88934635D01*
X48973000Y-88640898D01*
X48992685Y-88573859D01*
X48999750Y-88563966D01*
X49019733Y-88538706D01*
X51955047Y-84828153D01*
X59122964Y-75767139D01*
X71928224Y-75767139D01*
X71928224Y-75940361D01*
X71955322Y-76111451D01*
X72008851Y-76276195D01*
X72087492Y-76430538D01*
X72189310Y-76570678D01*
X72311796Y-76693164D01*
X72451936Y-76794982D01*
X72606279Y-76873623D01*
X72771023Y-76927152D01*
X72942113Y-76954250D01*
X72942114Y-76954250D01*
X73115334Y-76954250D01*
X73115335Y-76954250D01*
X73286425Y-76927152D01*
X73451169Y-76873623D01*
X73605512Y-76794982D01*
X73745652Y-76693164D01*
X73868138Y-76570678D01*
X73969956Y-76430538D01*
X74048597Y-76276195D01*
X74102126Y-76111451D01*
X74129224Y-75940361D01*
X74129224Y-75767139D01*
X74102126Y-75596049D01*
X74048597Y-75431305D01*
X73969956Y-75276962D01*
X73868138Y-75136822D01*
X73816206Y-75084890D01*
X73782721Y-75023567D01*
X73787705Y-74953875D01*
X73829577Y-74897942D01*
X73895041Y-74873525D01*
X73923285Y-74874736D01*
X73923936Y-74874839D01*
X73923939Y-74874840D01*
X74172762Y-74914250D01*
X74172763Y-74914250D01*
X74424685Y-74914250D01*
X74424686Y-74914250D01*
X74673509Y-74874840D01*
X74913103Y-74796991D01*
X75137569Y-74682620D01*
X75341380Y-74534543D01*
X75519517Y-74356406D01*
X75667594Y-74152595D01*
X75754539Y-73981954D01*
X75802513Y-73931159D01*
X75865024Y-73914250D01*
X76574186Y-73914250D01*
X76641225Y-73933935D01*
X76686980Y-73986739D01*
X76696924Y-74055897D01*
X76667899Y-74119453D01*
X76649672Y-74136626D01*
X76621683Y-74158102D01*
X76621676Y-74158108D01*
X76413082Y-74366702D01*
X76413076Y-74366709D01*
X76233485Y-74600756D01*
X76085982Y-74856239D01*
X76085978Y-74856249D01*
X75973088Y-75128788D01*
X75973085Y-75128798D01*
X75896732Y-75413754D01*
X75896730Y-75413765D01*
X75858224Y-75706236D01*
X75858224Y-76001263D01*
X75890295Y-76244863D01*
X75896731Y-76293743D01*
X75970936Y-76570680D01*
X75973085Y-76578701D01*
X75973088Y-76578711D01*
X76085978Y-76851250D01*
X76085982Y-76851260D01*
X76233485Y-77106743D01*
X76413076Y-77340790D01*
X76413082Y-77340797D01*
X76621676Y-77549391D01*
X76621683Y-77549397D01*
X76855730Y-77728988D01*
X77111213Y-77876491D01*
X77111214Y-77876491D01*
X77111217Y-77876493D01*
X77383772Y-77989389D01*
X77668731Y-78065743D01*
X77961218Y-78104250D01*
X77961225Y-78104250D01*
X78256223Y-78104250D01*
X78256230Y-78104250D01*
X78548717Y-78065743D01*
X78833676Y-77989389D01*
X79106231Y-77876493D01*
X79361718Y-77728988D01*
X79595766Y-77549396D01*
X79804370Y-77340792D01*
X79983962Y-77106744D01*
X80131467Y-76851257D01*
X80244363Y-76578702D01*
X80320717Y-76293743D01*
X80359224Y-76001256D01*
X80359224Y-75767139D01*
X82088224Y-75767139D01*
X82088224Y-75940361D01*
X82115322Y-76111451D01*
X82168851Y-76276195D01*
X82247492Y-76430538D01*
X82349310Y-76570678D01*
X82471796Y-76693164D01*
X82611936Y-76794982D01*
X82766279Y-76873623D01*
X82931023Y-76927152D01*
X83102113Y-76954250D01*
X83102114Y-76954250D01*
X83275334Y-76954250D01*
X83275335Y-76954250D01*
X83446425Y-76927152D01*
X83611169Y-76873623D01*
X83765512Y-76794982D01*
X83905652Y-76693164D01*
X84028138Y-76570678D01*
X84129956Y-76430538D01*
X84208597Y-76276195D01*
X84262126Y-76111451D01*
X84289224Y-75940361D01*
X84289224Y-75767139D01*
X84262126Y-75596049D01*
X84208597Y-75431305D01*
X84129956Y-75276962D01*
X84028138Y-75136822D01*
X83905652Y-75014336D01*
X83765512Y-74912518D01*
X83714707Y-74886632D01*
X83611171Y-74833878D01*
X83611170Y-74833877D01*
X83611169Y-74833877D01*
X83446425Y-74780348D01*
X83446423Y-74780347D01*
X83446422Y-74780347D01*
X83314995Y-74759531D01*
X83275335Y-74753250D01*
X83102113Y-74753250D01*
X83062452Y-74759531D01*
X82931026Y-74780347D01*
X82766276Y-74833878D01*
X82611935Y-74912518D01*
X82555013Y-74953875D01*
X82471796Y-75014336D01*
X82471794Y-75014338D01*
X82471793Y-75014338D01*
X82349312Y-75136819D01*
X82349312Y-75136820D01*
X82349310Y-75136822D01*
X82305583Y-75197006D01*
X82247492Y-75276961D01*
X82168852Y-75431302D01*
X82168851Y-75431304D01*
X82168851Y-75431305D01*
X82142086Y-75513677D01*
X82115321Y-75596052D01*
X82101180Y-75685335D01*
X82088224Y-75767139D01*
X80359224Y-75767139D01*
X80359224Y-75706244D01*
X80320717Y-75413757D01*
X80244363Y-75128798D01*
X80131467Y-74856243D01*
X80076033Y-74760229D01*
X79983962Y-74600756D01*
X79804371Y-74366709D01*
X79804365Y-74366702D01*
X79595771Y-74158108D01*
X79595764Y-74158102D01*
X79567776Y-74136626D01*
X79526573Y-74080198D01*
X79522418Y-74010452D01*
X79556630Y-73949532D01*
X79618348Y-73916779D01*
X79643262Y-73914250D01*
X86212055Y-73914250D01*
X86212071Y-73914251D01*
X86219667Y-73914251D01*
X86377778Y-73914251D01*
X86377781Y-73914251D01*
X86530509Y-73873327D01*
X86616491Y-73823685D01*
X86667440Y-73794270D01*
X86779244Y-73682466D01*
X86779244Y-73682464D01*
X86789448Y-73672261D01*
X86789452Y-73672256D01*
X86903882Y-73557825D01*
X86965203Y-73524342D01*
X87029875Y-73527575D01*
X87044190Y-73532227D01*
X87246372Y-73564250D01*
X87246373Y-73564250D01*
X87451075Y-73564250D01*
X87451076Y-73564250D01*
X87653258Y-73532227D01*
X87847943Y-73468970D01*
X88030334Y-73376037D01*
X88123314Y-73308482D01*
X88195937Y-73255721D01*
X88195939Y-73255718D01*
X88195943Y-73255716D01*
X88340690Y-73110969D01*
X88340692Y-73110965D01*
X88340695Y-73110963D01*
X88439875Y-72974451D01*
X88461011Y-72945360D01*
X88553944Y-72762969D01*
X88617201Y-72568284D01*
X88649224Y-72366102D01*
X88649224Y-72161398D01*
X88622797Y-71994548D01*
X88617201Y-71959215D01*
X88575382Y-71830510D01*
X88553944Y-71764531D01*
X88553942Y-71764528D01*
X88553942Y-71764526D01*
X88498739Y-71656185D01*
X88461011Y-71582140D01*
X88440060Y-71553303D01*
X88340695Y-71416536D01*
X88195937Y-71271778D01*
X88030337Y-71151465D01*
X88030336Y-71151464D01*
X88030334Y-71151463D01*
X87973377Y-71122441D01*
X87847947Y-71058531D01*
X87653258Y-70995272D01*
X87478719Y-70967628D01*
X87451076Y-70963250D01*
X87246372Y-70963250D01*
X87222053Y-70967101D01*
X87044189Y-70995272D01*
X86849500Y-71058531D01*
X86667110Y-71151465D01*
X86501510Y-71271778D01*
X86356752Y-71416536D01*
X86236439Y-71582136D01*
X86143505Y-71764526D01*
X86080246Y-71959215D01*
X86048224Y-72161398D01*
X86048224Y-72366101D01*
X86080495Y-72569852D01*
X86071540Y-72639146D01*
X86026544Y-72692598D01*
X85959793Y-72713237D01*
X85958022Y-72713250D01*
X75865024Y-72713250D01*
X75797985Y-72693565D01*
X75754539Y-72645545D01*
X75751279Y-72639146D01*
X75667594Y-72474905D01*
X75588544Y-72366102D01*
X75519522Y-72271100D01*
X75519518Y-72271095D01*
X75341378Y-72092955D01*
X75341373Y-72092951D01*
X75137572Y-71944882D01*
X75137571Y-71944881D01*
X75137569Y-71944880D01*
X75067471Y-71909163D01*
X74913107Y-71830510D01*
X74673509Y-71752660D01*
X74499061Y-71725030D01*
X74424686Y-71713250D01*
X74172762Y-71713250D01*
X74098387Y-71725030D01*
X73923938Y-71752660D01*
X73684340Y-71830510D01*
X73459875Y-71944882D01*
X73256074Y-72092951D01*
X73256069Y-72092955D01*
X73077929Y-72271095D01*
X73077925Y-72271100D01*
X72929856Y-72474901D01*
X72815484Y-72699366D01*
X72737634Y-72938964D01*
X72718264Y-73061260D01*
X72698224Y-73187788D01*
X72698224Y-73439712D01*
X72732866Y-73658429D01*
X72737634Y-73688535D01*
X72815484Y-73928133D01*
X72880584Y-74055897D01*
X72925089Y-74143244D01*
X72929856Y-74152598D01*
X73077925Y-74356399D01*
X73077929Y-74356404D01*
X73077931Y-74356406D01*
X73256068Y-74534543D01*
X73256069Y-74534544D01*
X73256068Y-74534544D01*
X73262385Y-74539133D01*
X73305051Y-74594464D01*
X73311029Y-74664077D01*
X73278423Y-74725872D01*
X73217584Y-74760229D01*
X73170102Y-74761924D01*
X73115335Y-74753250D01*
X72942113Y-74753250D01*
X72902452Y-74759531D01*
X72771026Y-74780347D01*
X72606276Y-74833878D01*
X72451935Y-74912518D01*
X72395013Y-74953875D01*
X72311796Y-75014336D01*
X72311794Y-75014338D01*
X72311793Y-75014338D01*
X72189312Y-75136819D01*
X72189312Y-75136820D01*
X72189310Y-75136822D01*
X72145583Y-75197006D01*
X72087492Y-75276961D01*
X72008852Y-75431302D01*
X72008851Y-75431304D01*
X72008851Y-75431305D01*
X71982086Y-75513677D01*
X71955321Y-75596052D01*
X71941180Y-75685335D01*
X71928224Y-75767139D01*
X59122964Y-75767139D01*
X59187677Y-75685335D01*
X63172740Y-70647788D01*
X79048224Y-70647788D01*
X79048224Y-70899712D01*
X79073379Y-71058531D01*
X79087634Y-71148535D01*
X79165484Y-71388133D01*
X79244137Y-71542497D01*
X79266442Y-71586273D01*
X79279856Y-71612598D01*
X79427925Y-71816399D01*
X79427929Y-71816404D01*
X79606069Y-71994544D01*
X79606074Y-71994548D01*
X79783841Y-72123702D01*
X79809879Y-72142620D01*
X79952908Y-72215497D01*
X80034340Y-72256989D01*
X80034342Y-72256989D01*
X80034345Y-72256991D01*
X80273939Y-72334840D01*
X80522762Y-72374250D01*
X80522763Y-72374250D01*
X80774685Y-72374250D01*
X80774686Y-72374250D01*
X81023509Y-72334840D01*
X81263103Y-72256991D01*
X81487569Y-72142620D01*
X81691380Y-71994543D01*
X81869517Y-71816406D01*
X82017594Y-71612595D01*
X82131965Y-71388129D01*
X82209814Y-71148535D01*
X82249224Y-70899712D01*
X82249224Y-70647788D01*
X82209814Y-70398965D01*
X82131965Y-70159371D01*
X82131963Y-70159367D01*
X82131963Y-70159366D01*
X82061531Y-70021137D01*
X82017594Y-69934905D01*
X81998676Y-69908867D01*
X81869522Y-69731100D01*
X81869518Y-69731095D01*
X81691378Y-69552955D01*
X81691373Y-69552951D01*
X81487572Y-69404882D01*
X81487571Y-69404881D01*
X81487569Y-69404880D01*
X81417471Y-69369163D01*
X81263107Y-69290510D01*
X81023509Y-69212660D01*
X80774686Y-69173250D01*
X80522762Y-69173250D01*
X80398350Y-69192955D01*
X80273938Y-69212660D01*
X80034340Y-69290510D01*
X79809875Y-69404882D01*
X79606074Y-69552951D01*
X79606069Y-69552955D01*
X79427929Y-69731095D01*
X79427925Y-69731100D01*
X79279856Y-69934901D01*
X79165484Y-70159366D01*
X79121989Y-70293230D01*
X79087634Y-70398965D01*
X79048224Y-70647788D01*
X63172740Y-70647788D01*
X63237453Y-70565984D01*
X74192889Y-56717139D01*
X90978224Y-56717139D01*
X90978224Y-56890361D01*
X91005322Y-57061451D01*
X91058851Y-57226195D01*
X91137492Y-57380538D01*
X91239310Y-57520678D01*
X91361796Y-57643164D01*
X91501936Y-57744982D01*
X91656279Y-57823623D01*
X91821023Y-57877152D01*
X91992113Y-57904250D01*
X91992114Y-57904250D01*
X92165334Y-57904250D01*
X92165335Y-57904250D01*
X92336425Y-57877152D01*
X92501169Y-57823623D01*
X92655512Y-57744982D01*
X92795652Y-57643164D01*
X92918138Y-57520678D01*
X93019956Y-57380538D01*
X93098597Y-57226195D01*
X93152126Y-57061451D01*
X93179224Y-56890361D01*
X93179224Y-56717139D01*
X93152126Y-56546049D01*
X93098597Y-56381305D01*
X93019956Y-56226962D01*
X92918138Y-56086822D01*
X92866206Y-56034890D01*
X92832721Y-55973567D01*
X92837705Y-55903875D01*
X92879577Y-55847942D01*
X92945041Y-55823525D01*
X92973285Y-55824736D01*
X92973936Y-55824839D01*
X92973939Y-55824840D01*
X93222762Y-55864250D01*
X93222763Y-55864250D01*
X93474685Y-55864250D01*
X93474686Y-55864250D01*
X93723509Y-55824840D01*
X93963103Y-55746991D01*
X94187569Y-55632620D01*
X94391380Y-55484543D01*
X94569517Y-55306406D01*
X94717594Y-55102595D01*
X94804539Y-54931954D01*
X94852513Y-54881159D01*
X94915024Y-54864250D01*
X95624186Y-54864250D01*
X95691225Y-54883935D01*
X95736980Y-54936739D01*
X95746924Y-55005897D01*
X95717899Y-55069453D01*
X95699672Y-55086626D01*
X95671683Y-55108102D01*
X95671676Y-55108108D01*
X95463082Y-55316702D01*
X95463076Y-55316709D01*
X95283485Y-55550756D01*
X95135982Y-55806239D01*
X95135978Y-55806249D01*
X95023088Y-56078788D01*
X95023085Y-56078798D01*
X94946732Y-56363754D01*
X94946730Y-56363765D01*
X94908224Y-56656236D01*
X94908224Y-56951263D01*
X94940295Y-57194863D01*
X94946731Y-57243743D01*
X95020936Y-57520680D01*
X95023085Y-57528701D01*
X95023088Y-57528711D01*
X95135978Y-57801250D01*
X95135982Y-57801260D01*
X95283485Y-58056743D01*
X95463076Y-58290790D01*
X95463082Y-58290797D01*
X95671676Y-58499391D01*
X95671683Y-58499397D01*
X95905730Y-58678988D01*
X96161213Y-58826491D01*
X96161214Y-58826491D01*
X96161217Y-58826493D01*
X96433772Y-58939389D01*
X96718731Y-59015743D01*
X97011218Y-59054250D01*
X97011225Y-59054250D01*
X97306223Y-59054250D01*
X97306230Y-59054250D01*
X97598717Y-59015743D01*
X97883676Y-58939389D01*
X98156231Y-58826493D01*
X98411718Y-58678988D01*
X98645766Y-58499396D01*
X98854370Y-58290792D01*
X99033962Y-58056744D01*
X99181467Y-57801257D01*
X99294363Y-57528702D01*
X99370717Y-57243743D01*
X99409224Y-56951256D01*
X99409224Y-56717139D01*
X101138224Y-56717139D01*
X101138224Y-56890361D01*
X101165322Y-57061451D01*
X101218851Y-57226195D01*
X101297492Y-57380538D01*
X101399310Y-57520678D01*
X101521796Y-57643164D01*
X101661936Y-57744982D01*
X101816279Y-57823623D01*
X101981023Y-57877152D01*
X102152113Y-57904250D01*
X102152114Y-57904250D01*
X102325334Y-57904250D01*
X102325335Y-57904250D01*
X102496425Y-57877152D01*
X102661169Y-57823623D01*
X102815512Y-57744982D01*
X102955652Y-57643164D01*
X103078138Y-57520678D01*
X103179956Y-57380538D01*
X103258597Y-57226195D01*
X103312126Y-57061451D01*
X103339224Y-56890361D01*
X103339224Y-56717139D01*
X103312126Y-56546049D01*
X103258597Y-56381305D01*
X103179956Y-56226962D01*
X103078138Y-56086822D01*
X102955652Y-55964336D01*
X102815512Y-55862518D01*
X102661169Y-55783877D01*
X102496425Y-55730348D01*
X102496423Y-55730347D01*
X102496422Y-55730347D01*
X102364995Y-55709531D01*
X102325335Y-55703250D01*
X102152113Y-55703250D01*
X102112452Y-55709531D01*
X101981026Y-55730347D01*
X101816276Y-55783878D01*
X101661935Y-55862518D01*
X101605013Y-55903875D01*
X101521796Y-55964336D01*
X101521794Y-55964338D01*
X101521793Y-55964338D01*
X101399312Y-56086819D01*
X101399312Y-56086820D01*
X101399310Y-56086822D01*
X101355583Y-56147006D01*
X101297492Y-56226961D01*
X101218852Y-56381302D01*
X101165321Y-56546052D01*
X101151180Y-56635335D01*
X101138224Y-56717139D01*
X99409224Y-56717139D01*
X99409224Y-56656244D01*
X99370717Y-56363757D01*
X99294363Y-56078798D01*
X99181467Y-55806243D01*
X99126033Y-55710229D01*
X99033962Y-55550756D01*
X98854371Y-55316709D01*
X98854365Y-55316702D01*
X98645771Y-55108108D01*
X98645764Y-55108102D01*
X98617776Y-55086626D01*
X98576573Y-55030198D01*
X98572418Y-54960452D01*
X98606630Y-54899532D01*
X98668348Y-54866779D01*
X98693262Y-54864250D01*
X106262055Y-54864250D01*
X106262071Y-54864251D01*
X106269667Y-54864251D01*
X106427778Y-54864251D01*
X106427781Y-54864251D01*
X106580509Y-54823327D01*
X106653809Y-54781007D01*
X106717440Y-54744270D01*
X106829244Y-54632466D01*
X106829244Y-54632464D01*
X106839448Y-54622261D01*
X106839452Y-54622256D01*
X106903882Y-54557825D01*
X106965203Y-54524342D01*
X107029875Y-54527575D01*
X107044190Y-54532227D01*
X107246372Y-54564250D01*
X107246373Y-54564250D01*
X107451075Y-54564250D01*
X107451076Y-54564250D01*
X107653258Y-54532227D01*
X107847943Y-54468970D01*
X108030334Y-54376037D01*
X108123314Y-54308482D01*
X108195937Y-54255721D01*
X108195939Y-54255718D01*
X108195943Y-54255716D01*
X108340690Y-54110969D01*
X108340692Y-54110965D01*
X108340695Y-54110963D01*
X108393456Y-54038340D01*
X108461011Y-53945360D01*
X108553944Y-53762969D01*
X108617201Y-53568284D01*
X108649224Y-53366102D01*
X108649224Y-53161398D01*
X108617201Y-52959215D01*
X108559136Y-52780510D01*
X108553944Y-52764531D01*
X108553942Y-52764528D01*
X108553942Y-52764526D01*
X108520227Y-52698357D01*
X108461011Y-52582140D01*
X108446811Y-52562595D01*
X108340695Y-52416536D01*
X108195937Y-52271778D01*
X108030337Y-52151465D01*
X108030336Y-52151464D01*
X108030334Y-52151463D01*
X107973377Y-52122441D01*
X107847947Y-52058531D01*
X107653258Y-51995272D01*
X107478719Y-51967628D01*
X107451076Y-51963250D01*
X107246372Y-51963250D01*
X107222053Y-51967101D01*
X107044189Y-51995272D01*
X106849500Y-52058531D01*
X106667110Y-52151465D01*
X106501510Y-52271778D01*
X106356752Y-52416536D01*
X106236439Y-52582136D01*
X106143505Y-52764526D01*
X106080246Y-52959215D01*
X106048224Y-53161398D01*
X106048224Y-53366101D01*
X106072576Y-53519852D01*
X106063621Y-53589145D01*
X106018625Y-53642597D01*
X105951874Y-53663237D01*
X105950103Y-53663250D01*
X94915024Y-53663250D01*
X94847985Y-53643565D01*
X94804539Y-53595545D01*
X94790649Y-53568284D01*
X94717594Y-53424905D01*
X94674871Y-53366102D01*
X94569522Y-53221100D01*
X94569518Y-53221095D01*
X94391378Y-53042955D01*
X94391373Y-53042951D01*
X94187572Y-52894882D01*
X94187571Y-52894881D01*
X94187569Y-52894880D01*
X94117471Y-52859163D01*
X93963107Y-52780510D01*
X93723509Y-52702660D01*
X93474686Y-52663250D01*
X93222762Y-52663250D01*
X93098350Y-52682955D01*
X92973938Y-52702660D01*
X92734340Y-52780510D01*
X92509875Y-52894882D01*
X92306074Y-53042951D01*
X92306069Y-53042955D01*
X92127929Y-53221095D01*
X92127925Y-53221100D01*
X91979856Y-53424901D01*
X91865484Y-53649366D01*
X91828571Y-53762973D01*
X91787634Y-53888965D01*
X91748224Y-54137788D01*
X91748224Y-54389712D01*
X91774851Y-54557827D01*
X91787634Y-54638535D01*
X91865484Y-54878133D01*
X91930584Y-55005897D01*
X91971717Y-55086626D01*
X91979856Y-55102598D01*
X92127925Y-55306399D01*
X92127929Y-55306404D01*
X92127931Y-55306406D01*
X92306068Y-55484543D01*
X92306069Y-55484544D01*
X92306068Y-55484544D01*
X92312385Y-55489133D01*
X92355051Y-55544464D01*
X92361029Y-55614077D01*
X92328423Y-55675872D01*
X92267584Y-55710229D01*
X92220102Y-55711924D01*
X92165335Y-55703250D01*
X91992113Y-55703250D01*
X91952452Y-55709531D01*
X91821026Y-55730347D01*
X91656276Y-55783878D01*
X91501935Y-55862518D01*
X91445013Y-55903875D01*
X91361796Y-55964336D01*
X91361794Y-55964338D01*
X91361793Y-55964338D01*
X91239312Y-56086819D01*
X91239312Y-56086820D01*
X91239310Y-56086822D01*
X91195583Y-56147006D01*
X91137492Y-56226961D01*
X91058852Y-56381302D01*
X91005321Y-56546052D01*
X90991180Y-56635335D01*
X90978224Y-56717139D01*
X74192889Y-56717139D01*
X74257602Y-56635335D01*
X78242665Y-51597788D01*
X98098224Y-51597788D01*
X98098224Y-51849711D01*
X98137634Y-52098535D01*
X98215484Y-52338133D01*
X98329856Y-52562598D01*
X98477925Y-52766399D01*
X98477929Y-52766404D01*
X98656069Y-52944544D01*
X98656074Y-52944548D01*
X98833841Y-53073702D01*
X98859879Y-53092620D01*
X98994864Y-53161398D01*
X99084340Y-53206989D01*
X99084342Y-53206989D01*
X99084345Y-53206991D01*
X99323939Y-53284840D01*
X99572762Y-53324250D01*
X99572763Y-53324250D01*
X99824685Y-53324250D01*
X99824686Y-53324250D01*
X100073509Y-53284840D01*
X100313103Y-53206991D01*
X100537569Y-53092620D01*
X100741380Y-52944543D01*
X100919517Y-52766406D01*
X101067594Y-52562595D01*
X101181965Y-52338129D01*
X101259814Y-52098535D01*
X101299224Y-51849712D01*
X101299224Y-51597788D01*
X101259814Y-51348965D01*
X101181965Y-51109371D01*
X101181963Y-51109368D01*
X101181963Y-51109366D01*
X101140471Y-51027934D01*
X101067594Y-50884905D01*
X101048676Y-50858867D01*
X100919522Y-50681100D01*
X100919518Y-50681095D01*
X100741378Y-50502955D01*
X100741373Y-50502951D01*
X100537572Y-50354882D01*
X100537571Y-50354881D01*
X100537569Y-50354880D01*
X100467471Y-50319163D01*
X100313107Y-50240510D01*
X100073509Y-50162660D01*
X99824686Y-50123250D01*
X99572762Y-50123250D01*
X99448350Y-50142955D01*
X99323938Y-50162660D01*
X99084340Y-50240510D01*
X98859875Y-50354882D01*
X98656074Y-50502951D01*
X98656069Y-50502955D01*
X98477929Y-50681095D01*
X98477925Y-50681100D01*
X98329856Y-50884901D01*
X98215484Y-51109366D01*
X98137634Y-51348964D01*
X98098224Y-51597788D01*
X78242665Y-51597788D01*
X78307378Y-51515984D01*
X83677505Y-44727568D01*
X83734536Y-44687204D01*
X83774755Y-44680500D01*
X111170245Y-44680500D01*
X111237284Y-44700185D01*
G37*
%TD.AperFunction*%
%TA.AperFunction,NonConductor*%
G36*
X123781301Y-69993935D02*
G01*
X123801943Y-70010569D01*
X124729086Y-70937712D01*
X124762571Y-70999035D01*
X124757587Y-71068727D01*
X124715715Y-71124660D01*
X124697702Y-71135877D01*
X124667110Y-71151464D01*
X124501510Y-71271778D01*
X124356752Y-71416536D01*
X124236439Y-71582136D01*
X124143505Y-71764526D01*
X124080246Y-71959215D01*
X124048224Y-72161398D01*
X124048224Y-72366101D01*
X124080495Y-72569852D01*
X124071540Y-72639146D01*
X124026544Y-72692598D01*
X123959793Y-72713237D01*
X123958022Y-72713250D01*
X113965024Y-72713250D01*
X113897985Y-72693565D01*
X113854539Y-72645545D01*
X113851279Y-72639146D01*
X113767594Y-72474905D01*
X113688544Y-72366102D01*
X113619522Y-72271100D01*
X113619518Y-72271095D01*
X113441378Y-72092955D01*
X113441373Y-72092951D01*
X113237572Y-71944882D01*
X113237571Y-71944881D01*
X113237569Y-71944880D01*
X113167471Y-71909163D01*
X113013107Y-71830510D01*
X112792765Y-71758916D01*
X112735090Y-71719478D01*
X112707892Y-71655119D01*
X112719807Y-71586273D01*
X112743396Y-71553311D01*
X112886141Y-71410566D01*
X112947464Y-71377084D01*
X112973821Y-71374250D01*
X117182424Y-71374250D01*
X117249463Y-71393935D01*
X117292908Y-71441954D01*
X117366442Y-71586273D01*
X117379856Y-71612598D01*
X117527925Y-71816399D01*
X117527929Y-71816404D01*
X117706069Y-71994544D01*
X117706074Y-71994548D01*
X117883841Y-72123702D01*
X117909879Y-72142620D01*
X118052908Y-72215497D01*
X118134340Y-72256989D01*
X118134342Y-72256989D01*
X118134345Y-72256991D01*
X118373939Y-72334840D01*
X118622762Y-72374250D01*
X118622763Y-72374250D01*
X118874685Y-72374250D01*
X118874686Y-72374250D01*
X119123509Y-72334840D01*
X119363103Y-72256991D01*
X119587569Y-72142620D01*
X119791380Y-71994543D01*
X119969517Y-71816406D01*
X120117594Y-71612595D01*
X120231965Y-71388129D01*
X120309814Y-71148535D01*
X120349224Y-70899712D01*
X120349224Y-70647788D01*
X120309814Y-70398965D01*
X120231965Y-70159371D01*
X120229506Y-70154546D01*
X120216610Y-70085878D01*
X120242885Y-70021137D01*
X120299991Y-69980879D01*
X120339991Y-69974250D01*
X123714262Y-69974250D01*
X123781301Y-69993935D01*
G37*
%TD.AperFunction*%
%TA.AperFunction,NonConductor*%
G36*
X125815579Y-73555703D02*
G01*
X125846408Y-73618403D01*
X125848224Y-73639550D01*
X125848224Y-78459250D01*
X125828539Y-78526289D01*
X125775735Y-78572044D01*
X125724224Y-78583250D01*
X124748722Y-78583250D01*
X124748704Y-78583251D01*
X124645927Y-78593750D01*
X124645924Y-78593751D01*
X124479392Y-78648935D01*
X124479387Y-78648937D01*
X124330066Y-78741039D01*
X124206013Y-78865092D01*
X124113911Y-79014413D01*
X124113910Y-79014416D01*
X124058725Y-79180953D01*
X124058725Y-79180954D01*
X124058724Y-79180954D01*
X124048224Y-79283733D01*
X124048224Y-79283746D01*
X124048225Y-80259250D01*
X124028541Y-80326289D01*
X123975737Y-80372044D01*
X123924225Y-80383250D01*
X107773223Y-80383250D01*
X107706184Y-80363565D01*
X107660429Y-80310761D01*
X107649223Y-80259250D01*
X107649223Y-79283748D01*
X107649222Y-79283731D01*
X107638723Y-79180953D01*
X107638722Y-79180950D01*
X107583538Y-79014416D01*
X107491436Y-78865094D01*
X107367380Y-78741038D01*
X107218058Y-78648936D01*
X107051521Y-78593751D01*
X107051519Y-78593750D01*
X106948740Y-78583250D01*
X106012819Y-78583250D01*
X105945780Y-78563565D01*
X105900025Y-78510761D01*
X105890081Y-78441603D01*
X105919106Y-78378047D01*
X105925124Y-78371583D01*
X110638280Y-73658427D01*
X110699601Y-73624944D01*
X110769293Y-73629928D01*
X110825226Y-73671800D01*
X110843890Y-73707791D01*
X110915484Y-73928133D01*
X110980584Y-74055897D01*
X111025089Y-74143244D01*
X111029856Y-74152598D01*
X111177925Y-74356399D01*
X111177929Y-74356404D01*
X111177931Y-74356406D01*
X111356068Y-74534543D01*
X111356069Y-74534544D01*
X111356068Y-74534544D01*
X111362385Y-74539133D01*
X111405051Y-74594464D01*
X111411029Y-74664077D01*
X111378423Y-74725872D01*
X111317584Y-74760229D01*
X111270102Y-74761924D01*
X111215335Y-74753250D01*
X111042113Y-74753250D01*
X111002452Y-74759531D01*
X110871026Y-74780347D01*
X110706276Y-74833878D01*
X110551935Y-74912518D01*
X110495013Y-74953875D01*
X110411796Y-75014336D01*
X110411794Y-75014338D01*
X110411793Y-75014338D01*
X110289312Y-75136819D01*
X110289312Y-75136820D01*
X110289310Y-75136822D01*
X110245583Y-75197006D01*
X110187492Y-75276961D01*
X110108852Y-75431302D01*
X110108851Y-75431304D01*
X110108851Y-75431305D01*
X110082086Y-75513677D01*
X110055321Y-75596052D01*
X110041180Y-75685335D01*
X110028224Y-75767139D01*
X110028224Y-75940361D01*
X110055322Y-76111451D01*
X110108851Y-76276195D01*
X110187492Y-76430538D01*
X110289310Y-76570678D01*
X110411796Y-76693164D01*
X110551936Y-76794982D01*
X110706279Y-76873623D01*
X110871023Y-76927152D01*
X111042113Y-76954250D01*
X111042114Y-76954250D01*
X111215334Y-76954250D01*
X111215335Y-76954250D01*
X111386425Y-76927152D01*
X111551169Y-76873623D01*
X111705512Y-76794982D01*
X111845652Y-76693164D01*
X111968138Y-76570678D01*
X112069956Y-76430538D01*
X112148597Y-76276195D01*
X112202126Y-76111451D01*
X112229224Y-75940361D01*
X112229224Y-75767139D01*
X112202126Y-75596049D01*
X112148597Y-75431305D01*
X112069956Y-75276962D01*
X111968138Y-75136822D01*
X111916206Y-75084890D01*
X111882721Y-75023567D01*
X111887705Y-74953875D01*
X111929577Y-74897942D01*
X111995041Y-74873525D01*
X112023285Y-74874736D01*
X112023936Y-74874839D01*
X112023939Y-74874840D01*
X112272762Y-74914250D01*
X112272763Y-74914250D01*
X112524685Y-74914250D01*
X112524686Y-74914250D01*
X112773509Y-74874840D01*
X113013103Y-74796991D01*
X113237569Y-74682620D01*
X113441380Y-74534543D01*
X113619517Y-74356406D01*
X113767594Y-74152595D01*
X113854539Y-73981954D01*
X113902513Y-73931159D01*
X113965024Y-73914250D01*
X114674186Y-73914250D01*
X114741225Y-73933935D01*
X114786980Y-73986739D01*
X114796924Y-74055897D01*
X114767899Y-74119453D01*
X114749672Y-74136626D01*
X114721683Y-74158102D01*
X114721676Y-74158108D01*
X114513082Y-74366702D01*
X114513076Y-74366709D01*
X114333485Y-74600756D01*
X114185982Y-74856239D01*
X114185978Y-74856249D01*
X114073088Y-75128788D01*
X114073085Y-75128798D01*
X113996732Y-75413754D01*
X113996730Y-75413765D01*
X113958224Y-75706236D01*
X113958224Y-76001263D01*
X113990295Y-76244863D01*
X113996731Y-76293743D01*
X114070936Y-76570680D01*
X114073085Y-76578701D01*
X114073088Y-76578711D01*
X114185978Y-76851250D01*
X114185982Y-76851260D01*
X114333485Y-77106743D01*
X114513076Y-77340790D01*
X114513082Y-77340797D01*
X114721676Y-77549391D01*
X114721683Y-77549397D01*
X114955730Y-77728988D01*
X115211213Y-77876491D01*
X115211214Y-77876491D01*
X115211217Y-77876493D01*
X115483772Y-77989389D01*
X115768731Y-78065743D01*
X116061218Y-78104250D01*
X116061225Y-78104250D01*
X116356223Y-78104250D01*
X116356230Y-78104250D01*
X116648717Y-78065743D01*
X116933676Y-77989389D01*
X117206231Y-77876493D01*
X117461718Y-77728988D01*
X117695766Y-77549396D01*
X117904370Y-77340792D01*
X118083962Y-77106744D01*
X118231467Y-76851257D01*
X118344363Y-76578702D01*
X118420717Y-76293743D01*
X118459224Y-76001256D01*
X118459224Y-75767139D01*
X120188224Y-75767139D01*
X120188224Y-75940361D01*
X120215322Y-76111451D01*
X120268851Y-76276195D01*
X120347492Y-76430538D01*
X120449310Y-76570678D01*
X120571796Y-76693164D01*
X120711936Y-76794982D01*
X120866279Y-76873623D01*
X121031023Y-76927152D01*
X121202113Y-76954250D01*
X121202114Y-76954250D01*
X121375334Y-76954250D01*
X121375335Y-76954250D01*
X121546425Y-76927152D01*
X121711169Y-76873623D01*
X121865512Y-76794982D01*
X122005652Y-76693164D01*
X122128138Y-76570678D01*
X122229956Y-76430538D01*
X122308597Y-76276195D01*
X122362126Y-76111451D01*
X122389224Y-75940361D01*
X122389224Y-75767139D01*
X122362126Y-75596049D01*
X122308597Y-75431305D01*
X122229956Y-75276962D01*
X122128138Y-75136822D01*
X122005652Y-75014336D01*
X121865512Y-74912518D01*
X121814707Y-74886632D01*
X121711171Y-74833878D01*
X121711170Y-74833877D01*
X121711169Y-74833877D01*
X121546425Y-74780348D01*
X121546423Y-74780347D01*
X121546422Y-74780347D01*
X121414995Y-74759531D01*
X121375335Y-74753250D01*
X121202113Y-74753250D01*
X121162452Y-74759531D01*
X121031026Y-74780347D01*
X120866276Y-74833878D01*
X120711935Y-74912518D01*
X120655013Y-74953875D01*
X120571796Y-75014336D01*
X120571794Y-75014338D01*
X120571793Y-75014338D01*
X120449312Y-75136819D01*
X120449312Y-75136820D01*
X120449310Y-75136822D01*
X120405583Y-75197006D01*
X120347492Y-75276961D01*
X120268852Y-75431302D01*
X120268851Y-75431304D01*
X120268851Y-75431305D01*
X120242086Y-75513677D01*
X120215321Y-75596052D01*
X120201180Y-75685335D01*
X120188224Y-75767139D01*
X118459224Y-75767139D01*
X118459224Y-75706244D01*
X118420717Y-75413757D01*
X118344363Y-75128798D01*
X118231467Y-74856243D01*
X118176033Y-74760229D01*
X118083962Y-74600756D01*
X117904371Y-74366709D01*
X117904365Y-74366702D01*
X117695771Y-74158108D01*
X117695764Y-74158102D01*
X117667776Y-74136626D01*
X117626573Y-74080198D01*
X117622418Y-74010452D01*
X117656630Y-73949532D01*
X117718348Y-73916779D01*
X117743262Y-73914250D01*
X124212055Y-73914250D01*
X124212071Y-73914251D01*
X124219667Y-73914251D01*
X124377778Y-73914251D01*
X124377781Y-73914251D01*
X124530509Y-73873327D01*
X124616491Y-73823685D01*
X124667440Y-73794270D01*
X124779244Y-73682466D01*
X124779244Y-73682464D01*
X124789448Y-73672261D01*
X124789452Y-73672256D01*
X124903882Y-73557825D01*
X124965203Y-73524342D01*
X125029875Y-73527575D01*
X125044190Y-73532227D01*
X125246372Y-73564250D01*
X125246373Y-73564250D01*
X125451075Y-73564250D01*
X125451076Y-73564250D01*
X125653258Y-73532227D01*
X125653263Y-73532225D01*
X125653265Y-73532225D01*
X125685904Y-73521620D01*
X125755745Y-73519623D01*
X125815579Y-73555703D01*
G37*
%TD.AperFunction*%
%TA.AperFunction,NonConductor*%
G36*
X112464814Y-69993935D02*
G01*
X112510569Y-70046739D01*
X112520513Y-70115897D01*
X112491488Y-70179453D01*
X112448977Y-70210106D01*
X112448978Y-70210108D01*
X112448961Y-70210117D01*
X112445222Y-70212814D01*
X112441929Y-70214177D01*
X112391820Y-70243109D01*
X112391819Y-70243110D01*
X112348413Y-70268170D01*
X112305009Y-70293229D01*
X112305006Y-70293231D01*
X94160905Y-88437333D01*
X94099582Y-88470818D01*
X94029890Y-88465834D01*
X93973957Y-88423962D01*
X93949540Y-88358498D01*
X93949224Y-88349652D01*
X93949224Y-75456211D01*
X93949225Y-75456198D01*
X93949225Y-75288097D01*
X93949225Y-75288095D01*
X93908301Y-75135367D01*
X93879363Y-75085247D01*
X93829244Y-74998436D01*
X93829243Y-74998435D01*
X93829018Y-74998045D01*
X93812547Y-74930144D01*
X93835399Y-74864118D01*
X93890321Y-74820928D01*
X93898069Y-74818121D01*
X93963103Y-74796991D01*
X94187569Y-74682620D01*
X94391380Y-74534543D01*
X94569517Y-74356406D01*
X94717594Y-74152595D01*
X94804539Y-73981954D01*
X94852513Y-73931159D01*
X94915024Y-73914250D01*
X95624186Y-73914250D01*
X95691225Y-73933935D01*
X95736980Y-73986739D01*
X95746924Y-74055897D01*
X95717899Y-74119453D01*
X95699672Y-74136626D01*
X95671683Y-74158102D01*
X95671676Y-74158108D01*
X95463082Y-74366702D01*
X95463076Y-74366709D01*
X95283485Y-74600756D01*
X95135982Y-74856239D01*
X95135978Y-74856249D01*
X95023088Y-75128788D01*
X95023085Y-75128798D01*
X94946732Y-75413754D01*
X94946730Y-75413765D01*
X94908224Y-75706236D01*
X94908224Y-76001263D01*
X94940295Y-76244863D01*
X94946731Y-76293743D01*
X95020936Y-76570680D01*
X95023085Y-76578701D01*
X95023088Y-76578711D01*
X95135978Y-76851250D01*
X95135982Y-76851260D01*
X95283485Y-77106743D01*
X95463076Y-77340790D01*
X95463082Y-77340797D01*
X95671676Y-77549391D01*
X95671683Y-77549397D01*
X95905730Y-77728988D01*
X96161213Y-77876491D01*
X96161214Y-77876491D01*
X96161217Y-77876493D01*
X96433772Y-77989389D01*
X96718731Y-78065743D01*
X97011218Y-78104250D01*
X97011225Y-78104250D01*
X97306223Y-78104250D01*
X97306230Y-78104250D01*
X97598717Y-78065743D01*
X97883676Y-77989389D01*
X98156231Y-77876493D01*
X98411718Y-77728988D01*
X98645766Y-77549396D01*
X98854370Y-77340792D01*
X99033962Y-77106744D01*
X99181467Y-76851257D01*
X99294363Y-76578702D01*
X99370717Y-76293743D01*
X99409224Y-76001256D01*
X99409224Y-75767139D01*
X101138224Y-75767139D01*
X101138224Y-75940361D01*
X101165322Y-76111451D01*
X101218851Y-76276195D01*
X101297492Y-76430538D01*
X101399310Y-76570678D01*
X101521796Y-76693164D01*
X101661936Y-76794982D01*
X101816279Y-76873623D01*
X101981023Y-76927152D01*
X102152113Y-76954250D01*
X102152114Y-76954250D01*
X102325334Y-76954250D01*
X102325335Y-76954250D01*
X102496425Y-76927152D01*
X102661169Y-76873623D01*
X102815512Y-76794982D01*
X102955652Y-76693164D01*
X103078138Y-76570678D01*
X103179956Y-76430538D01*
X103258597Y-76276195D01*
X103312126Y-76111451D01*
X103339224Y-75940361D01*
X103339224Y-75767139D01*
X103312126Y-75596049D01*
X103258597Y-75431305D01*
X103179956Y-75276962D01*
X103078138Y-75136822D01*
X102955652Y-75014336D01*
X102815512Y-74912518D01*
X102764707Y-74886632D01*
X102661171Y-74833878D01*
X102661170Y-74833877D01*
X102661169Y-74833877D01*
X102496425Y-74780348D01*
X102496423Y-74780347D01*
X102496422Y-74780347D01*
X102364995Y-74759531D01*
X102325335Y-74753250D01*
X102152113Y-74753250D01*
X102112452Y-74759531D01*
X101981026Y-74780347D01*
X101816276Y-74833878D01*
X101661935Y-74912518D01*
X101605013Y-74953875D01*
X101521796Y-75014336D01*
X101521794Y-75014338D01*
X101521793Y-75014338D01*
X101399312Y-75136819D01*
X101399312Y-75136820D01*
X101399310Y-75136822D01*
X101355583Y-75197006D01*
X101297492Y-75276961D01*
X101218852Y-75431302D01*
X101218851Y-75431304D01*
X101218851Y-75431305D01*
X101192086Y-75513677D01*
X101165321Y-75596052D01*
X101151180Y-75685335D01*
X101138224Y-75767139D01*
X99409224Y-75767139D01*
X99409224Y-75706244D01*
X99370717Y-75413757D01*
X99294363Y-75128798D01*
X99181467Y-74856243D01*
X99126033Y-74760229D01*
X99033962Y-74600756D01*
X98854371Y-74366709D01*
X98854365Y-74366702D01*
X98645771Y-74158108D01*
X98645764Y-74158102D01*
X98617776Y-74136626D01*
X98576573Y-74080198D01*
X98572418Y-74010452D01*
X98606630Y-73949532D01*
X98668348Y-73916779D01*
X98693262Y-73914250D01*
X105212055Y-73914250D01*
X105212071Y-73914251D01*
X105219667Y-73914251D01*
X105377778Y-73914251D01*
X105377781Y-73914251D01*
X105530509Y-73873327D01*
X105616491Y-73823685D01*
X105667440Y-73794270D01*
X105779244Y-73682466D01*
X105779244Y-73682464D01*
X105789448Y-73672261D01*
X105789452Y-73672256D01*
X105903882Y-73557825D01*
X105965203Y-73524342D01*
X106029875Y-73527575D01*
X106044190Y-73532227D01*
X106246372Y-73564250D01*
X106246373Y-73564250D01*
X106451075Y-73564250D01*
X106451076Y-73564250D01*
X106653258Y-73532227D01*
X106847943Y-73468970D01*
X107030334Y-73376037D01*
X107123314Y-73308482D01*
X107195937Y-73255721D01*
X107195939Y-73255718D01*
X107195943Y-73255716D01*
X107340690Y-73110969D01*
X107340692Y-73110965D01*
X107340695Y-73110963D01*
X107439875Y-72974451D01*
X107461011Y-72945360D01*
X107553944Y-72762969D01*
X107617201Y-72568284D01*
X107649224Y-72366102D01*
X107649224Y-72161398D01*
X107622797Y-71994548D01*
X107617201Y-71959215D01*
X107575382Y-71830510D01*
X107553944Y-71764531D01*
X107553942Y-71764528D01*
X107553942Y-71764526D01*
X107498739Y-71656185D01*
X107461011Y-71582140D01*
X107440060Y-71553303D01*
X107340695Y-71416536D01*
X107195937Y-71271778D01*
X107030337Y-71151465D01*
X107030336Y-71151464D01*
X107030334Y-71151463D01*
X106973377Y-71122441D01*
X106847947Y-71058531D01*
X106653258Y-70995272D01*
X106478719Y-70967628D01*
X106451076Y-70963250D01*
X106246372Y-70963250D01*
X106222053Y-70967101D01*
X106044189Y-70995272D01*
X105849500Y-71058531D01*
X105667110Y-71151465D01*
X105501510Y-71271778D01*
X105356752Y-71416536D01*
X105236439Y-71582136D01*
X105143505Y-71764526D01*
X105080246Y-71959215D01*
X105048224Y-72161398D01*
X105048224Y-72366101D01*
X105080495Y-72569852D01*
X105071540Y-72639146D01*
X105026544Y-72692598D01*
X104959793Y-72713237D01*
X104958022Y-72713250D01*
X94915024Y-72713250D01*
X94847985Y-72693565D01*
X94804539Y-72645545D01*
X94801279Y-72639146D01*
X94717594Y-72474905D01*
X94638544Y-72366102D01*
X94569522Y-72271100D01*
X94569518Y-72271095D01*
X94391378Y-72092955D01*
X94391373Y-72092951D01*
X94187572Y-71944882D01*
X94187571Y-71944881D01*
X94187569Y-71944880D01*
X94117471Y-71909163D01*
X93963107Y-71830510D01*
X93960241Y-71829579D01*
X93957940Y-71828831D01*
X93900268Y-71789390D01*
X93873074Y-71725030D01*
X93884993Y-71656185D01*
X93908580Y-71623229D01*
X94121242Y-71410566D01*
X94182564Y-71377084D01*
X94208922Y-71374250D01*
X98132424Y-71374250D01*
X98199463Y-71393935D01*
X98242908Y-71441954D01*
X98316442Y-71586273D01*
X98329856Y-71612598D01*
X98477925Y-71816399D01*
X98477929Y-71816404D01*
X98656069Y-71994544D01*
X98656074Y-71994548D01*
X98833841Y-72123702D01*
X98859879Y-72142620D01*
X99002908Y-72215497D01*
X99084340Y-72256989D01*
X99084342Y-72256989D01*
X99084345Y-72256991D01*
X99323939Y-72334840D01*
X99572762Y-72374250D01*
X99572763Y-72374250D01*
X99824685Y-72374250D01*
X99824686Y-72374250D01*
X100073509Y-72334840D01*
X100313103Y-72256991D01*
X100537569Y-72142620D01*
X100741380Y-71994543D01*
X100919517Y-71816406D01*
X101067594Y-71612595D01*
X101181965Y-71388129D01*
X101259814Y-71148535D01*
X101299224Y-70899712D01*
X101299224Y-70647788D01*
X101259814Y-70398965D01*
X101181965Y-70159371D01*
X101179506Y-70154546D01*
X101166610Y-70085878D01*
X101192885Y-70021137D01*
X101249991Y-69980879D01*
X101289991Y-69974250D01*
X112397775Y-69974250D01*
X112464814Y-69993935D01*
G37*
%TD.AperFunction*%
%TA.AperFunction,NonConductor*%
G36*
X91554518Y-76821773D02*
G01*
X91656279Y-76873623D01*
X91821023Y-76927152D01*
X91992113Y-76954250D01*
X91992114Y-76954250D01*
X92165334Y-76954250D01*
X92165335Y-76954250D01*
X92336425Y-76927152D01*
X92501169Y-76873623D01*
X92567930Y-76839606D01*
X92636598Y-76826711D01*
X92701339Y-76852987D01*
X92741596Y-76910094D01*
X92748224Y-76950092D01*
X92748224Y-89232966D01*
X92728539Y-89300005D01*
X92711905Y-89320647D01*
X91538130Y-90494421D01*
X91476807Y-90527906D01*
X91407115Y-90522922D01*
X91351182Y-90481050D01*
X91326765Y-90415586D01*
X91333518Y-90374008D01*
X91331197Y-90373387D01*
X91336094Y-90355111D01*
X91374224Y-90212808D01*
X91374224Y-90054693D01*
X91374224Y-76932259D01*
X91393909Y-76865220D01*
X91446713Y-76819465D01*
X91515871Y-76809521D01*
X91554518Y-76821773D01*
G37*
%TD.AperFunction*%
%TA.AperFunction,NonConductor*%
G36*
X110536767Y-91183935D02*
G01*
X110582522Y-91236739D01*
X110592466Y-91305897D01*
X110563441Y-91369453D01*
X110557409Y-91375931D01*
X108452002Y-93481337D01*
X108390679Y-93514822D01*
X108320987Y-93509838D01*
X108265054Y-93467966D01*
X108241848Y-93413050D01*
X108240970Y-93407507D01*
X108175281Y-93205338D01*
X108078775Y-93015934D01*
X108078773Y-93015931D01*
X108078772Y-93015929D01*
X107953833Y-92843963D01*
X107803510Y-92693640D01*
X107631544Y-92568701D01*
X107630839Y-92568341D01*
X107622778Y-92564235D01*
X107571983Y-92516262D01*
X107555187Y-92448442D01*
X107577723Y-92382306D01*
X107622778Y-92343265D01*
X107631540Y-92338801D01*
X107716166Y-92277317D01*
X107803510Y-92213859D01*
X107803512Y-92213856D01*
X107803516Y-92213854D01*
X107953828Y-92063542D01*
X107953830Y-92063538D01*
X107953833Y-92063536D01*
X108078772Y-91891570D01*
X108078771Y-91891570D01*
X108078775Y-91891566D01*
X108175281Y-91702162D01*
X108240970Y-91499993D01*
X108274224Y-91290037D01*
X108274224Y-91288250D01*
X108274416Y-91287594D01*
X108274607Y-91285174D01*
X108275115Y-91285214D01*
X108293909Y-91221211D01*
X108346713Y-91175456D01*
X108398224Y-91164250D01*
X110469728Y-91164250D01*
X110536767Y-91183935D01*
G37*
%TD.AperFunction*%
%TA.AperFunction,NonConductor*%
G36*
X83748987Y-91741224D02*
G01*
X83748988Y-91741223D01*
X83749007Y-91741228D01*
X83753548Y-91741964D01*
X83756835Y-91743325D01*
X83756839Y-91743327D01*
X83868642Y-91773284D01*
X83909565Y-91784250D01*
X83909566Y-91784250D01*
X86488005Y-91784250D01*
X86555044Y-91803935D01*
X86598489Y-91851955D01*
X86618671Y-91891564D01*
X86618672Y-91891565D01*
X86743614Y-92063536D01*
X86763304Y-92083226D01*
X86796789Y-92144549D01*
X86791805Y-92214241D01*
X86763304Y-92258588D01*
X86143205Y-92878686D01*
X86143203Y-92878688D01*
X86133722Y-92895111D01*
X86117432Y-92923327D01*
X86064147Y-93015619D01*
X86023223Y-93168347D01*
X86023223Y-93168349D01*
X86023223Y-93336450D01*
X86023224Y-93336463D01*
X86023224Y-94049653D01*
X86003539Y-94116692D01*
X85950735Y-94162447D01*
X85881577Y-94172391D01*
X85818021Y-94143366D01*
X85811543Y-94137334D01*
X83618415Y-91944206D01*
X83584930Y-91882883D01*
X83589914Y-91813191D01*
X83631786Y-91757258D01*
X83697250Y-91732841D01*
X83748987Y-91741224D01*
G37*
%TD.AperFunction*%
%TA.AperFunction,NonConductor*%
G36*
X75111338Y-93827340D02*
G01*
X75151596Y-93884446D01*
X75158224Y-93924445D01*
X75158224Y-95593679D01*
X75138539Y-95660718D01*
X75121905Y-95681360D01*
X74757584Y-96045681D01*
X74696261Y-96079166D01*
X74669903Y-96082000D01*
X73656835Y-96082000D01*
X73589796Y-96062315D01*
X73544041Y-96009511D01*
X73534097Y-95940353D01*
X73563122Y-95876797D01*
X73600540Y-95847514D01*
X73605512Y-95844982D01*
X73745652Y-95743164D01*
X73868138Y-95620678D01*
X73969956Y-95480538D01*
X74048597Y-95326195D01*
X74102126Y-95161451D01*
X74129224Y-94990361D01*
X74129224Y-94817139D01*
X74102126Y-94646049D01*
X74048597Y-94481305D01*
X73969956Y-94326962D01*
X73868138Y-94186822D01*
X73816206Y-94134890D01*
X73782721Y-94073567D01*
X73787705Y-94003875D01*
X73829577Y-93947942D01*
X73895041Y-93923525D01*
X73923285Y-93924736D01*
X73923936Y-93924839D01*
X73923939Y-93924840D01*
X74172762Y-93964250D01*
X74172763Y-93964250D01*
X74424685Y-93964250D01*
X74424686Y-93964250D01*
X74673509Y-93924840D01*
X74913103Y-93846991D01*
X74977928Y-93813960D01*
X75046597Y-93801064D01*
X75111338Y-93827340D01*
G37*
%TD.AperFunction*%
%TA.AperFunction,NonConductor*%
G36*
X135315666Y-92383935D02*
G01*
X135336308Y-92400569D01*
X140395924Y-97460185D01*
X140429409Y-97521508D01*
X140426174Y-97586183D01*
X140385171Y-97712378D01*
X140348224Y-97945652D01*
X140348224Y-98181847D01*
X140385170Y-98415118D01*
X140445546Y-98600931D01*
X140447541Y-98670772D01*
X140411461Y-98730605D01*
X140348760Y-98761434D01*
X140327615Y-98763250D01*
X131448822Y-98763250D01*
X131381783Y-98743565D01*
X131361141Y-98726931D01*
X130094395Y-97460185D01*
X128801521Y-96167312D01*
X128768037Y-96105990D01*
X128771271Y-96041316D01*
X128812277Y-95915118D01*
X128832429Y-95787876D01*
X128849224Y-95681847D01*
X128849224Y-95445652D01*
X128812277Y-95212381D01*
X128777137Y-95104234D01*
X128739292Y-94987758D01*
X128739290Y-94987755D01*
X128739290Y-94987753D01*
X128642905Y-94798588D01*
X128632067Y-94777317D01*
X128562517Y-94681590D01*
X128539038Y-94615786D01*
X128554863Y-94547732D01*
X128588525Y-94509439D01*
X128591052Y-94507546D01*
X128591055Y-94507546D01*
X128706270Y-94421296D01*
X128792520Y-94306081D01*
X128842815Y-94171233D01*
X128849224Y-94111623D01*
X128849223Y-92488249D01*
X128868908Y-92421211D01*
X128921711Y-92375456D01*
X128973223Y-92364250D01*
X135248627Y-92364250D01*
X135315666Y-92383935D01*
G37*
%TD.AperFunction*%
%TA.AperFunction,NonConductor*%
G36*
X125815579Y-92745703D02*
G01*
X125846408Y-92808403D01*
X125848224Y-92829550D01*
X125848224Y-93663652D01*
X125828539Y-93730691D01*
X125811905Y-93751333D01*
X118856308Y-100706931D01*
X118794985Y-100740416D01*
X118768627Y-100743250D01*
X108209443Y-100743250D01*
X108142404Y-100723565D01*
X108098959Y-100675545D01*
X108078776Y-100635935D01*
X108078775Y-100635934D01*
X107953833Y-100463963D01*
X107803510Y-100313640D01*
X107631544Y-100188701D01*
X107630839Y-100188341D01*
X107622778Y-100184235D01*
X107571983Y-100136262D01*
X107555187Y-100068442D01*
X107577723Y-100002306D01*
X107622778Y-99963265D01*
X107631540Y-99958801D01*
X107680366Y-99923327D01*
X107803510Y-99833859D01*
X107803512Y-99833856D01*
X107803516Y-99833854D01*
X107953828Y-99683542D01*
X107953830Y-99683538D01*
X107953833Y-99683536D01*
X108078772Y-99511570D01*
X108078771Y-99511570D01*
X108078775Y-99511566D01*
X108175281Y-99322162D01*
X108240970Y-99119993D01*
X108274224Y-98910037D01*
X108274224Y-98697463D01*
X108240970Y-98487507D01*
X108175281Y-98285338D01*
X108078775Y-98095934D01*
X108078773Y-98095931D01*
X108078772Y-98095929D01*
X107953833Y-97923963D01*
X107803510Y-97773640D01*
X107631544Y-97648701D01*
X107630839Y-97648341D01*
X107622778Y-97644235D01*
X107571983Y-97596262D01*
X107555187Y-97528442D01*
X107577723Y-97462306D01*
X107622778Y-97423265D01*
X107631540Y-97418801D01*
X107736142Y-97342804D01*
X107803510Y-97293859D01*
X107803512Y-97293856D01*
X107803516Y-97293854D01*
X107953828Y-97143542D01*
X107953830Y-97143538D01*
X107953833Y-97143536D01*
X108078772Y-96971570D01*
X108078771Y-96971570D01*
X108078775Y-96971566D01*
X108175281Y-96782162D01*
X108240970Y-96579993D01*
X108274224Y-96370037D01*
X108274224Y-96157463D01*
X108240970Y-95947507D01*
X108175281Y-95745338D01*
X108118695Y-95634283D01*
X108105800Y-95565615D01*
X108132076Y-95500874D01*
X108141491Y-95490317D01*
X110708198Y-92923610D01*
X110769519Y-92890127D01*
X110839211Y-92895111D01*
X110895144Y-92936983D01*
X110913806Y-92972967D01*
X110915484Y-92978133D01*
X110980584Y-93105897D01*
X111028833Y-93200592D01*
X111029856Y-93202598D01*
X111177925Y-93406399D01*
X111177929Y-93406404D01*
X111177931Y-93406406D01*
X111356068Y-93584543D01*
X111356069Y-93584544D01*
X111356068Y-93584544D01*
X111362385Y-93589133D01*
X111405051Y-93644464D01*
X111411029Y-93714077D01*
X111378423Y-93775872D01*
X111317584Y-93810229D01*
X111270102Y-93811924D01*
X111215335Y-93803250D01*
X111042113Y-93803250D01*
X111002452Y-93809531D01*
X110871026Y-93830347D01*
X110706276Y-93883878D01*
X110551935Y-93962518D01*
X110495013Y-94003875D01*
X110411796Y-94064336D01*
X110411794Y-94064338D01*
X110411793Y-94064338D01*
X110289312Y-94186819D01*
X110289312Y-94186820D01*
X110289310Y-94186822D01*
X110260109Y-94227014D01*
X110187492Y-94326961D01*
X110108852Y-94481302D01*
X110055321Y-94646052D01*
X110037870Y-94756236D01*
X110028224Y-94817139D01*
X110028224Y-94990361D01*
X110055322Y-95161451D01*
X110108851Y-95326195D01*
X110187492Y-95480538D01*
X110289310Y-95620678D01*
X110411796Y-95743164D01*
X110551936Y-95844982D01*
X110706279Y-95923623D01*
X110871023Y-95977152D01*
X111042113Y-96004250D01*
X111042114Y-96004250D01*
X111215334Y-96004250D01*
X111215335Y-96004250D01*
X111386425Y-95977152D01*
X111551169Y-95923623D01*
X111705512Y-95844982D01*
X111845652Y-95743164D01*
X111968138Y-95620678D01*
X112069956Y-95480538D01*
X112148597Y-95326195D01*
X112202126Y-95161451D01*
X112229224Y-94990361D01*
X112229224Y-94817139D01*
X112202126Y-94646049D01*
X112148597Y-94481305D01*
X112069956Y-94326962D01*
X111968138Y-94186822D01*
X111916206Y-94134890D01*
X111882721Y-94073567D01*
X111887705Y-94003875D01*
X111929577Y-93947942D01*
X111995041Y-93923525D01*
X112023285Y-93924736D01*
X112023936Y-93924839D01*
X112023939Y-93924840D01*
X112272762Y-93964250D01*
X112272763Y-93964250D01*
X112524685Y-93964250D01*
X112524686Y-93964250D01*
X112773509Y-93924840D01*
X113013103Y-93846991D01*
X113237569Y-93732620D01*
X113441380Y-93584543D01*
X113619517Y-93406406D01*
X113767594Y-93202595D01*
X113854539Y-93031954D01*
X113902513Y-92981159D01*
X113965024Y-92964250D01*
X114674186Y-92964250D01*
X114741225Y-92983935D01*
X114786980Y-93036739D01*
X114796924Y-93105897D01*
X114767899Y-93169453D01*
X114749672Y-93186626D01*
X114721683Y-93208102D01*
X114721676Y-93208108D01*
X114513082Y-93416702D01*
X114513076Y-93416709D01*
X114333485Y-93650756D01*
X114185982Y-93906239D01*
X114185978Y-93906249D01*
X114073090Y-94178785D01*
X114073085Y-94178798D01*
X114002027Y-94443994D01*
X113996732Y-94463754D01*
X113996730Y-94463765D01*
X113958224Y-94756236D01*
X113958224Y-95051263D01*
X113982236Y-95233646D01*
X113996731Y-95343743D01*
X114070936Y-95620680D01*
X114073085Y-95628701D01*
X114073088Y-95628711D01*
X114185978Y-95901250D01*
X114185982Y-95901260D01*
X114333485Y-96156743D01*
X114513076Y-96390790D01*
X114513082Y-96390797D01*
X114721676Y-96599391D01*
X114721683Y-96599397D01*
X114955730Y-96778988D01*
X115211213Y-96926491D01*
X115211214Y-96926491D01*
X115211217Y-96926493D01*
X115483772Y-97039389D01*
X115768731Y-97115743D01*
X116061218Y-97154250D01*
X116061225Y-97154250D01*
X116356223Y-97154250D01*
X116356230Y-97154250D01*
X116648717Y-97115743D01*
X116933676Y-97039389D01*
X117206231Y-96926493D01*
X117461718Y-96778988D01*
X117695766Y-96599396D01*
X117904370Y-96390792D01*
X118083962Y-96156744D01*
X118231467Y-95901257D01*
X118344363Y-95628702D01*
X118420717Y-95343743D01*
X118459224Y-95051256D01*
X118459224Y-94817139D01*
X120188224Y-94817139D01*
X120188224Y-94990361D01*
X120215322Y-95161451D01*
X120268851Y-95326195D01*
X120347492Y-95480538D01*
X120449310Y-95620678D01*
X120571796Y-95743164D01*
X120711936Y-95844982D01*
X120866279Y-95923623D01*
X121031023Y-95977152D01*
X121202113Y-96004250D01*
X121202114Y-96004250D01*
X121375334Y-96004250D01*
X121375335Y-96004250D01*
X121546425Y-95977152D01*
X121711169Y-95923623D01*
X121865512Y-95844982D01*
X122005652Y-95743164D01*
X122128138Y-95620678D01*
X122229956Y-95480538D01*
X122308597Y-95326195D01*
X122362126Y-95161451D01*
X122389224Y-94990361D01*
X122389224Y-94817139D01*
X122362126Y-94646049D01*
X122308597Y-94481305D01*
X122229956Y-94326962D01*
X122128138Y-94186822D01*
X122005652Y-94064336D01*
X121865512Y-93962518D01*
X121711169Y-93883877D01*
X121546425Y-93830348D01*
X121546423Y-93830347D01*
X121546422Y-93830347D01*
X121414995Y-93809531D01*
X121375335Y-93803250D01*
X121202113Y-93803250D01*
X121162452Y-93809531D01*
X121031026Y-93830347D01*
X120866276Y-93883878D01*
X120711935Y-93962518D01*
X120655013Y-94003875D01*
X120571796Y-94064336D01*
X120571794Y-94064338D01*
X120571793Y-94064338D01*
X120449312Y-94186819D01*
X120449312Y-94186820D01*
X120449310Y-94186822D01*
X120420109Y-94227014D01*
X120347492Y-94326961D01*
X120268852Y-94481302D01*
X120215321Y-94646052D01*
X120197870Y-94756236D01*
X120188224Y-94817139D01*
X118459224Y-94817139D01*
X118459224Y-94756244D01*
X118420717Y-94463757D01*
X118344363Y-94178798D01*
X118341229Y-94171233D01*
X118286866Y-94039989D01*
X118231467Y-93906243D01*
X118198765Y-93849602D01*
X118083962Y-93650756D01*
X117904371Y-93416709D01*
X117904365Y-93416702D01*
X117695771Y-93208108D01*
X117695764Y-93208102D01*
X117667776Y-93186626D01*
X117626573Y-93130198D01*
X117622418Y-93060452D01*
X117656630Y-92999532D01*
X117718348Y-92966779D01*
X117743262Y-92964250D01*
X124352055Y-92964250D01*
X124352071Y-92964251D01*
X124359667Y-92964251D01*
X124517778Y-92964251D01*
X124517781Y-92964251D01*
X124670509Y-92923327D01*
X124743809Y-92881007D01*
X124807440Y-92844270D01*
X124903885Y-92747824D01*
X124965204Y-92714342D01*
X125029881Y-92717577D01*
X125044190Y-92722227D01*
X125246372Y-92754250D01*
X125246373Y-92754250D01*
X125451075Y-92754250D01*
X125451076Y-92754250D01*
X125653258Y-92722227D01*
X125653263Y-92722225D01*
X125653265Y-92722225D01*
X125685904Y-92711620D01*
X125755745Y-92709623D01*
X125815579Y-92745703D01*
G37*
%TD.AperFunction*%
%TA.AperFunction,NonConductor*%
G36*
X125770462Y-95593759D02*
G01*
X125826395Y-95635631D01*
X125849601Y-95690543D01*
X125885170Y-95915118D01*
X125958157Y-96139746D01*
X126043105Y-96306464D01*
X126065381Y-96350183D01*
X126204207Y-96541260D01*
X126204209Y-96541262D01*
X126371214Y-96708267D01*
X126378327Y-96713435D01*
X126420990Y-96768767D01*
X126426966Y-96838380D01*
X126394358Y-96900174D01*
X126378327Y-96914065D01*
X126371214Y-96919232D01*
X126204209Y-97086237D01*
X126204209Y-97086238D01*
X126204207Y-97086240D01*
X126154795Y-97154250D01*
X126065381Y-97277316D01*
X125958157Y-97487753D01*
X125893233Y-97687569D01*
X125853795Y-97745244D01*
X125789436Y-97772442D01*
X125775302Y-97773250D01*
X124748722Y-97773250D01*
X124748705Y-97773251D01*
X124645927Y-97783750D01*
X124645924Y-97783751D01*
X124479392Y-97838935D01*
X124479387Y-97838937D01*
X124330066Y-97931039D01*
X124206013Y-98055092D01*
X124113911Y-98204413D01*
X124113910Y-98204416D01*
X124058725Y-98370953D01*
X124058725Y-98370954D01*
X124058724Y-98370954D01*
X124048224Y-98473733D01*
X124048224Y-99673751D01*
X124048225Y-99673768D01*
X124058724Y-99776546D01*
X124058725Y-99776549D01*
X124113909Y-99943081D01*
X124113911Y-99943086D01*
X124123604Y-99958801D01*
X124206012Y-100092406D01*
X124330068Y-100216462D01*
X124479390Y-100308564D01*
X124645927Y-100363749D01*
X124748715Y-100374250D01*
X125303840Y-100374249D01*
X125370878Y-100393933D01*
X125416633Y-100446737D01*
X125426577Y-100515896D01*
X125397552Y-100579452D01*
X125391520Y-100585930D01*
X124120521Y-101856931D01*
X124059198Y-101890416D01*
X124032840Y-101893250D01*
X119667820Y-101893250D01*
X119600781Y-101873565D01*
X119555026Y-101820761D01*
X119545082Y-101751603D01*
X119574107Y-101688047D01*
X119580139Y-101681569D01*
X122603216Y-98658492D01*
X125639449Y-95622258D01*
X125700770Y-95588775D01*
X125770462Y-95593759D01*
G37*
%TD.AperFunction*%
%TA.AperFunction,NonConductor*%
G36*
X79089211Y-90355111D02*
G01*
X79145144Y-90396983D01*
X79163806Y-90432967D01*
X79165484Y-90438133D01*
X79279856Y-90662598D01*
X79427925Y-90866399D01*
X79427929Y-90866404D01*
X79606069Y-91044544D01*
X79606074Y-91044548D01*
X79750137Y-91149215D01*
X79809879Y-91192620D01*
X79896468Y-91236739D01*
X80034340Y-91306989D01*
X80034342Y-91306989D01*
X80034345Y-91306991D01*
X80273939Y-91384840D01*
X80522762Y-91424250D01*
X80522763Y-91424250D01*
X80774685Y-91424250D01*
X80774686Y-91424250D01*
X81023509Y-91384840D01*
X81205652Y-91325657D01*
X81275488Y-91323662D01*
X81331647Y-91355908D01*
X83613976Y-93638237D01*
X83647461Y-93699560D01*
X83642477Y-93769252D01*
X83600605Y-93825185D01*
X83535141Y-93849602D01*
X83487978Y-93843849D01*
X83446426Y-93830348D01*
X83446422Y-93830347D01*
X83314995Y-93809531D01*
X83275335Y-93803250D01*
X83102113Y-93803250D01*
X83062452Y-93809531D01*
X82931026Y-93830347D01*
X82766276Y-93883878D01*
X82611935Y-93962518D01*
X82555013Y-94003875D01*
X82471796Y-94064336D01*
X82471794Y-94064338D01*
X82471793Y-94064338D01*
X82349312Y-94186819D01*
X82349312Y-94186820D01*
X82349310Y-94186822D01*
X82320109Y-94227014D01*
X82247492Y-94326961D01*
X82168852Y-94481302D01*
X82115321Y-94646052D01*
X82097870Y-94756236D01*
X82088224Y-94817139D01*
X82088224Y-94990361D01*
X82115322Y-95161451D01*
X82168851Y-95326195D01*
X82247492Y-95480538D01*
X82349310Y-95620678D01*
X82471796Y-95743164D01*
X82611936Y-95844982D01*
X82766279Y-95923623D01*
X82931023Y-95977152D01*
X83102113Y-96004250D01*
X83102114Y-96004250D01*
X83275334Y-96004250D01*
X83275335Y-96004250D01*
X83446425Y-95977152D01*
X83611169Y-95923623D01*
X83765512Y-95844982D01*
X83905652Y-95743164D01*
X84028138Y-95620678D01*
X84129956Y-95480538D01*
X84208597Y-95326195D01*
X84262126Y-95161451D01*
X84289224Y-94990361D01*
X84289224Y-94817139D01*
X84262126Y-94646049D01*
X84248623Y-94604494D01*
X84246629Y-94534656D01*
X84282709Y-94474823D01*
X84345410Y-94443994D01*
X84414824Y-94451958D01*
X84454236Y-94478497D01*
X86349899Y-96374160D01*
X86383384Y-96435483D01*
X86384691Y-96442442D01*
X86406477Y-96579990D01*
X86406478Y-96579993D01*
X86455928Y-96732185D01*
X86472168Y-96782164D01*
X86568675Y-96971570D01*
X86693614Y-97143536D01*
X86843937Y-97293859D01*
X87015906Y-97418800D01*
X87024670Y-97423266D01*
X87075466Y-97471241D01*
X87092260Y-97539062D01*
X87069722Y-97605197D01*
X87024670Y-97644234D01*
X87015906Y-97648699D01*
X86843937Y-97773640D01*
X86693614Y-97923963D01*
X86568675Y-98095929D01*
X86472168Y-98285335D01*
X86406477Y-98487510D01*
X86373224Y-98697463D01*
X86373224Y-98910036D01*
X86404667Y-99108563D01*
X86406478Y-99119993D01*
X86441252Y-99227017D01*
X86472168Y-99322164D01*
X86568675Y-99511570D01*
X86693614Y-99683536D01*
X86843937Y-99833859D01*
X87015906Y-99958800D01*
X87024670Y-99963266D01*
X87075466Y-100011241D01*
X87092260Y-100079062D01*
X87069722Y-100145197D01*
X87024670Y-100184234D01*
X87015906Y-100188699D01*
X86843937Y-100313640D01*
X86693614Y-100463963D01*
X86568675Y-100635929D01*
X86472168Y-100825335D01*
X86406477Y-101027510D01*
X86373224Y-101237463D01*
X86373224Y-101450037D01*
X86406478Y-101659993D01*
X86415593Y-101688047D01*
X86429528Y-101730932D01*
X86431523Y-101800773D01*
X86395443Y-101860606D01*
X86332742Y-101891434D01*
X86311597Y-101893250D01*
X82109733Y-101893250D01*
X82042694Y-101873565D01*
X82022052Y-101856931D01*
X77466124Y-97301003D01*
X77432639Y-97239680D01*
X77437623Y-97169988D01*
X77479495Y-97114055D01*
X77544959Y-97089638D01*
X77585890Y-97093546D01*
X77668731Y-97115743D01*
X77961218Y-97154250D01*
X77961225Y-97154250D01*
X78256223Y-97154250D01*
X78256230Y-97154250D01*
X78548717Y-97115743D01*
X78833676Y-97039389D01*
X79106231Y-96926493D01*
X79361718Y-96778988D01*
X79595766Y-96599396D01*
X79804370Y-96390792D01*
X79983962Y-96156744D01*
X80131467Y-95901257D01*
X80244363Y-95628702D01*
X80320717Y-95343743D01*
X80359224Y-95051256D01*
X80359224Y-94756244D01*
X80320717Y-94463757D01*
X80244363Y-94178798D01*
X80241229Y-94171233D01*
X80186866Y-94039989D01*
X80131467Y-93906243D01*
X80098765Y-93849602D01*
X79983962Y-93650756D01*
X79804371Y-93416709D01*
X79804365Y-93416702D01*
X79595771Y-93208108D01*
X79595764Y-93208102D01*
X79361717Y-93028511D01*
X79106229Y-92881006D01*
X79106224Y-92881004D01*
X78833685Y-92768114D01*
X78833678Y-92768112D01*
X78833676Y-92768111D01*
X78548717Y-92691757D01*
X78499837Y-92685321D01*
X78256237Y-92653250D01*
X78256230Y-92653250D01*
X77961218Y-92653250D01*
X77961210Y-92653250D01*
X77682809Y-92689903D01*
X77668731Y-92691757D01*
X77435502Y-92754250D01*
X77383772Y-92768111D01*
X77383762Y-92768114D01*
X77111223Y-92881004D01*
X77111219Y-92881006D01*
X76855730Y-93028511D01*
X76621683Y-93208102D01*
X76621676Y-93208108D01*
X76570905Y-93258880D01*
X76509582Y-93292365D01*
X76439890Y-93287381D01*
X76383957Y-93245509D01*
X76359540Y-93180045D01*
X76359224Y-93171199D01*
X76359224Y-93033947D01*
X76378909Y-92966908D01*
X76395538Y-92946271D01*
X78958198Y-90383610D01*
X79019519Y-90350127D01*
X79089211Y-90355111D01*
G37*
%TD.AperFunction*%
M02*
