%TF.GenerationSoftware,KiCad,Pcbnew,10.0.6*%
%TF.CreationDate,2026-09-05T00:02:13+05:30*%
%TF.ProjectId,hackpad_v2,6861636b-7061-4645-9f76-322e6b696361,rev?*%
%TF.SameCoordinates,Original*%
%TF.FileFunction,Legend,Top*%
%TF.FilePolarity,Positive*%
%FSLAX46Y46*%
G04 Gerber Fmt 4.6, Leading zero omitted, Abs format (unit mm)*
G04 Created by KiCad (PCBNEW 10.0.6) date 2026-09-05 00:02:13*
%MOMM*%
%LPD*%
G01*
G04 APERTURE LIST*
%ADD10C,0.101600*%
%ADD11C,0.150000*%
%ADD12C,0.127000*%
%ADD13C,0.120000*%
%ADD14C,0.254000*%
%ADD15C,0.025400*%
G04 APERTURE END LIST*
D10*
X96671390Y-93240735D02*
X96671390Y-93960402D01*
X96671390Y-93960402D02*
X96713724Y-94045068D01*
X96713724Y-94045068D02*
X96756057Y-94087402D01*
X96756057Y-94087402D02*
X96840724Y-94129735D01*
X96840724Y-94129735D02*
X97010057Y-94129735D01*
X97010057Y-94129735D02*
X97094724Y-94087402D01*
X97094724Y-94087402D02*
X97137057Y-94045068D01*
X97137057Y-94045068D02*
X97179390Y-93960402D01*
X97179390Y-93960402D02*
X97179390Y-93240735D01*
X98068390Y-94129735D02*
X97560390Y-94129735D01*
X97814390Y-94129735D02*
X97814390Y-93240735D01*
X97814390Y-93240735D02*
X97729723Y-93367735D01*
X97729723Y-93367735D02*
X97645057Y-93452402D01*
X97645057Y-93452402D02*
X97560390Y-93494735D01*
D11*
X98872532Y-96308930D02*
X98205866Y-95308930D01*
X98205866Y-96308930D02*
X98872532Y-95308930D01*
X97824913Y-95308930D02*
X97824913Y-96308930D01*
X97396342Y-95594645D02*
X96920152Y-95594645D01*
X97491580Y-95308930D02*
X97158247Y-96308930D01*
X97158247Y-96308930D02*
X96824914Y-95308930D01*
X96301104Y-96308930D02*
X96110628Y-96308930D01*
X96110628Y-96308930D02*
X96015390Y-96261311D01*
X96015390Y-96261311D02*
X95920152Y-96166073D01*
X95920152Y-96166073D02*
X95872533Y-95975597D01*
X95872533Y-95975597D02*
X95872533Y-95642264D01*
X95872533Y-95642264D02*
X95920152Y-95451788D01*
X95920152Y-95451788D02*
X96015390Y-95356550D01*
X96015390Y-95356550D02*
X96110628Y-95308930D01*
X96110628Y-95308930D02*
X96301104Y-95308930D01*
X96301104Y-95308930D02*
X96396342Y-95356550D01*
X96396342Y-95356550D02*
X96491580Y-95451788D01*
X96491580Y-95451788D02*
X96539199Y-95642264D01*
X96539199Y-95642264D02*
X96539199Y-95975597D01*
X96539199Y-95975597D02*
X96491580Y-96166073D01*
X96491580Y-96166073D02*
X96396342Y-96261311D01*
X96396342Y-96261311D02*
X96301104Y-96308930D01*
X102110628Y-97356550D02*
X101967771Y-97308930D01*
X101967771Y-97308930D02*
X101729676Y-97308930D01*
X101729676Y-97308930D02*
X101634438Y-97356550D01*
X101634438Y-97356550D02*
X101586819Y-97404169D01*
X101586819Y-97404169D02*
X101539200Y-97499407D01*
X101539200Y-97499407D02*
X101539200Y-97594645D01*
X101539200Y-97594645D02*
X101586819Y-97689883D01*
X101586819Y-97689883D02*
X101634438Y-97737502D01*
X101634438Y-97737502D02*
X101729676Y-97785121D01*
X101729676Y-97785121D02*
X101920152Y-97832740D01*
X101920152Y-97832740D02*
X102015390Y-97880359D01*
X102015390Y-97880359D02*
X102063009Y-97927978D01*
X102063009Y-97927978D02*
X102110628Y-98023216D01*
X102110628Y-98023216D02*
X102110628Y-98118454D01*
X102110628Y-98118454D02*
X102063009Y-98213692D01*
X102063009Y-98213692D02*
X102015390Y-98261311D01*
X102015390Y-98261311D02*
X101920152Y-98308930D01*
X101920152Y-98308930D02*
X101682057Y-98308930D01*
X101682057Y-98308930D02*
X101539200Y-98261311D01*
X100729676Y-97356550D02*
X100824914Y-97308930D01*
X100824914Y-97308930D02*
X101015390Y-97308930D01*
X101015390Y-97308930D02*
X101110628Y-97356550D01*
X101110628Y-97356550D02*
X101158247Y-97451788D01*
X101158247Y-97451788D02*
X101158247Y-97832740D01*
X101158247Y-97832740D02*
X101110628Y-97927978D01*
X101110628Y-97927978D02*
X101015390Y-97975597D01*
X101015390Y-97975597D02*
X100824914Y-97975597D01*
X100824914Y-97975597D02*
X100729676Y-97927978D01*
X100729676Y-97927978D02*
X100682057Y-97832740D01*
X100682057Y-97832740D02*
X100682057Y-97737502D01*
X100682057Y-97737502D02*
X101158247Y-97642264D01*
X99872533Y-97356550D02*
X99967771Y-97308930D01*
X99967771Y-97308930D02*
X100158247Y-97308930D01*
X100158247Y-97308930D02*
X100253485Y-97356550D01*
X100253485Y-97356550D02*
X100301104Y-97451788D01*
X100301104Y-97451788D02*
X100301104Y-97832740D01*
X100301104Y-97832740D02*
X100253485Y-97927978D01*
X100253485Y-97927978D02*
X100158247Y-97975597D01*
X100158247Y-97975597D02*
X99967771Y-97975597D01*
X99967771Y-97975597D02*
X99872533Y-97927978D01*
X99872533Y-97927978D02*
X99824914Y-97832740D01*
X99824914Y-97832740D02*
X99824914Y-97737502D01*
X99824914Y-97737502D02*
X100301104Y-97642264D01*
X99015390Y-97356550D02*
X99110628Y-97308930D01*
X99110628Y-97308930D02*
X99301104Y-97308930D01*
X99301104Y-97308930D02*
X99396342Y-97356550D01*
X99396342Y-97356550D02*
X99443961Y-97451788D01*
X99443961Y-97451788D02*
X99443961Y-97832740D01*
X99443961Y-97832740D02*
X99396342Y-97927978D01*
X99396342Y-97927978D02*
X99301104Y-97975597D01*
X99301104Y-97975597D02*
X99110628Y-97975597D01*
X99110628Y-97975597D02*
X99015390Y-97927978D01*
X99015390Y-97927978D02*
X98967771Y-97832740D01*
X98967771Y-97832740D02*
X98967771Y-97737502D01*
X98967771Y-97737502D02*
X99443961Y-97642264D01*
X98110628Y-97308930D02*
X98110628Y-98308930D01*
X98110628Y-97356550D02*
X98205866Y-97308930D01*
X98205866Y-97308930D02*
X98396342Y-97308930D01*
X98396342Y-97308930D02*
X98491580Y-97356550D01*
X98491580Y-97356550D02*
X98539199Y-97404169D01*
X98539199Y-97404169D02*
X98586818Y-97499407D01*
X98586818Y-97499407D02*
X98586818Y-97785121D01*
X98586818Y-97785121D02*
X98539199Y-97880359D01*
X98539199Y-97880359D02*
X98491580Y-97927978D01*
X98491580Y-97927978D02*
X98396342Y-97975597D01*
X98396342Y-97975597D02*
X98205866Y-97975597D01*
X98205866Y-97975597D02*
X98110628Y-97927978D01*
X96920151Y-97356550D02*
X96777294Y-97308930D01*
X96777294Y-97308930D02*
X96539199Y-97308930D01*
X96539199Y-97308930D02*
X96443961Y-97356550D01*
X96443961Y-97356550D02*
X96396342Y-97404169D01*
X96396342Y-97404169D02*
X96348723Y-97499407D01*
X96348723Y-97499407D02*
X96348723Y-97594645D01*
X96348723Y-97594645D02*
X96396342Y-97689883D01*
X96396342Y-97689883D02*
X96443961Y-97737502D01*
X96443961Y-97737502D02*
X96539199Y-97785121D01*
X96539199Y-97785121D02*
X96729675Y-97832740D01*
X96729675Y-97832740D02*
X96824913Y-97880359D01*
X96824913Y-97880359D02*
X96872532Y-97927978D01*
X96872532Y-97927978D02*
X96920151Y-98023216D01*
X96920151Y-98023216D02*
X96920151Y-98118454D01*
X96920151Y-98118454D02*
X96872532Y-98213692D01*
X96872532Y-98213692D02*
X96824913Y-98261311D01*
X96824913Y-98261311D02*
X96729675Y-98308930D01*
X96729675Y-98308930D02*
X96491580Y-98308930D01*
X96491580Y-98308930D02*
X96348723Y-98261311D01*
X96063008Y-97975597D02*
X95682056Y-97975597D01*
X95920151Y-98308930D02*
X95920151Y-97451788D01*
X95920151Y-97451788D02*
X95872532Y-97356550D01*
X95872532Y-97356550D02*
X95777294Y-97308930D01*
X95777294Y-97308930D02*
X95682056Y-97308930D01*
X94920151Y-97975597D02*
X94920151Y-97308930D01*
X95348722Y-97975597D02*
X95348722Y-97451788D01*
X95348722Y-97451788D02*
X95301103Y-97356550D01*
X95301103Y-97356550D02*
X95205865Y-97308930D01*
X95205865Y-97308930D02*
X95063008Y-97308930D01*
X95063008Y-97308930D02*
X94967770Y-97356550D01*
X94967770Y-97356550D02*
X94920151Y-97404169D01*
X94015389Y-97308930D02*
X94015389Y-98308930D01*
X94015389Y-97356550D02*
X94110627Y-97308930D01*
X94110627Y-97308930D02*
X94301103Y-97308930D01*
X94301103Y-97308930D02*
X94396341Y-97356550D01*
X94396341Y-97356550D02*
X94443960Y-97404169D01*
X94443960Y-97404169D02*
X94491579Y-97499407D01*
X94491579Y-97499407D02*
X94491579Y-97785121D01*
X94491579Y-97785121D02*
X94443960Y-97880359D01*
X94443960Y-97880359D02*
X94396341Y-97927978D01*
X94396341Y-97927978D02*
X94301103Y-97975597D01*
X94301103Y-97975597D02*
X94110627Y-97975597D01*
X94110627Y-97975597D02*
X94015389Y-97927978D01*
X93539198Y-97308930D02*
X93539198Y-97975597D01*
X93539198Y-98308930D02*
X93586817Y-98261311D01*
X93586817Y-98261311D02*
X93539198Y-98213692D01*
X93539198Y-98213692D02*
X93491579Y-98261311D01*
X93491579Y-98261311D02*
X93539198Y-98308930D01*
X93539198Y-98308930D02*
X93539198Y-98213692D01*
X92920151Y-97308930D02*
X93015389Y-97356550D01*
X93015389Y-97356550D02*
X93063008Y-97404169D01*
X93063008Y-97404169D02*
X93110627Y-97499407D01*
X93110627Y-97499407D02*
X93110627Y-97785121D01*
X93110627Y-97785121D02*
X93063008Y-97880359D01*
X93063008Y-97880359D02*
X93015389Y-97927978D01*
X93015389Y-97927978D02*
X92920151Y-97975597D01*
X92920151Y-97975597D02*
X92777294Y-97975597D01*
X92777294Y-97975597D02*
X92682056Y-97927978D01*
X92682056Y-97927978D02*
X92634437Y-97880359D01*
X92634437Y-97880359D02*
X92586818Y-97785121D01*
X92586818Y-97785121D02*
X92586818Y-97499407D01*
X92586818Y-97499407D02*
X92634437Y-97404169D01*
X92634437Y-97404169D02*
X92682056Y-97356550D01*
X92682056Y-97356550D02*
X92777294Y-97308930D01*
X92777294Y-97308930D02*
X92920151Y-97308930D01*
X128815391Y-88770950D02*
X128958248Y-88818569D01*
X128958248Y-88818569D02*
X129196343Y-88818569D01*
X129196343Y-88818569D02*
X129291581Y-88770950D01*
X129291581Y-88770950D02*
X129339200Y-88723330D01*
X129339200Y-88723330D02*
X129386819Y-88628092D01*
X129386819Y-88628092D02*
X129386819Y-88532854D01*
X129386819Y-88532854D02*
X129339200Y-88437616D01*
X129339200Y-88437616D02*
X129291581Y-88389997D01*
X129291581Y-88389997D02*
X129196343Y-88342378D01*
X129196343Y-88342378D02*
X129005867Y-88294759D01*
X129005867Y-88294759D02*
X128910629Y-88247140D01*
X128910629Y-88247140D02*
X128863010Y-88199521D01*
X128863010Y-88199521D02*
X128815391Y-88104283D01*
X128815391Y-88104283D02*
X128815391Y-88009045D01*
X128815391Y-88009045D02*
X128863010Y-87913807D01*
X128863010Y-87913807D02*
X128910629Y-87866188D01*
X128910629Y-87866188D02*
X129005867Y-87818569D01*
X129005867Y-87818569D02*
X129243962Y-87818569D01*
X129243962Y-87818569D02*
X129386819Y-87866188D01*
X129720153Y-87818569D02*
X129958248Y-88818569D01*
X129958248Y-88818569D02*
X130148724Y-88104283D01*
X130148724Y-88104283D02*
X130339200Y-88818569D01*
X130339200Y-88818569D02*
X130577296Y-87818569D01*
X131101105Y-88247140D02*
X131005867Y-88199521D01*
X131005867Y-88199521D02*
X130958248Y-88151902D01*
X130958248Y-88151902D02*
X130910629Y-88056664D01*
X130910629Y-88056664D02*
X130910629Y-88009045D01*
X130910629Y-88009045D02*
X130958248Y-87913807D01*
X130958248Y-87913807D02*
X131005867Y-87866188D01*
X131005867Y-87866188D02*
X131101105Y-87818569D01*
X131101105Y-87818569D02*
X131291581Y-87818569D01*
X131291581Y-87818569D02*
X131386819Y-87866188D01*
X131386819Y-87866188D02*
X131434438Y-87913807D01*
X131434438Y-87913807D02*
X131482057Y-88009045D01*
X131482057Y-88009045D02*
X131482057Y-88056664D01*
X131482057Y-88056664D02*
X131434438Y-88151902D01*
X131434438Y-88151902D02*
X131386819Y-88199521D01*
X131386819Y-88199521D02*
X131291581Y-88247140D01*
X131291581Y-88247140D02*
X131101105Y-88247140D01*
X131101105Y-88247140D02*
X131005867Y-88294759D01*
X131005867Y-88294759D02*
X130958248Y-88342378D01*
X130958248Y-88342378D02*
X130910629Y-88437616D01*
X130910629Y-88437616D02*
X130910629Y-88628092D01*
X130910629Y-88628092D02*
X130958248Y-88723330D01*
X130958248Y-88723330D02*
X131005867Y-88770950D01*
X131005867Y-88770950D02*
X131101105Y-88818569D01*
X131101105Y-88818569D02*
X131291581Y-88818569D01*
X131291581Y-88818569D02*
X131386819Y-88770950D01*
X131386819Y-88770950D02*
X131434438Y-88723330D01*
X131434438Y-88723330D02*
X131482057Y-88628092D01*
X131482057Y-88628092D02*
X131482057Y-88437616D01*
X131482057Y-88437616D02*
X131434438Y-88342378D01*
X131434438Y-88342378D02*
X131386819Y-88294759D01*
X131386819Y-88294759D02*
X131291581Y-88247140D01*
X53977891Y-88789700D02*
X54120748Y-88837319D01*
X54120748Y-88837319D02*
X54358843Y-88837319D01*
X54358843Y-88837319D02*
X54454081Y-88789700D01*
X54454081Y-88789700D02*
X54501700Y-88742080D01*
X54501700Y-88742080D02*
X54549319Y-88646842D01*
X54549319Y-88646842D02*
X54549319Y-88551604D01*
X54549319Y-88551604D02*
X54501700Y-88456366D01*
X54501700Y-88456366D02*
X54454081Y-88408747D01*
X54454081Y-88408747D02*
X54358843Y-88361128D01*
X54358843Y-88361128D02*
X54168367Y-88313509D01*
X54168367Y-88313509D02*
X54073129Y-88265890D01*
X54073129Y-88265890D02*
X54025510Y-88218271D01*
X54025510Y-88218271D02*
X53977891Y-88123033D01*
X53977891Y-88123033D02*
X53977891Y-88027795D01*
X53977891Y-88027795D02*
X54025510Y-87932557D01*
X54025510Y-87932557D02*
X54073129Y-87884938D01*
X54073129Y-87884938D02*
X54168367Y-87837319D01*
X54168367Y-87837319D02*
X54406462Y-87837319D01*
X54406462Y-87837319D02*
X54549319Y-87884938D01*
X54882653Y-87837319D02*
X55120748Y-88837319D01*
X55120748Y-88837319D02*
X55311224Y-88123033D01*
X55311224Y-88123033D02*
X55501700Y-88837319D01*
X55501700Y-88837319D02*
X55739796Y-87837319D01*
X56025510Y-87837319D02*
X56692176Y-87837319D01*
X56692176Y-87837319D02*
X56263605Y-88837319D01*
X114875391Y-87436950D02*
X115018248Y-87484569D01*
X115018248Y-87484569D02*
X115256343Y-87484569D01*
X115256343Y-87484569D02*
X115351581Y-87436950D01*
X115351581Y-87436950D02*
X115399200Y-87389330D01*
X115399200Y-87389330D02*
X115446819Y-87294092D01*
X115446819Y-87294092D02*
X115446819Y-87198854D01*
X115446819Y-87198854D02*
X115399200Y-87103616D01*
X115399200Y-87103616D02*
X115351581Y-87055997D01*
X115351581Y-87055997D02*
X115256343Y-87008378D01*
X115256343Y-87008378D02*
X115065867Y-86960759D01*
X115065867Y-86960759D02*
X114970629Y-86913140D01*
X114970629Y-86913140D02*
X114923010Y-86865521D01*
X114923010Y-86865521D02*
X114875391Y-86770283D01*
X114875391Y-86770283D02*
X114875391Y-86675045D01*
X114875391Y-86675045D02*
X114923010Y-86579807D01*
X114923010Y-86579807D02*
X114970629Y-86532188D01*
X114970629Y-86532188D02*
X115065867Y-86484569D01*
X115065867Y-86484569D02*
X115303962Y-86484569D01*
X115303962Y-86484569D02*
X115446819Y-86532188D01*
X115780153Y-86484569D02*
X116018248Y-87484569D01*
X116018248Y-87484569D02*
X116208724Y-86770283D01*
X116208724Y-86770283D02*
X116399200Y-87484569D01*
X116399200Y-87484569D02*
X116637296Y-86484569D01*
X117446819Y-86484569D02*
X117256343Y-86484569D01*
X117256343Y-86484569D02*
X117161105Y-86532188D01*
X117161105Y-86532188D02*
X117113486Y-86579807D01*
X117113486Y-86579807D02*
X117018248Y-86722664D01*
X117018248Y-86722664D02*
X116970629Y-86913140D01*
X116970629Y-86913140D02*
X116970629Y-87294092D01*
X116970629Y-87294092D02*
X117018248Y-87389330D01*
X117018248Y-87389330D02*
X117065867Y-87436950D01*
X117065867Y-87436950D02*
X117161105Y-87484569D01*
X117161105Y-87484569D02*
X117351581Y-87484569D01*
X117351581Y-87484569D02*
X117446819Y-87436950D01*
X117446819Y-87436950D02*
X117494438Y-87389330D01*
X117494438Y-87389330D02*
X117542057Y-87294092D01*
X117542057Y-87294092D02*
X117542057Y-87055997D01*
X117542057Y-87055997D02*
X117494438Y-86960759D01*
X117494438Y-86960759D02*
X117446819Y-86913140D01*
X117446819Y-86913140D02*
X117351581Y-86865521D01*
X117351581Y-86865521D02*
X117161105Y-86865521D01*
X117161105Y-86865521D02*
X117065867Y-86913140D01*
X117065867Y-86913140D02*
X117018248Y-86960759D01*
X117018248Y-86960759D02*
X116970629Y-87055997D01*
X76775391Y-87436950D02*
X76918248Y-87484569D01*
X76918248Y-87484569D02*
X77156343Y-87484569D01*
X77156343Y-87484569D02*
X77251581Y-87436950D01*
X77251581Y-87436950D02*
X77299200Y-87389330D01*
X77299200Y-87389330D02*
X77346819Y-87294092D01*
X77346819Y-87294092D02*
X77346819Y-87198854D01*
X77346819Y-87198854D02*
X77299200Y-87103616D01*
X77299200Y-87103616D02*
X77251581Y-87055997D01*
X77251581Y-87055997D02*
X77156343Y-87008378D01*
X77156343Y-87008378D02*
X76965867Y-86960759D01*
X76965867Y-86960759D02*
X76870629Y-86913140D01*
X76870629Y-86913140D02*
X76823010Y-86865521D01*
X76823010Y-86865521D02*
X76775391Y-86770283D01*
X76775391Y-86770283D02*
X76775391Y-86675045D01*
X76775391Y-86675045D02*
X76823010Y-86579807D01*
X76823010Y-86579807D02*
X76870629Y-86532188D01*
X76870629Y-86532188D02*
X76965867Y-86484569D01*
X76965867Y-86484569D02*
X77203962Y-86484569D01*
X77203962Y-86484569D02*
X77346819Y-86532188D01*
X77680153Y-86484569D02*
X77918248Y-87484569D01*
X77918248Y-87484569D02*
X78108724Y-86770283D01*
X78108724Y-86770283D02*
X78299200Y-87484569D01*
X78299200Y-87484569D02*
X78537296Y-86484569D01*
X79394438Y-86484569D02*
X78918248Y-86484569D01*
X78918248Y-86484569D02*
X78870629Y-86960759D01*
X78870629Y-86960759D02*
X78918248Y-86913140D01*
X78918248Y-86913140D02*
X79013486Y-86865521D01*
X79013486Y-86865521D02*
X79251581Y-86865521D01*
X79251581Y-86865521D02*
X79346819Y-86913140D01*
X79346819Y-86913140D02*
X79394438Y-86960759D01*
X79394438Y-86960759D02*
X79442057Y-87055997D01*
X79442057Y-87055997D02*
X79442057Y-87294092D01*
X79442057Y-87294092D02*
X79394438Y-87389330D01*
X79394438Y-87389330D02*
X79346819Y-87436950D01*
X79346819Y-87436950D02*
X79251581Y-87484569D01*
X79251581Y-87484569D02*
X79013486Y-87484569D01*
X79013486Y-87484569D02*
X78918248Y-87436950D01*
X78918248Y-87436950D02*
X78870629Y-87389330D01*
X114875391Y-68386950D02*
X115018248Y-68434569D01*
X115018248Y-68434569D02*
X115256343Y-68434569D01*
X115256343Y-68434569D02*
X115351581Y-68386950D01*
X115351581Y-68386950D02*
X115399200Y-68339330D01*
X115399200Y-68339330D02*
X115446819Y-68244092D01*
X115446819Y-68244092D02*
X115446819Y-68148854D01*
X115446819Y-68148854D02*
X115399200Y-68053616D01*
X115399200Y-68053616D02*
X115351581Y-68005997D01*
X115351581Y-68005997D02*
X115256343Y-67958378D01*
X115256343Y-67958378D02*
X115065867Y-67910759D01*
X115065867Y-67910759D02*
X114970629Y-67863140D01*
X114970629Y-67863140D02*
X114923010Y-67815521D01*
X114923010Y-67815521D02*
X114875391Y-67720283D01*
X114875391Y-67720283D02*
X114875391Y-67625045D01*
X114875391Y-67625045D02*
X114923010Y-67529807D01*
X114923010Y-67529807D02*
X114970629Y-67482188D01*
X114970629Y-67482188D02*
X115065867Y-67434569D01*
X115065867Y-67434569D02*
X115303962Y-67434569D01*
X115303962Y-67434569D02*
X115446819Y-67482188D01*
X115780153Y-67434569D02*
X116018248Y-68434569D01*
X116018248Y-68434569D02*
X116208724Y-67720283D01*
X116208724Y-67720283D02*
X116399200Y-68434569D01*
X116399200Y-68434569D02*
X116637296Y-67434569D01*
X117446819Y-67767902D02*
X117446819Y-68434569D01*
X117208724Y-67386950D02*
X116970629Y-68101235D01*
X116970629Y-68101235D02*
X117589676Y-68101235D01*
X95825391Y-68386950D02*
X95968248Y-68434569D01*
X95968248Y-68434569D02*
X96206343Y-68434569D01*
X96206343Y-68434569D02*
X96301581Y-68386950D01*
X96301581Y-68386950D02*
X96349200Y-68339330D01*
X96349200Y-68339330D02*
X96396819Y-68244092D01*
X96396819Y-68244092D02*
X96396819Y-68148854D01*
X96396819Y-68148854D02*
X96349200Y-68053616D01*
X96349200Y-68053616D02*
X96301581Y-68005997D01*
X96301581Y-68005997D02*
X96206343Y-67958378D01*
X96206343Y-67958378D02*
X96015867Y-67910759D01*
X96015867Y-67910759D02*
X95920629Y-67863140D01*
X95920629Y-67863140D02*
X95873010Y-67815521D01*
X95873010Y-67815521D02*
X95825391Y-67720283D01*
X95825391Y-67720283D02*
X95825391Y-67625045D01*
X95825391Y-67625045D02*
X95873010Y-67529807D01*
X95873010Y-67529807D02*
X95920629Y-67482188D01*
X95920629Y-67482188D02*
X96015867Y-67434569D01*
X96015867Y-67434569D02*
X96253962Y-67434569D01*
X96253962Y-67434569D02*
X96396819Y-67482188D01*
X96730153Y-67434569D02*
X96968248Y-68434569D01*
X96968248Y-68434569D02*
X97158724Y-67720283D01*
X97158724Y-67720283D02*
X97349200Y-68434569D01*
X97349200Y-68434569D02*
X97587296Y-67434569D01*
X97873010Y-67434569D02*
X98492057Y-67434569D01*
X98492057Y-67434569D02*
X98158724Y-67815521D01*
X98158724Y-67815521D02*
X98301581Y-67815521D01*
X98301581Y-67815521D02*
X98396819Y-67863140D01*
X98396819Y-67863140D02*
X98444438Y-67910759D01*
X98444438Y-67910759D02*
X98492057Y-68005997D01*
X98492057Y-68005997D02*
X98492057Y-68244092D01*
X98492057Y-68244092D02*
X98444438Y-68339330D01*
X98444438Y-68339330D02*
X98396819Y-68386950D01*
X98396819Y-68386950D02*
X98301581Y-68434569D01*
X98301581Y-68434569D02*
X98015867Y-68434569D01*
X98015867Y-68434569D02*
X97920629Y-68386950D01*
X97920629Y-68386950D02*
X97873010Y-68339330D01*
X76775391Y-68386950D02*
X76918248Y-68434569D01*
X76918248Y-68434569D02*
X77156343Y-68434569D01*
X77156343Y-68434569D02*
X77251581Y-68386950D01*
X77251581Y-68386950D02*
X77299200Y-68339330D01*
X77299200Y-68339330D02*
X77346819Y-68244092D01*
X77346819Y-68244092D02*
X77346819Y-68148854D01*
X77346819Y-68148854D02*
X77299200Y-68053616D01*
X77299200Y-68053616D02*
X77251581Y-68005997D01*
X77251581Y-68005997D02*
X77156343Y-67958378D01*
X77156343Y-67958378D02*
X76965867Y-67910759D01*
X76965867Y-67910759D02*
X76870629Y-67863140D01*
X76870629Y-67863140D02*
X76823010Y-67815521D01*
X76823010Y-67815521D02*
X76775391Y-67720283D01*
X76775391Y-67720283D02*
X76775391Y-67625045D01*
X76775391Y-67625045D02*
X76823010Y-67529807D01*
X76823010Y-67529807D02*
X76870629Y-67482188D01*
X76870629Y-67482188D02*
X76965867Y-67434569D01*
X76965867Y-67434569D02*
X77203962Y-67434569D01*
X77203962Y-67434569D02*
X77346819Y-67482188D01*
X77680153Y-67434569D02*
X77918248Y-68434569D01*
X77918248Y-68434569D02*
X78108724Y-67720283D01*
X78108724Y-67720283D02*
X78299200Y-68434569D01*
X78299200Y-68434569D02*
X78537296Y-67434569D01*
X78870629Y-67529807D02*
X78918248Y-67482188D01*
X78918248Y-67482188D02*
X79013486Y-67434569D01*
X79013486Y-67434569D02*
X79251581Y-67434569D01*
X79251581Y-67434569D02*
X79346819Y-67482188D01*
X79346819Y-67482188D02*
X79394438Y-67529807D01*
X79394438Y-67529807D02*
X79442057Y-67625045D01*
X79442057Y-67625045D02*
X79442057Y-67720283D01*
X79442057Y-67720283D02*
X79394438Y-67863140D01*
X79394438Y-67863140D02*
X78823010Y-68434569D01*
X78823010Y-68434569D02*
X79442057Y-68434569D01*
X95825391Y-49336950D02*
X95968248Y-49384569D01*
X95968248Y-49384569D02*
X96206343Y-49384569D01*
X96206343Y-49384569D02*
X96301581Y-49336950D01*
X96301581Y-49336950D02*
X96349200Y-49289330D01*
X96349200Y-49289330D02*
X96396819Y-49194092D01*
X96396819Y-49194092D02*
X96396819Y-49098854D01*
X96396819Y-49098854D02*
X96349200Y-49003616D01*
X96349200Y-49003616D02*
X96301581Y-48955997D01*
X96301581Y-48955997D02*
X96206343Y-48908378D01*
X96206343Y-48908378D02*
X96015867Y-48860759D01*
X96015867Y-48860759D02*
X95920629Y-48813140D01*
X95920629Y-48813140D02*
X95873010Y-48765521D01*
X95873010Y-48765521D02*
X95825391Y-48670283D01*
X95825391Y-48670283D02*
X95825391Y-48575045D01*
X95825391Y-48575045D02*
X95873010Y-48479807D01*
X95873010Y-48479807D02*
X95920629Y-48432188D01*
X95920629Y-48432188D02*
X96015867Y-48384569D01*
X96015867Y-48384569D02*
X96253962Y-48384569D01*
X96253962Y-48384569D02*
X96396819Y-48432188D01*
X96730153Y-48384569D02*
X96968248Y-49384569D01*
X96968248Y-49384569D02*
X97158724Y-48670283D01*
X97158724Y-48670283D02*
X97349200Y-49384569D01*
X97349200Y-49384569D02*
X97587296Y-48384569D01*
X98492057Y-49384569D02*
X97920629Y-49384569D01*
X98206343Y-49384569D02*
X98206343Y-48384569D01*
X98206343Y-48384569D02*
X98111105Y-48527426D01*
X98111105Y-48527426D02*
X98015867Y-48622664D01*
X98015867Y-48622664D02*
X97920629Y-48670283D01*
%TO.C,U1*%
D12*
X88448724Y-87763750D02*
X88448724Y-104763750D01*
X92848724Y-100834480D02*
X101848724Y-100834480D01*
X92848724Y-108187780D02*
X92848724Y-100834480D01*
X106248724Y-104763750D02*
X106248724Y-87763750D01*
X101848724Y-108187780D02*
X92848724Y-108187780D01*
X90448724Y-106762840D02*
X104248724Y-106762840D01*
X101848724Y-100834480D02*
X101848724Y-108187780D01*
X104248724Y-85763750D02*
X90448724Y-85763750D01*
D13*
X88448724Y-87763750D02*
G75*
G02*
X90448724Y-85763750I2000000J0D01*
G01*
X90448724Y-106763750D02*
G75*
G02*
X88448724Y-104763750I44610J2044610D01*
G01*
X104248724Y-85763750D02*
G75*
G02*
X106248724Y-87763750I-44857J-2044857D01*
G01*
X106248724Y-104763750D02*
G75*
G02*
X104248724Y-106763750I-2044612J44612D01*
G01*
D14*
X108475724Y-105063750D02*
G75*
G02*
X108221724Y-105063750I-127000J0D01*
G01*
X108221724Y-105063750D02*
G75*
G02*
X108475724Y-105063750I127000J0D01*
G01*
D15*
X88459232Y-87742176D02*
X88461011Y-87692900D01*
X88464059Y-87644132D01*
X88468123Y-87595111D01*
X88473456Y-87546343D01*
X88480060Y-87497575D01*
X88487680Y-87449060D01*
X88496571Y-87400800D01*
X88506476Y-87352795D01*
X88459232Y-87742176D01*
X106236439Y-104825455D02*
X106233391Y-104874223D01*
X106229327Y-104923244D01*
X106236439Y-104825455D01*
%TO.C,SW8*%
D13*
X134348724Y-95563750D02*
X135348724Y-95563750D01*
X134848724Y-95063750D02*
X134848724Y-96063750D01*
X140948724Y-99063750D02*
X140948724Y-101463750D01*
X140948724Y-94263750D02*
X140948724Y-96863750D01*
X140948724Y-89663750D02*
X140948724Y-92063750D01*
X127648724Y-91463750D02*
X127348724Y-91763750D01*
X127048724Y-91463750D02*
X127648724Y-91463750D01*
X127348724Y-91763750D02*
X127048724Y-91463750D01*
X128748724Y-89663750D02*
X128748724Y-101463750D01*
X132848724Y-89663750D02*
X128748724Y-89663750D01*
X132848724Y-101463750D02*
X128748724Y-101463750D01*
X140948724Y-101463750D02*
X136848724Y-101463750D01*
X136848724Y-89663750D02*
X140948724Y-89663750D01*
X137848724Y-95563750D02*
G75*
G02*
X131848724Y-95563750I-3000000J0D01*
G01*
X131848724Y-95563750D02*
G75*
G02*
X137848724Y-95563750I3000000J0D01*
G01*
%TO.C,SW7*%
X59511224Y-95582500D02*
X60511224Y-95582500D01*
X60011224Y-95082500D02*
X60011224Y-96082500D01*
X66111224Y-99082500D02*
X66111224Y-101482500D01*
X66111224Y-94282500D02*
X66111224Y-96882500D01*
X66111224Y-89682500D02*
X66111224Y-92082500D01*
X52811224Y-91482500D02*
X52511224Y-91782500D01*
X52211224Y-91482500D02*
X52811224Y-91482500D01*
X52511224Y-91782500D02*
X52211224Y-91482500D01*
X53911224Y-89682500D02*
X53911224Y-101482500D01*
X58011224Y-89682500D02*
X53911224Y-89682500D01*
X58011224Y-101482500D02*
X53911224Y-101482500D01*
X66111224Y-101482500D02*
X62011224Y-101482500D01*
X62011224Y-89682500D02*
X66111224Y-89682500D01*
X63011224Y-95582500D02*
G75*
G02*
X57011224Y-95582500I-3000000J0D01*
G01*
X57011224Y-95582500D02*
G75*
G02*
X63011224Y-95582500I3000000J0D01*
G01*
%TO.C,SW6*%
X109223724Y-87918750D02*
X123193724Y-87918750D01*
X109223724Y-101888750D02*
X109223724Y-87918750D01*
X123193724Y-87918750D02*
X123193724Y-101888750D01*
X123193724Y-101888750D02*
X109223724Y-101888750D01*
%TO.C,SW5*%
X71123724Y-87918750D02*
X85093724Y-87918750D01*
X71123724Y-101888750D02*
X71123724Y-87918750D01*
X85093724Y-87918750D02*
X85093724Y-101888750D01*
X85093724Y-101888750D02*
X71123724Y-101888750D01*
%TO.C,SW4*%
X109223724Y-68868750D02*
X123193724Y-68868750D01*
X109223724Y-82838750D02*
X109223724Y-68868750D01*
X123193724Y-68868750D02*
X123193724Y-82838750D01*
X123193724Y-82838750D02*
X109223724Y-82838750D01*
%TO.C,SW3*%
X90173724Y-68868750D02*
X104143724Y-68868750D01*
X90173724Y-82838750D02*
X90173724Y-68868750D01*
X104143724Y-68868750D02*
X104143724Y-82838750D01*
X104143724Y-82838750D02*
X90173724Y-82838750D01*
%TO.C,SW2*%
X71123724Y-68868750D02*
X85093724Y-68868750D01*
X71123724Y-82838750D02*
X71123724Y-68868750D01*
X85093724Y-68868750D02*
X85093724Y-82838750D01*
X85093724Y-82838750D02*
X71123724Y-82838750D01*
%TO.C,SW1*%
X90173724Y-49818750D02*
X104143724Y-49818750D01*
X90173724Y-63788750D02*
X90173724Y-49818750D01*
X104143724Y-49818750D02*
X104143724Y-63788750D01*
X104143724Y-63788750D02*
X90173724Y-63788750D01*
%TD*%
M02*
