%TF.GenerationSoftware,KiCad,Pcbnew,10.0.6*%
%TF.CreationDate,2026-09-05T00:02:13+05:30*%
%TF.ProjectId,hackpad_v2,6861636b-7061-4645-9f76-322e6b696361,rev?*%
%TF.SameCoordinates,Original*%
%TF.FileFunction,Soldermask,Top*%
%TF.FilePolarity,Negative*%
%FSLAX46Y46*%
G04 Gerber Fmt 4.6, Leading zero omitted, Abs format (unit mm)*
G04 Created by KiCad (PCBNEW 10.0.6) date 2026-09-05 00:02:13*
%MOMM*%
%LPD*%
G01*
G04 APERTURE LIST*
G04 Aperture macros list*
%AMRoundRect*
0 Rectangle with rounded corners*
0 $1 Rounding radius*
0 $2 $3 $4 $5 $6 $7 $8 $9 X,Y pos of 4 corners*
0 Add a 4 corners polygon primitive as box body*
4,1,4,$2,$3,$4,$5,$6,$7,$8,$9,$2,$3,0*
0 Add four circle primitives for the rounded corners*
1,1,$1+$1,$2,$3*
1,1,$1+$1,$4,$5*
1,1,$1+$1,$6,$7*
1,1,$1+$1,$8,$9*
0 Add four rect primitives between the rounded corners*
20,1,$1+$1,$2,$3,$4,$5,0*
20,1,$1+$1,$4,$5,$6,$7,0*
20,1,$1+$1,$6,$7,$8,$9,0*
20,1,$1+$1,$8,$9,$2,$3,0*%
G04 Aperture macros list end*
%ADD10C,1.600000*%
%ADD11RoundRect,0.250000X0.550000X-0.550000X0.550000X0.550000X-0.550000X0.550000X-0.550000X-0.550000X0*%
%ADD12R,3.500000X1.700000*%
%ADD13O,3.600000X1.700000*%
%ADD14O,3.700000X1.700000*%
%ADD15C,2.000000*%
%ADD16R,3.200000X2.000000*%
%ADD17R,2.000000X2.000000*%
%ADD18C,1.700000*%
%ADD19C,4.000000*%
%ADD20C,2.200000*%
G04 APERTURE END LIST*
D10*
%TO.C,D1*%
X107348724Y-53263750D03*
D11*
X107348724Y-60883750D03*
%TD*%
D12*
%TO.C,U1*%
X105973724Y-103883750D03*
D13*
X105973724Y-101343750D03*
X105973724Y-98803750D03*
X105973724Y-96263750D03*
X105973724Y-93723750D03*
X105973724Y-91183750D03*
X105973724Y-88643750D03*
X88723724Y-88643750D03*
X88723724Y-91183750D03*
X88723724Y-93723750D03*
D14*
X88723724Y-96263750D03*
X88723724Y-98803750D03*
X88723724Y-101343750D03*
X88723724Y-103883750D03*
%TD*%
D15*
%TO.C,SW8*%
X141848724Y-98063750D03*
X141848724Y-93063750D03*
D16*
X134848724Y-101163750D03*
X134848724Y-89963750D03*
D15*
X127348724Y-98063750D03*
X127348724Y-95563750D03*
D17*
X127348724Y-93063750D03*
%TD*%
D15*
%TO.C,SW7*%
X67011224Y-98082500D03*
X67011224Y-93082500D03*
D16*
X60011224Y-101182500D03*
X60011224Y-89982500D03*
D15*
X52511224Y-98082500D03*
X52511224Y-95582500D03*
D17*
X52511224Y-93082500D03*
%TD*%
D18*
%TO.C,SW6*%
X111128724Y-94903750D03*
D19*
X116208724Y-94903750D03*
D18*
X121288724Y-94903750D03*
D20*
X118748724Y-89823750D03*
X112398724Y-92363750D03*
%TD*%
D18*
%TO.C,SW5*%
X73028724Y-94903750D03*
D19*
X78108724Y-94903750D03*
D18*
X83188724Y-94903750D03*
D20*
X80648724Y-89823750D03*
X74298724Y-92363750D03*
%TD*%
D18*
%TO.C,SW4*%
X111128724Y-75853750D03*
D19*
X116208724Y-75853750D03*
D18*
X121288724Y-75853750D03*
D20*
X118748724Y-70773750D03*
X112398724Y-73313750D03*
%TD*%
D18*
%TO.C,SW3*%
X92078724Y-75853750D03*
D19*
X97158724Y-75853750D03*
D18*
X102238724Y-75853750D03*
D20*
X99698724Y-70773750D03*
X93348724Y-73313750D03*
%TD*%
D18*
%TO.C,SW2*%
X73028724Y-75853750D03*
D19*
X78108724Y-75853750D03*
D18*
X83188724Y-75853750D03*
D20*
X80648724Y-70773750D03*
X74298724Y-73313750D03*
%TD*%
D18*
%TO.C,SW1*%
X92078724Y-56803750D03*
D19*
X97158724Y-56803750D03*
D18*
X102238724Y-56803750D03*
D20*
X99698724Y-51723750D03*
X93348724Y-54263750D03*
%TD*%
D11*
%TO.C,D6*%
X125348724Y-99073750D03*
D10*
X125348724Y-91453750D03*
%TD*%
D11*
%TO.C,D5*%
X69348724Y-99073750D03*
D10*
X69348724Y-91453750D03*
%TD*%
D11*
%TO.C,D4*%
X125348724Y-79883750D03*
D10*
X125348724Y-72263750D03*
%TD*%
D11*
%TO.C,D3*%
X106348724Y-79883750D03*
D10*
X106348724Y-72263750D03*
%TD*%
D11*
%TO.C,D2*%
X87348724Y-79883750D03*
D10*
X87348724Y-72263750D03*
%TD*%
M02*
