%TF.GenerationSoftware,KiCad,Pcbnew,10.0.6*%
%TF.CreationDate,2026-09-05T00:02:13+05:30*%
%TF.ProjectId,hackpad_v2,6861636b-7061-4645-9f76-322e6b696361,rev?*%
%TF.SameCoordinates,Original*%
%TF.FileFunction,Copper,L2,Bot*%
%TF.FilePolarity,Positive*%
%FSLAX46Y46*%
G04 Gerber Fmt 4.6, Leading zero omitted, Abs format (unit mm)*
G04 Created by KiCad (PCBNEW 10.0.6) date 2026-09-05 00:02:13*
%MOMM*%
%LPD*%
G01*
G04 APERTURE LIST*
G04 Aperture macros list*
%AMRoundRect*
0 Rectangle with rounded corners*
0 $1 Rounding radius*
0 $2 $3 $4 $5 $6 $7 $8 $9 X,Y pos of 4 corners*
0 Add a 4 corners polygon primitive as box body*
4,1,4,$2,$3,$4,$5,$6,$7,$8,$9,$2,$3,0*
0 Add four circle primitives for the rounded corners*
1,1,$1+$1,$2,$3*
1,1,$1+$1,$4,$5*
1,1,$1+$1,$6,$7*
1,1,$1+$1,$8,$9*
0 Add four rect primitives between the rounded corners*
20,1,$1+$1,$2,$3,$4,$5,0*
20,1,$1+$1,$4,$5,$6,$7,0*
20,1,$1+$1,$6,$7,$8,$9,0*
20,1,$1+$1,$8,$9,$2,$3,0*%
G04 Aperture macros list end*
%TA.AperFunction,ComponentPad*%
%ADD10C,1.600000*%
%TD*%
%TA.AperFunction,ComponentPad*%
%ADD11RoundRect,0.250000X0.550000X-0.550000X0.550000X0.550000X-0.550000X0.550000X-0.550000X-0.550000X0*%
%TD*%
%TA.AperFunction,ComponentPad*%
%ADD12R,3.500000X1.700000*%
%TD*%
%TA.AperFunction,ComponentPad*%
%ADD13O,3.600000X1.700000*%
%TD*%
%TA.AperFunction,ComponentPad*%
%ADD14O,3.700000X1.700000*%
%TD*%
%TA.AperFunction,ComponentPad*%
%ADD15C,2.000000*%
%TD*%
%TA.AperFunction,ComponentPad*%
%ADD16R,3.200000X2.000000*%
%TD*%
%TA.AperFunction,ComponentPad*%
%ADD17R,2.000000X2.000000*%
%TD*%
%TA.AperFunction,ComponentPad*%
%ADD18C,2.200000*%
%TD*%
%TA.AperFunction,Conductor*%
%ADD19C,0.200000*%
%TD*%
G04 APERTURE END LIST*
D10*
%TO.P,D1,2,A_2*%
%TO.N,Net-(D1-A)*%
X107348724Y-53263750D03*
D11*
%TO.P,D1,1,K_1*%
%TO.N,/Row 1*%
X107348724Y-60883750D03*
%TD*%
D12*
%TO.P,U1,1,PA02_A0_D0_1*%
%TO.N,/Row 1*%
X105973724Y-103883750D03*
D13*
%TO.P,U1,2,PA4_A1_D1_2*%
%TO.N,/Row 2*%
X105973724Y-101343750D03*
%TO.P,U1,3,PA10_A2_D2_3*%
%TO.N,/Column 1*%
X105973724Y-98803750D03*
%TO.P,U1,4,PA11_A3_D3_4*%
%TO.N,/Column 2*%
X105973724Y-96263750D03*
%TO.P,U1,5,PA8_A4_D4_SDA_5*%
%TO.N,/Column 3*%
X105973724Y-93723750D03*
%TO.P,U1,6,PA9_A5_D5_SCL_6*%
%TO.N,/ENC_L_A*%
X105973724Y-91183750D03*
%TO.P,U1,7,PB08_A6_D6_TX_7*%
%TO.N,/ENC_L_B*%
X105973724Y-88643750D03*
%TO.P,U1,8,PB09_A7_D7_RX_8*%
%TO.N,/ENC_L_SW*%
X88723724Y-88643750D03*
%TO.P,U1,9,PA7_A8_D8_SCK_9*%
%TO.N,/ENC_R_A*%
X88723724Y-91183750D03*
%TO.P,U1,10,PA5_A9_D9_MISO_10*%
%TO.N,/ENC_R_B*%
X88723724Y-93723750D03*
D14*
%TO.P,U1,11,PA6_A10_D10_MOSI_11*%
%TO.N,/ENC_R_SW*%
X88723724Y-96263750D03*
%TO.P,U1,12,3V3_12*%
%TO.N,unconnected-(U1-3V3-Pad12)*%
X88723724Y-98803750D03*
%TO.P,U1,13,GND_13*%
%TO.N,GND*%
X88723724Y-101343750D03*
%TO.P,U1,14,5V_14*%
%TO.N,unconnected-(U1-5V-Pad14)*%
X88723724Y-103883750D03*
%TD*%
D15*
%TO.P,SW8,S1,S1_S1*%
%TO.N,/ENC_R_SW*%
X141848724Y-98063750D03*
%TO.P,SW8,S2,S2_S2*%
%TO.N,GND*%
X141848724Y-93063750D03*
D16*
%TO.P,SW8,MP*%
%TO.N,N/C*%
X134848724Y-101163750D03*
X134848724Y-89963750D03*
D15*
%TO.P,SW8,B,B_B*%
%TO.N,/ENC_R_B*%
X127348724Y-98063750D03*
%TO.P,SW8,C,C_C*%
%TO.N,GND*%
X127348724Y-95563750D03*
D17*
%TO.P,SW8,A,A_A*%
%TO.N,/ENC_R_A*%
X127348724Y-93063750D03*
%TD*%
D15*
%TO.P,SW7,S1,S1_S1*%
%TO.N,/ENC_L_SW*%
X67011224Y-98082500D03*
%TO.P,SW7,S2,S2_S2*%
%TO.N,GND*%
X67011224Y-93082500D03*
D16*
%TO.P,SW7,MP*%
%TO.N,N/C*%
X60011224Y-101182500D03*
X60011224Y-89982500D03*
D15*
%TO.P,SW7,B,B_B*%
%TO.N,/ENC_L_B*%
X52511224Y-98082500D03*
%TO.P,SW7,C,C_C*%
%TO.N,GND*%
X52511224Y-95582500D03*
D17*
%TO.P,SW7,A,A_A*%
%TO.N,/ENC_L_A*%
X52511224Y-93082500D03*
%TD*%
D18*
%TO.P,SW6,1,1_1*%
%TO.N,/Column 3*%
X118748724Y-89823750D03*
%TO.P,SW6,2,2_2*%
%TO.N,Net-(D6-A)*%
X112398724Y-92363750D03*
%TD*%
%TO.P,SW5,1,1_1*%
%TO.N,/Column 2*%
X80648724Y-89823750D03*
%TO.P,SW5,2,2_2*%
%TO.N,Net-(D5-A)*%
X74298724Y-92363750D03*
%TD*%
%TO.P,SW4,1,1_1*%
%TO.N,/Column 1*%
X118748724Y-70773750D03*
%TO.P,SW4,2,2_2*%
%TO.N,Net-(D4-A)*%
X112398724Y-73313750D03*
%TD*%
%TO.P,SW3,1,1_1*%
%TO.N,/Column 3*%
X99698724Y-70773750D03*
%TO.P,SW3,2,2_2*%
%TO.N,Net-(D3-A)*%
X93348724Y-73313750D03*
%TD*%
%TO.P,SW2,1,1_1*%
%TO.N,/Column 2*%
X80648724Y-70773750D03*
%TO.P,SW2,2,2_2*%
%TO.N,Net-(D2-A)*%
X74298724Y-73313750D03*
%TD*%
%TO.P,SW1,1,1_1*%
%TO.N,/Column 1*%
X99698724Y-51723750D03*
%TO.P,SW1,2,2_2*%
%TO.N,Net-(D1-A)*%
X93348724Y-54263750D03*
%TD*%
D11*
%TO.P,D6,1,K_1*%
%TO.N,/Row 2*%
X125348724Y-99073750D03*
D10*
%TO.P,D6,2,A_2*%
%TO.N,Net-(D6-A)*%
X125348724Y-91453750D03*
%TD*%
D11*
%TO.P,D5,1,K_1*%
%TO.N,/Row 2*%
X69348724Y-99073750D03*
D10*
%TO.P,D5,2,A_2*%
%TO.N,Net-(D5-A)*%
X69348724Y-91453750D03*
%TD*%
D11*
%TO.P,D4,1,K_1*%
%TO.N,/Row 2*%
X125348724Y-79883750D03*
D10*
%TO.P,D4,2,A_2*%
%TO.N,Net-(D4-A)*%
X125348724Y-72263750D03*
%TD*%
D11*
%TO.P,D3,1,K_1*%
%TO.N,/Row 1*%
X106348724Y-79883750D03*
D10*
%TO.P,D3,2,A_2*%
%TO.N,Net-(D3-A)*%
X106348724Y-72263750D03*
%TD*%
D11*
%TO.P,D2,1,K_1*%
%TO.N,/Row 1*%
X87348724Y-79883750D03*
D10*
%TO.P,D2,2,A_2*%
%TO.N,Net-(D2-A)*%
X87348724Y-72263750D03*
%TD*%
%TO.N,/Row 2*%
D19*
X125348724Y-79883750D02*
X124248724Y-80983750D01*
X124248724Y-80983750D02*
X124248724Y-97973750D01*
X124248724Y-97973750D02*
X125348724Y-99073750D01*
%TO.N,/Row 1*%
X89723724Y-88643750D02*
X98483724Y-79883750D01*
X98483724Y-79883750D02*
X106348724Y-79883750D01*
%TO.N,/ENC_L_A*%
X52511224Y-93082500D02*
X51211224Y-94382500D01*
X51211224Y-94382500D02*
X51211224Y-98620978D01*
X51211224Y-98620978D02*
X51972746Y-99382500D01*
X51972746Y-99382500D02*
X63872746Y-99382500D01*
X63872746Y-99382500D02*
X65833996Y-101343750D01*
X65833996Y-101343750D02*
X89723724Y-101343750D01*
%TO.N,/Column 3*%
X99698724Y-70773750D02*
X118748724Y-89823750D01*
%TO.N,/Column 2*%
X80648724Y-70773750D02*
X80648724Y-89823750D01*
%TO.N,/Column 1*%
X99698724Y-51723750D02*
X101254358Y-51723750D01*
X101254358Y-51723750D02*
X118748724Y-69218116D01*
X118748724Y-69218116D02*
X118748724Y-70773750D01*
%TO.N,GND*%
X127348724Y-95563750D02*
X129848724Y-93063750D01*
X129848724Y-93063750D02*
X141848724Y-93063750D01*
X104973724Y-91183750D02*
X105193724Y-90963750D01*
X67011224Y-93082500D02*
X73037575Y-93082500D01*
X73037575Y-93082500D02*
X73718825Y-93763750D01*
X73718825Y-93763750D02*
X75848724Y-93763750D01*
X75848724Y-93763750D02*
X77278724Y-92333750D01*
X77278724Y-92333750D02*
X103823724Y-92333750D01*
X103823724Y-92333750D02*
X104973724Y-91183750D01*
X52511224Y-95582500D02*
X55011224Y-93082500D01*
X55011224Y-93082500D02*
X67011224Y-93082500D01*
%TD*%
%TA.AperFunction,NonConductor*%
G36*
X111237284Y-44700185D02*
G01*
X111267495Y-44727568D01*
X131772260Y-70647788D01*
X145910432Y-88519952D01*
X145945250Y-88563965D01*
X145971404Y-88628755D01*
X145972000Y-88640897D01*
X145972000Y-109230500D01*
X145952315Y-109297539D01*
X145899511Y-109343294D01*
X145848000Y-109354500D01*
X49097000Y-109354500D01*
X49029961Y-109334815D01*
X48984206Y-109282011D01*
X48973000Y-109230500D01*
X48973000Y-98700032D01*
X50610722Y-98700032D01*
X50610723Y-98700035D01*
X50651647Y-98852763D01*
X50655617Y-98859639D01*
X50655618Y-98859640D01*
X50655618Y-98859641D01*
X50730701Y-98989690D01*
X50730705Y-98989695D01*
X50849573Y-99108563D01*
X50849578Y-99108567D01*
X51604030Y-99863020D01*
X51604032Y-99863021D01*
X51604036Y-99863024D01*
X51705172Y-99921414D01*
X51740962Y-99942077D01*
X51893689Y-99983001D01*
X51893691Y-99983001D01*
X52059400Y-99983001D01*
X52059416Y-99983000D01*
X57788980Y-99983000D01*
X57856019Y-100002685D01*
X57901774Y-100055489D01*
X57912269Y-100120252D01*
X57910724Y-100134627D01*
X57910724Y-100134633D01*
X57910724Y-100134634D01*
X57910724Y-102230370D01*
X57910725Y-102230376D01*
X57917132Y-102289983D01*
X57967426Y-102424828D01*
X57967430Y-102424835D01*
X58053676Y-102540044D01*
X58053679Y-102540047D01*
X58168888Y-102626293D01*
X58168895Y-102626297D01*
X58303741Y-102676591D01*
X58303740Y-102676591D01*
X58310668Y-102677335D01*
X58363351Y-102683000D01*
X61659096Y-102682999D01*
X61718707Y-102676591D01*
X61853555Y-102626296D01*
X61968770Y-102540046D01*
X62055020Y-102424831D01*
X62105315Y-102289983D01*
X62111724Y-102230373D01*
X62111723Y-100134628D01*
X62110178Y-100120252D01*
X62122585Y-100051493D01*
X62170197Y-100000357D01*
X62233468Y-99983000D01*
X63572649Y-99983000D01*
X63639688Y-100002685D01*
X63660330Y-100019319D01*
X65349135Y-101708124D01*
X65349145Y-101708135D01*
X65353475Y-101712465D01*
X65353476Y-101712466D01*
X65465280Y-101824270D01*
X65465282Y-101824271D01*
X65465286Y-101824274D01*
X65602205Y-101903323D01*
X65602212Y-101903327D01*
X65714015Y-101933284D01*
X65754938Y-101944250D01*
X65754939Y-101944250D01*
X86438005Y-101944250D01*
X86505044Y-101963935D01*
X86548489Y-102011955D01*
X86568671Y-102051564D01*
X86568672Y-102051565D01*
X86693614Y-102223536D01*
X86843937Y-102373859D01*
X87015906Y-102498800D01*
X87024670Y-102503266D01*
X87075466Y-102551241D01*
X87092260Y-102619062D01*
X87069722Y-102685197D01*
X87024670Y-102724234D01*
X87015906Y-102728699D01*
X86843937Y-102853640D01*
X86693614Y-103003963D01*
X86568675Y-103175929D01*
X86472168Y-103365335D01*
X86406477Y-103567510D01*
X86373224Y-103777463D01*
X86373224Y-103990036D01*
X86406477Y-104199989D01*
X86472168Y-104402164D01*
X86568675Y-104591570D01*
X86693614Y-104763536D01*
X86843937Y-104913859D01*
X87015903Y-105038798D01*
X87015905Y-105038799D01*
X87015908Y-105038801D01*
X87205312Y-105135307D01*
X87407481Y-105200996D01*
X87617437Y-105234250D01*
X87617438Y-105234250D01*
X89830010Y-105234250D01*
X89830011Y-105234250D01*
X90039967Y-105200996D01*
X90242136Y-105135307D01*
X90431540Y-105038801D01*
X90517862Y-104976085D01*
X90603510Y-104913859D01*
X90603512Y-104913856D01*
X90603516Y-104913854D01*
X90753828Y-104763542D01*
X90753830Y-104763538D01*
X90753833Y-104763536D01*
X90878772Y-104591570D01*
X90878771Y-104591570D01*
X90878775Y-104591566D01*
X90975281Y-104402162D01*
X91040970Y-104199993D01*
X91074224Y-103990037D01*
X91074224Y-103777463D01*
X91040970Y-103567507D01*
X90975281Y-103365338D01*
X90878775Y-103175934D01*
X90878773Y-103175931D01*
X90878772Y-103175929D01*
X90753833Y-103003963D01*
X90603510Y-102853640D01*
X90431544Y-102728701D01*
X90430839Y-102728341D01*
X90422778Y-102724235D01*
X90371983Y-102676262D01*
X90355187Y-102608442D01*
X90377723Y-102542306D01*
X90422778Y-102503265D01*
X90431540Y-102498801D01*
X90502581Y-102447187D01*
X90603510Y-102373859D01*
X90603512Y-102373856D01*
X90603516Y-102373854D01*
X90753828Y-102223542D01*
X90753830Y-102223538D01*
X90753833Y-102223536D01*
X90878772Y-102051570D01*
X90878771Y-102051570D01*
X90878775Y-102051566D01*
X90975281Y-101862162D01*
X91040970Y-101659993D01*
X91074224Y-101450037D01*
X91074224Y-101237463D01*
X91040970Y-101027507D01*
X90975281Y-100825338D01*
X90878775Y-100635934D01*
X90878773Y-100635931D01*
X90878772Y-100635929D01*
X90753833Y-100463963D01*
X90603510Y-100313640D01*
X90431544Y-100188701D01*
X90430839Y-100188341D01*
X90422778Y-100184235D01*
X90371983Y-100136262D01*
X90355187Y-100068442D01*
X90377723Y-100002306D01*
X90422778Y-99963265D01*
X90431540Y-99958801D01*
X90563367Y-99863024D01*
X90603510Y-99833859D01*
X90603512Y-99833856D01*
X90603516Y-99833854D01*
X90753828Y-99683542D01*
X90753830Y-99683538D01*
X90753833Y-99683536D01*
X90878772Y-99511570D01*
X90878771Y-99511570D01*
X90878775Y-99511566D01*
X90975281Y-99322162D01*
X91040970Y-99119993D01*
X91074224Y-98910037D01*
X91074224Y-98697463D01*
X91040970Y-98487507D01*
X90975281Y-98285338D01*
X90878775Y-98095934D01*
X90878773Y-98095931D01*
X90878772Y-98095929D01*
X90753833Y-97923963D01*
X90603510Y-97773640D01*
X90431544Y-97648701D01*
X90430839Y-97648341D01*
X90422778Y-97644235D01*
X90371983Y-97596262D01*
X90355187Y-97528442D01*
X90377723Y-97462306D01*
X90422778Y-97423265D01*
X90431540Y-97418801D01*
X90453513Y-97402836D01*
X90603510Y-97293859D01*
X90603512Y-97293856D01*
X90603516Y-97293854D01*
X90753828Y-97143542D01*
X90753830Y-97143538D01*
X90753833Y-97143536D01*
X90878772Y-96971570D01*
X90878771Y-96971570D01*
X90878775Y-96971566D01*
X90975281Y-96782162D01*
X91040970Y-96579993D01*
X91074224Y-96370037D01*
X91074224Y-96157463D01*
X91040970Y-95947507D01*
X90975281Y-95745338D01*
X90878775Y-95555934D01*
X90878773Y-95555931D01*
X90878772Y-95555929D01*
X90753833Y-95383963D01*
X90603510Y-95233640D01*
X90431544Y-95108701D01*
X90396454Y-95090822D01*
X90345658Y-95042848D01*
X90328863Y-94975027D01*
X90351400Y-94908892D01*
X90379864Y-94880018D01*
X90381536Y-94878802D01*
X90381540Y-94878801D01*
X90553516Y-94753854D01*
X90703828Y-94603542D01*
X90703830Y-94603538D01*
X90703833Y-94603536D01*
X90828772Y-94431570D01*
X90828771Y-94431570D01*
X90828775Y-94431566D01*
X90925281Y-94242162D01*
X90990970Y-94039993D01*
X91024224Y-93830037D01*
X91024224Y-93617463D01*
X90990970Y-93407507D01*
X90925281Y-93205338D01*
X90895797Y-93147473D01*
X90879020Y-93114545D01*
X90866124Y-93045875D01*
X90892401Y-92981135D01*
X90949507Y-92940878D01*
X90989505Y-92934250D01*
X103707944Y-92934250D01*
X103774983Y-92953935D01*
X103820738Y-93006739D01*
X103830682Y-93075897D01*
X103818428Y-93114546D01*
X103772168Y-93205333D01*
X103706477Y-93407510D01*
X103678438Y-93584543D01*
X103673224Y-93617463D01*
X103673224Y-93830037D01*
X103681752Y-93883878D01*
X103702326Y-94013782D01*
X103706478Y-94039993D01*
X103754185Y-94186820D01*
X103772168Y-94242164D01*
X103868675Y-94431570D01*
X103993614Y-94603536D01*
X104143937Y-94753859D01*
X104315906Y-94878800D01*
X104324670Y-94883266D01*
X104375466Y-94931241D01*
X104392260Y-94999062D01*
X104369722Y-95065197D01*
X104324670Y-95104234D01*
X104315906Y-95108699D01*
X104143937Y-95233640D01*
X103993614Y-95383963D01*
X103868675Y-95555929D01*
X103772168Y-95745335D01*
X103706477Y-95947510D01*
X103673224Y-96157463D01*
X103673224Y-96370036D01*
X103700343Y-96541262D01*
X103706478Y-96579993D01*
X103760443Y-96746080D01*
X103772168Y-96782164D01*
X103868675Y-96971570D01*
X103993614Y-97143536D01*
X104143937Y-97293859D01*
X104315906Y-97418800D01*
X104324670Y-97423266D01*
X104375466Y-97471241D01*
X104392260Y-97539062D01*
X104369722Y-97605197D01*
X104324670Y-97644234D01*
X104315906Y-97648699D01*
X104143937Y-97773640D01*
X103993614Y-97923963D01*
X103868675Y-98095929D01*
X103772168Y-98285335D01*
X103706477Y-98487510D01*
X103673224Y-98697463D01*
X103673224Y-98910036D01*
X103704667Y-99108563D01*
X103706478Y-99119993D01*
X103771199Y-99319184D01*
X103772168Y-99322164D01*
X103868675Y-99511570D01*
X103993614Y-99683536D01*
X104143937Y-99833859D01*
X104315906Y-99958800D01*
X104324670Y-99963266D01*
X104375466Y-100011241D01*
X104392260Y-100079062D01*
X104369722Y-100145197D01*
X104324670Y-100184234D01*
X104315906Y-100188699D01*
X104143937Y-100313640D01*
X103993614Y-100463963D01*
X103868675Y-100635929D01*
X103772168Y-100825335D01*
X103706477Y-101027510D01*
X103673224Y-101237463D01*
X103673224Y-101450037D01*
X103706478Y-101659993D01*
X103759856Y-101824274D01*
X103772168Y-101862164D01*
X103868675Y-102051570D01*
X103993614Y-102223536D01*
X104120737Y-102350659D01*
X104154222Y-102411982D01*
X104149238Y-102481674D01*
X104107366Y-102537607D01*
X104076389Y-102554522D01*
X103981395Y-102589952D01*
X103981388Y-102589956D01*
X103866179Y-102676202D01*
X103866176Y-102676205D01*
X103779930Y-102791414D01*
X103779926Y-102791421D01*
X103729632Y-102926267D01*
X103723225Y-102985866D01*
X103723225Y-102985873D01*
X103723224Y-102985885D01*
X103723224Y-104781620D01*
X103723225Y-104781626D01*
X103729632Y-104841233D01*
X103779926Y-104976078D01*
X103779930Y-104976085D01*
X103866176Y-105091294D01*
X103866179Y-105091297D01*
X103981388Y-105177543D01*
X103981395Y-105177547D01*
X104116241Y-105227841D01*
X104116240Y-105227841D01*
X104123168Y-105228585D01*
X104175851Y-105234250D01*
X107771596Y-105234249D01*
X107831207Y-105227841D01*
X107966055Y-105177546D01*
X108081270Y-105091296D01*
X108167520Y-104976081D01*
X108217815Y-104841233D01*
X108224224Y-104781623D01*
X108224223Y-102985878D01*
X108217815Y-102926267D01*
X108167520Y-102791419D01*
X108167519Y-102791418D01*
X108167517Y-102791414D01*
X108081271Y-102676205D01*
X108081268Y-102676202D01*
X107966059Y-102589956D01*
X107966052Y-102589952D01*
X107871058Y-102554522D01*
X107815124Y-102512651D01*
X107790707Y-102447187D01*
X107805559Y-102378914D01*
X107826704Y-102350665D01*
X107953828Y-102223542D01*
X107962481Y-102211633D01*
X108078772Y-102051570D01*
X108078771Y-102051570D01*
X108078775Y-102051566D01*
X108175281Y-101862162D01*
X108240970Y-101659993D01*
X108274224Y-101450037D01*
X108274224Y-101237463D01*
X108240970Y-101027507D01*
X108175281Y-100825338D01*
X108078775Y-100635934D01*
X108078773Y-100635931D01*
X108078772Y-100635929D01*
X107953833Y-100463963D01*
X107803510Y-100313640D01*
X107631544Y-100188701D01*
X107630839Y-100188341D01*
X107622778Y-100184235D01*
X107571983Y-100136262D01*
X107555187Y-100068442D01*
X107577723Y-100002306D01*
X107622778Y-99963265D01*
X107631540Y-99958801D01*
X107763367Y-99863024D01*
X107803510Y-99833859D01*
X107803512Y-99833856D01*
X107803516Y-99833854D01*
X107953828Y-99683542D01*
X107953830Y-99683538D01*
X107953833Y-99683536D01*
X108078772Y-99511570D01*
X108078771Y-99511570D01*
X108078775Y-99511566D01*
X108175281Y-99322162D01*
X108240970Y-99119993D01*
X108274224Y-98910037D01*
X108274224Y-98697463D01*
X108240970Y-98487507D01*
X108175281Y-98285338D01*
X108078775Y-98095934D01*
X108078773Y-98095931D01*
X108078772Y-98095929D01*
X108047440Y-98052804D01*
X123648222Y-98052804D01*
X123689148Y-98205539D01*
X123689149Y-98205540D01*
X123716124Y-98252261D01*
X123716125Y-98252263D01*
X123768199Y-98342459D01*
X123768205Y-98342467D01*
X123887073Y-98461335D01*
X123887079Y-98461340D01*
X124011905Y-98586166D01*
X124045390Y-98647489D01*
X124048224Y-98673847D01*
X124048224Y-99673751D01*
X124048225Y-99673769D01*
X124058724Y-99776546D01*
X124058725Y-99776549D01*
X124113909Y-99943081D01*
X124113911Y-99943086D01*
X124123604Y-99958801D01*
X124206012Y-100092406D01*
X124330068Y-100216462D01*
X124479390Y-100308564D01*
X124645927Y-100363749D01*
X124748715Y-100374250D01*
X125948732Y-100374249D01*
X126051521Y-100363749D01*
X126218058Y-100308564D01*
X126367380Y-100216462D01*
X126467957Y-100115885D01*
X132748224Y-100115885D01*
X132748224Y-102211620D01*
X132748225Y-102211626D01*
X132754632Y-102271233D01*
X132804926Y-102406078D01*
X132804930Y-102406085D01*
X132891176Y-102521294D01*
X132891179Y-102521297D01*
X133006388Y-102607543D01*
X133006395Y-102607547D01*
X133141241Y-102657841D01*
X133141240Y-102657841D01*
X133148168Y-102658585D01*
X133200851Y-102664250D01*
X136496596Y-102664249D01*
X136556207Y-102657841D01*
X136691055Y-102607546D01*
X136806270Y-102521296D01*
X136892520Y-102406081D01*
X136942815Y-102271233D01*
X136949224Y-102211623D01*
X136949223Y-100115878D01*
X136942815Y-100056267D01*
X136941034Y-100051493D01*
X136892521Y-99921421D01*
X136892517Y-99921414D01*
X136806271Y-99806205D01*
X136806268Y-99806202D01*
X136691059Y-99719956D01*
X136691052Y-99719952D01*
X136556206Y-99669658D01*
X136556207Y-99669658D01*
X136496607Y-99663251D01*
X136496605Y-99663250D01*
X136496597Y-99663250D01*
X136496588Y-99663250D01*
X133200853Y-99663250D01*
X133200847Y-99663251D01*
X133141240Y-99669658D01*
X133006395Y-99719952D01*
X133006388Y-99719956D01*
X132891179Y-99806202D01*
X132891176Y-99806205D01*
X132804930Y-99921414D01*
X132804926Y-99921421D01*
X132754632Y-100056267D01*
X132750770Y-100092193D01*
X132748225Y-100115873D01*
X132748224Y-100115885D01*
X126467957Y-100115885D01*
X126491436Y-100092406D01*
X126583538Y-99943084D01*
X126638723Y-99776547D01*
X126649224Y-99673759D01*
X126649223Y-99584856D01*
X126668907Y-99517820D01*
X126721710Y-99472064D01*
X126790869Y-99462120D01*
X126811529Y-99466924D01*
X126948923Y-99511566D01*
X126997355Y-99527303D01*
X127230627Y-99564250D01*
X127230632Y-99564250D01*
X127466821Y-99564250D01*
X127700092Y-99527303D01*
X127924716Y-99454318D01*
X128135157Y-99347093D01*
X128326234Y-99208267D01*
X128493241Y-99041260D01*
X128632067Y-98850183D01*
X128739292Y-98639742D01*
X128812277Y-98415118D01*
X128819272Y-98370953D01*
X128849224Y-98181847D01*
X128849224Y-97945652D01*
X140348224Y-97945652D01*
X140348224Y-98181847D01*
X140385170Y-98415118D01*
X140458157Y-98639746D01*
X140530640Y-98782000D01*
X140565381Y-98850183D01*
X140704207Y-99041260D01*
X140871214Y-99208267D01*
X141062291Y-99347093D01*
X141149223Y-99391387D01*
X141272727Y-99454316D01*
X141272729Y-99454316D01*
X141272732Y-99454318D01*
X141393136Y-99493439D01*
X141497355Y-99527303D01*
X141730627Y-99564250D01*
X141730632Y-99564250D01*
X141966821Y-99564250D01*
X142200092Y-99527303D01*
X142424716Y-99454318D01*
X142635157Y-99347093D01*
X142826234Y-99208267D01*
X142993241Y-99041260D01*
X143132067Y-98850183D01*
X143239292Y-98639742D01*
X143312277Y-98415118D01*
X143319272Y-98370953D01*
X143349224Y-98181847D01*
X143349224Y-97945652D01*
X143312277Y-97712381D01*
X143245383Y-97506505D01*
X143239292Y-97487758D01*
X143239290Y-97487755D01*
X143239290Y-97487753D01*
X143182726Y-97376741D01*
X143132067Y-97277317D01*
X142993241Y-97086240D01*
X142826234Y-96919233D01*
X142635157Y-96780407D01*
X142612312Y-96768767D01*
X142424720Y-96673183D01*
X142200092Y-96600196D01*
X141966821Y-96563250D01*
X141966816Y-96563250D01*
X141730632Y-96563250D01*
X141730627Y-96563250D01*
X141497355Y-96600196D01*
X141272727Y-96673183D01*
X141062290Y-96780407D01*
X141016398Y-96813750D01*
X140871214Y-96919233D01*
X140871212Y-96919235D01*
X140871211Y-96919235D01*
X140704209Y-97086237D01*
X140704209Y-97086238D01*
X140704207Y-97086240D01*
X140654795Y-97154250D01*
X140565381Y-97277316D01*
X140458157Y-97487753D01*
X140385170Y-97712381D01*
X140348224Y-97945652D01*
X128849224Y-97945652D01*
X128812277Y-97712381D01*
X128745383Y-97506505D01*
X128739292Y-97487758D01*
X128739290Y-97487755D01*
X128739290Y-97487753D01*
X128682726Y-97376741D01*
X128632067Y-97277317D01*
X128493241Y-97086240D01*
X128326234Y-96919233D01*
X128319125Y-96914068D01*
X128276459Y-96858738D01*
X128270480Y-96789125D01*
X128303086Y-96727330D01*
X128319125Y-96713432D01*
X128319224Y-96713359D01*
X128326234Y-96708267D01*
X128493241Y-96541260D01*
X128632067Y-96350183D01*
X128739292Y-96139742D01*
X128812277Y-95915118D01*
X128814472Y-95901257D01*
X128849224Y-95681847D01*
X128849224Y-95445652D01*
X128815247Y-95231135D01*
X128812277Y-95212382D01*
X128771271Y-95086183D01*
X128769277Y-95016343D01*
X128801520Y-94960187D01*
X130061140Y-93700569D01*
X130122463Y-93667084D01*
X130148821Y-93664250D01*
X140394656Y-93664250D01*
X140461695Y-93683935D01*
X140505140Y-93731953D01*
X140565381Y-93850183D01*
X140704207Y-94041260D01*
X140871214Y-94208267D01*
X141062291Y-94347093D01*
X141160031Y-94396894D01*
X141272727Y-94454316D01*
X141272729Y-94454316D01*
X141272732Y-94454318D01*
X141393136Y-94493439D01*
X141497355Y-94527303D01*
X141730627Y-94564250D01*
X141730632Y-94564250D01*
X141966821Y-94564250D01*
X142200092Y-94527303D01*
X142255068Y-94509440D01*
X142424716Y-94454318D01*
X142635157Y-94347093D01*
X142826234Y-94208267D01*
X142993241Y-94041260D01*
X143132067Y-93850183D01*
X143239292Y-93639742D01*
X143312277Y-93415118D01*
X143341159Y-93232765D01*
X143349224Y-93181847D01*
X143349224Y-92945652D01*
X143312277Y-92712381D01*
X143276405Y-92601979D01*
X143239292Y-92487758D01*
X143239290Y-92487755D01*
X143239290Y-92487753D01*
X143173177Y-92358000D01*
X143132067Y-92277317D01*
X142993241Y-92086240D01*
X142826234Y-91919233D01*
X142635157Y-91780407D01*
X142622922Y-91774173D01*
X142424720Y-91673183D01*
X142200092Y-91600196D01*
X141966821Y-91563250D01*
X141966816Y-91563250D01*
X141730632Y-91563250D01*
X141730627Y-91563250D01*
X141497355Y-91600196D01*
X141272727Y-91673183D01*
X141062290Y-91780407D01*
X141005843Y-91821419D01*
X140871214Y-91919233D01*
X140871212Y-91919235D01*
X140871211Y-91919235D01*
X140704209Y-92086237D01*
X140704209Y-92086238D01*
X140704207Y-92086240D01*
X140668519Y-92135360D01*
X140565381Y-92277316D01*
X140534055Y-92338798D01*
X140511887Y-92382306D01*
X140505141Y-92395545D01*
X140457166Y-92446341D01*
X140394656Y-92463250D01*
X129935393Y-92463250D01*
X129935377Y-92463249D01*
X129927781Y-92463249D01*
X129769667Y-92463249D01*
X129662311Y-92492015D01*
X129616934Y-92504174D01*
X129616933Y-92504175D01*
X129566820Y-92533109D01*
X129566819Y-92533110D01*
X129534345Y-92551859D01*
X129480009Y-92583229D01*
X129480006Y-92583231D01*
X129060904Y-93002334D01*
X128999581Y-93035819D01*
X128929889Y-93030835D01*
X128873956Y-92988963D01*
X128849539Y-92923499D01*
X128849223Y-92914653D01*
X128849223Y-92015879D01*
X128849222Y-92015873D01*
X128844830Y-91975017D01*
X128842815Y-91956267D01*
X128841586Y-91952973D01*
X128792521Y-91821421D01*
X128792517Y-91821414D01*
X128706271Y-91706205D01*
X128706268Y-91706202D01*
X128591059Y-91619956D01*
X128591052Y-91619952D01*
X128456206Y-91569658D01*
X128456207Y-91569658D01*
X128396607Y-91563251D01*
X128396605Y-91563250D01*
X128396597Y-91563250D01*
X128396589Y-91563250D01*
X126773224Y-91563250D01*
X126706185Y-91543565D01*
X126660430Y-91490761D01*
X126649224Y-91439250D01*
X126649224Y-91351398D01*
X126617201Y-91149215D01*
X126578590Y-91030383D01*
X126553944Y-90954531D01*
X126553942Y-90954528D01*
X126553942Y-90954526D01*
X126516228Y-90880509D01*
X126461011Y-90772140D01*
X126453280Y-90761499D01*
X126340695Y-90606536D01*
X126195937Y-90461778D01*
X126030337Y-90341465D01*
X126030336Y-90341464D01*
X126030334Y-90341463D01*
X125956736Y-90303963D01*
X125847947Y-90248531D01*
X125653258Y-90185272D01*
X125478719Y-90157628D01*
X125451076Y-90153250D01*
X125246372Y-90153250D01*
X125192428Y-90161794D01*
X125044188Y-90185273D01*
X125044181Y-90185274D01*
X125011541Y-90195880D01*
X124941700Y-90197875D01*
X124881867Y-90161794D01*
X124851040Y-90099093D01*
X124849224Y-90077949D01*
X124849224Y-88915885D01*
X132748224Y-88915885D01*
X132748224Y-91011620D01*
X132748225Y-91011626D01*
X132754632Y-91071233D01*
X132804926Y-91206078D01*
X132804930Y-91206085D01*
X132891176Y-91321294D01*
X132891179Y-91321297D01*
X133006388Y-91407543D01*
X133006395Y-91407547D01*
X133141241Y-91457841D01*
X133141240Y-91457841D01*
X133148168Y-91458585D01*
X133200851Y-91464250D01*
X136496596Y-91464249D01*
X136556207Y-91457841D01*
X136691055Y-91407546D01*
X136806270Y-91321296D01*
X136892520Y-91206081D01*
X136942815Y-91071233D01*
X136949224Y-91011623D01*
X136949223Y-88915878D01*
X136942815Y-88856267D01*
X136914777Y-88781094D01*
X136892521Y-88721421D01*
X136892517Y-88721414D01*
X136806271Y-88606205D01*
X136806268Y-88606202D01*
X136691059Y-88519956D01*
X136691052Y-88519952D01*
X136556206Y-88469658D01*
X136556207Y-88469658D01*
X136496607Y-88463251D01*
X136496605Y-88463250D01*
X136496597Y-88463250D01*
X136496588Y-88463250D01*
X133200853Y-88463250D01*
X133200847Y-88463251D01*
X133141240Y-88469658D01*
X133006395Y-88519952D01*
X133006388Y-88519956D01*
X132891179Y-88606202D01*
X132891176Y-88606205D01*
X132804930Y-88721414D01*
X132804926Y-88721421D01*
X132754632Y-88856267D01*
X132748225Y-88915866D01*
X132748225Y-88915873D01*
X132748224Y-88915885D01*
X124849224Y-88915885D01*
X124849224Y-81308249D01*
X124868909Y-81241210D01*
X124921713Y-81195455D01*
X124973224Y-81184249D01*
X125948726Y-81184249D01*
X125948732Y-81184249D01*
X126051521Y-81173749D01*
X126218058Y-81118564D01*
X126367380Y-81026462D01*
X126491436Y-80902406D01*
X126583538Y-80753084D01*
X126638723Y-80586547D01*
X126649224Y-80483759D01*
X126649223Y-79283742D01*
X126638723Y-79180953D01*
X126583538Y-79014416D01*
X126491436Y-78865094D01*
X126367380Y-78741038D01*
X126218058Y-78648936D01*
X126051521Y-78593751D01*
X126051519Y-78593750D01*
X125948734Y-78583250D01*
X124748722Y-78583250D01*
X124748705Y-78583251D01*
X124645927Y-78593750D01*
X124645924Y-78593751D01*
X124479392Y-78648935D01*
X124479387Y-78648937D01*
X124330066Y-78741039D01*
X124206013Y-78865092D01*
X124113911Y-79014413D01*
X124113910Y-79014416D01*
X124058725Y-79180953D01*
X124058725Y-79180954D01*
X124058724Y-79180954D01*
X124048224Y-79283733D01*
X124048224Y-80283652D01*
X124028539Y-80350691D01*
X124011905Y-80371333D01*
X123768205Y-80615032D01*
X123768203Y-80615035D01*
X123718085Y-80701844D01*
X123718083Y-80701846D01*
X123689149Y-80751959D01*
X123689148Y-80751960D01*
X123673268Y-80811222D01*
X123648223Y-80904693D01*
X123648223Y-80904695D01*
X123648223Y-81072796D01*
X123648224Y-81072809D01*
X123648224Y-97887080D01*
X123648223Y-97887098D01*
X123648223Y-98052804D01*
X123648222Y-98052804D01*
X108047440Y-98052804D01*
X107953833Y-97923963D01*
X107803510Y-97773640D01*
X107631544Y-97648701D01*
X107630839Y-97648341D01*
X107622778Y-97644235D01*
X107571983Y-97596262D01*
X107555187Y-97528442D01*
X107577723Y-97462306D01*
X107622778Y-97423265D01*
X107631540Y-97418801D01*
X107653513Y-97402836D01*
X107803510Y-97293859D01*
X107803512Y-97293856D01*
X107803516Y-97293854D01*
X107953828Y-97143542D01*
X107953830Y-97143538D01*
X107953833Y-97143536D01*
X108078772Y-96971570D01*
X108078771Y-96971570D01*
X108078775Y-96971566D01*
X108175281Y-96782162D01*
X108240970Y-96579993D01*
X108274224Y-96370037D01*
X108274224Y-96157463D01*
X108240970Y-95947507D01*
X108175281Y-95745338D01*
X108078775Y-95555934D01*
X108078773Y-95555931D01*
X108078772Y-95555929D01*
X107953833Y-95383963D01*
X107803510Y-95233640D01*
X107631544Y-95108701D01*
X107630839Y-95108341D01*
X107622778Y-95104235D01*
X107571983Y-95056262D01*
X107555187Y-94988442D01*
X107577723Y-94922306D01*
X107622778Y-94883265D01*
X107631540Y-94878801D01*
X107653513Y-94862836D01*
X107716411Y-94817139D01*
X110028224Y-94817139D01*
X110028224Y-94990360D01*
X110046370Y-95104934D01*
X110055322Y-95161451D01*
X110108851Y-95326195D01*
X110187492Y-95480538D01*
X110289310Y-95620678D01*
X110411796Y-95743164D01*
X110551936Y-95844982D01*
X110706279Y-95923623D01*
X110871023Y-95977152D01*
X111042113Y-96004250D01*
X111042114Y-96004250D01*
X111215334Y-96004250D01*
X111215335Y-96004250D01*
X111386425Y-95977152D01*
X111551169Y-95923623D01*
X111705512Y-95844982D01*
X111845652Y-95743164D01*
X111968138Y-95620678D01*
X112069956Y-95480538D01*
X112148597Y-95326195D01*
X112202126Y-95161451D01*
X112229224Y-94990361D01*
X112229224Y-94817139D01*
X112219578Y-94756236D01*
X113958224Y-94756236D01*
X113958224Y-95051263D01*
X113982236Y-95233646D01*
X113996731Y-95343743D01*
X114070936Y-95620680D01*
X114073085Y-95628701D01*
X114073088Y-95628711D01*
X114185978Y-95901250D01*
X114185982Y-95901260D01*
X114333485Y-96156743D01*
X114513076Y-96390790D01*
X114513082Y-96390797D01*
X114721676Y-96599391D01*
X114721683Y-96599397D01*
X114955730Y-96778988D01*
X115211213Y-96926491D01*
X115211214Y-96926491D01*
X115211217Y-96926493D01*
X115483772Y-97039389D01*
X115768731Y-97115743D01*
X116061218Y-97154250D01*
X116061225Y-97154250D01*
X116356223Y-97154250D01*
X116356230Y-97154250D01*
X116648717Y-97115743D01*
X116933676Y-97039389D01*
X117206231Y-96926493D01*
X117461718Y-96778988D01*
X117695766Y-96599396D01*
X117904370Y-96390792D01*
X118083962Y-96156744D01*
X118231467Y-95901257D01*
X118344363Y-95628702D01*
X118420717Y-95343743D01*
X118459224Y-95051256D01*
X118459224Y-94817139D01*
X120188224Y-94817139D01*
X120188224Y-94990360D01*
X120206370Y-95104934D01*
X120215322Y-95161451D01*
X120268851Y-95326195D01*
X120347492Y-95480538D01*
X120449310Y-95620678D01*
X120571796Y-95743164D01*
X120711936Y-95844982D01*
X120866279Y-95923623D01*
X121031023Y-95977152D01*
X121202113Y-96004250D01*
X121202114Y-96004250D01*
X121375334Y-96004250D01*
X121375335Y-96004250D01*
X121546425Y-95977152D01*
X121711169Y-95923623D01*
X121865512Y-95844982D01*
X122005652Y-95743164D01*
X122128138Y-95620678D01*
X122229956Y-95480538D01*
X122308597Y-95326195D01*
X122362126Y-95161451D01*
X122389224Y-94990361D01*
X122389224Y-94817139D01*
X122362126Y-94646049D01*
X122308597Y-94481305D01*
X122229956Y-94326962D01*
X122128138Y-94186822D01*
X122005652Y-94064336D01*
X121865512Y-93962518D01*
X121711169Y-93883877D01*
X121546425Y-93830348D01*
X121546423Y-93830347D01*
X121546422Y-93830347D01*
X121414995Y-93809531D01*
X121375335Y-93803250D01*
X121202113Y-93803250D01*
X121162452Y-93809531D01*
X121031026Y-93830347D01*
X120866276Y-93883878D01*
X120711935Y-93962518D01*
X120631980Y-94020609D01*
X120571796Y-94064336D01*
X120571794Y-94064338D01*
X120571793Y-94064338D01*
X120449312Y-94186819D01*
X120449312Y-94186820D01*
X120449310Y-94186822D01*
X120420109Y-94227014D01*
X120347492Y-94326961D01*
X120268852Y-94481302D01*
X120215321Y-94646052D01*
X120188224Y-94817139D01*
X118459224Y-94817139D01*
X118459224Y-94756244D01*
X118458909Y-94753855D01*
X118455056Y-94724586D01*
X118420717Y-94463757D01*
X118344363Y-94178798D01*
X118341229Y-94171233D01*
X118276011Y-94013782D01*
X118231467Y-93906243D01*
X118176033Y-93810229D01*
X118083962Y-93650756D01*
X117904371Y-93416709D01*
X117904365Y-93416702D01*
X117695771Y-93208108D01*
X117695764Y-93208102D01*
X117461717Y-93028511D01*
X117206234Y-92881008D01*
X117206224Y-92881004D01*
X116933685Y-92768114D01*
X116933678Y-92768112D01*
X116933676Y-92768111D01*
X116648717Y-92691757D01*
X116599837Y-92685321D01*
X116356237Y-92653250D01*
X116356230Y-92653250D01*
X116061218Y-92653250D01*
X116061210Y-92653250D01*
X115782809Y-92689903D01*
X115768731Y-92691757D01*
X115535502Y-92754250D01*
X115483772Y-92768111D01*
X115483762Y-92768114D01*
X115211223Y-92881004D01*
X115211213Y-92881008D01*
X114955730Y-93028511D01*
X114721683Y-93208102D01*
X114721676Y-93208108D01*
X114513082Y-93416702D01*
X114513076Y-93416709D01*
X114333485Y-93650756D01*
X114185982Y-93906239D01*
X114185978Y-93906249D01*
X114073088Y-94178788D01*
X114073085Y-94178798D01*
X113997321Y-94461557D01*
X113996732Y-94463754D01*
X113996730Y-94463765D01*
X113958224Y-94756236D01*
X112219578Y-94756236D01*
X112202126Y-94646049D01*
X112148597Y-94481305D01*
X112069956Y-94326962D01*
X111968138Y-94186822D01*
X111916206Y-94134890D01*
X111882721Y-94073567D01*
X111887705Y-94003875D01*
X111929577Y-93947942D01*
X111995041Y-93923525D01*
X112023285Y-93924736D01*
X112023936Y-93924839D01*
X112023939Y-93924840D01*
X112272762Y-93964250D01*
X112272763Y-93964250D01*
X112524685Y-93964250D01*
X112524686Y-93964250D01*
X112773509Y-93924840D01*
X113013103Y-93846991D01*
X113237569Y-93732620D01*
X113441380Y-93584543D01*
X113619517Y-93406406D01*
X113767594Y-93202595D01*
X113881965Y-92978129D01*
X113959814Y-92738535D01*
X113999224Y-92489712D01*
X113999224Y-92237788D01*
X113959814Y-91988965D01*
X113881965Y-91749371D01*
X113881963Y-91749368D01*
X113881963Y-91749366D01*
X113836816Y-91660761D01*
X113767594Y-91524905D01*
X113705362Y-91439250D01*
X113619522Y-91321100D01*
X113619518Y-91321095D01*
X113441378Y-91142955D01*
X113441373Y-91142951D01*
X113237572Y-90994882D01*
X113237571Y-90994881D01*
X113237569Y-90994880D01*
X113158370Y-90954526D01*
X113013107Y-90880510D01*
X112773509Y-90802660D01*
X112524686Y-90763250D01*
X112272762Y-90763250D01*
X112148350Y-90782955D01*
X112023938Y-90802660D01*
X111784340Y-90880510D01*
X111559875Y-90994882D01*
X111356074Y-91142951D01*
X111356069Y-91142955D01*
X111177929Y-91321095D01*
X111177925Y-91321100D01*
X111029856Y-91524901D01*
X110915484Y-91749366D01*
X110837634Y-91988964D01*
X110822227Y-92086238D01*
X110798224Y-92237788D01*
X110798224Y-92489712D01*
X110816006Y-92601980D01*
X110837634Y-92738535D01*
X110915484Y-92978133D01*
X110954431Y-93054569D01*
X111019282Y-93181847D01*
X111029856Y-93202598D01*
X111177925Y-93406399D01*
X111177929Y-93406404D01*
X111177931Y-93406406D01*
X111356068Y-93584543D01*
X111356069Y-93584544D01*
X111356068Y-93584544D01*
X111362385Y-93589133D01*
X111405051Y-93644464D01*
X111411029Y-93714077D01*
X111378423Y-93775872D01*
X111317584Y-93810229D01*
X111270102Y-93811924D01*
X111215335Y-93803250D01*
X111042113Y-93803250D01*
X111002452Y-93809531D01*
X110871026Y-93830347D01*
X110706276Y-93883878D01*
X110551935Y-93962518D01*
X110471980Y-94020609D01*
X110411796Y-94064336D01*
X110411794Y-94064338D01*
X110411793Y-94064338D01*
X110289312Y-94186819D01*
X110289312Y-94186820D01*
X110289310Y-94186822D01*
X110260109Y-94227014D01*
X110187492Y-94326961D01*
X110108852Y-94481302D01*
X110055321Y-94646052D01*
X110028224Y-94817139D01*
X107716411Y-94817139D01*
X107803510Y-94753859D01*
X107803512Y-94753856D01*
X107803516Y-94753854D01*
X107953828Y-94603542D01*
X107953830Y-94603538D01*
X107953833Y-94603536D01*
X108078772Y-94431570D01*
X108078771Y-94431570D01*
X108078775Y-94431566D01*
X108175281Y-94242162D01*
X108240970Y-94039993D01*
X108274224Y-93830037D01*
X108274224Y-93617463D01*
X108240970Y-93407507D01*
X108175281Y-93205338D01*
X108078775Y-93015934D01*
X108078773Y-93015931D01*
X108078772Y-93015929D01*
X107953833Y-92843963D01*
X107803510Y-92693640D01*
X107631544Y-92568701D01*
X107630839Y-92568341D01*
X107622778Y-92564235D01*
X107571983Y-92516262D01*
X107555187Y-92448442D01*
X107577723Y-92382306D01*
X107622778Y-92343265D01*
X107631540Y-92338801D01*
X107716166Y-92277317D01*
X107803510Y-92213859D01*
X107803512Y-92213856D01*
X107803516Y-92213854D01*
X107953828Y-92063542D01*
X107953830Y-92063538D01*
X107953833Y-92063536D01*
X108078772Y-91891570D01*
X108078771Y-91891570D01*
X108078775Y-91891566D01*
X108175281Y-91702162D01*
X108240970Y-91499993D01*
X108274224Y-91290037D01*
X108274224Y-91077463D01*
X108240970Y-90867507D01*
X108175281Y-90665338D01*
X108078775Y-90475934D01*
X108078773Y-90475931D01*
X108078772Y-90475929D01*
X107953833Y-90303963D01*
X107803510Y-90153640D01*
X107631544Y-90028701D01*
X107630839Y-90028341D01*
X107622778Y-90024235D01*
X107571983Y-89976262D01*
X107555187Y-89908442D01*
X107577723Y-89842306D01*
X107622778Y-89803265D01*
X107631540Y-89798801D01*
X107653513Y-89782836D01*
X107803510Y-89673859D01*
X107803512Y-89673856D01*
X107803516Y-89673854D01*
X107953828Y-89523542D01*
X107953830Y-89523538D01*
X107953833Y-89523536D01*
X108078772Y-89351570D01*
X108078771Y-89351570D01*
X108078775Y-89351566D01*
X108175281Y-89162162D01*
X108240970Y-88959993D01*
X108274224Y-88750037D01*
X108274224Y-88537463D01*
X108240970Y-88327507D01*
X108175281Y-88125338D01*
X108078775Y-87935934D01*
X108078773Y-87935931D01*
X108078772Y-87935929D01*
X107953833Y-87763963D01*
X107803510Y-87613640D01*
X107631544Y-87488701D01*
X107442138Y-87392194D01*
X107442137Y-87392193D01*
X107442136Y-87392193D01*
X107239967Y-87326504D01*
X107239965Y-87326503D01*
X107239964Y-87326503D01*
X107078681Y-87300958D01*
X107030011Y-87293250D01*
X104917437Y-87293250D01*
X104868766Y-87300958D01*
X104707484Y-87326503D01*
X104505309Y-87392194D01*
X104315903Y-87488701D01*
X104143937Y-87613640D01*
X103993614Y-87763963D01*
X103868675Y-87935929D01*
X103772168Y-88125335D01*
X103706477Y-88327510D01*
X103673224Y-88537463D01*
X103673224Y-88750036D01*
X103702461Y-88934635D01*
X103706478Y-88959993D01*
X103765234Y-89140826D01*
X103772168Y-89162164D01*
X103868675Y-89351570D01*
X103993614Y-89523536D01*
X104143937Y-89673859D01*
X104315906Y-89798800D01*
X104324670Y-89803266D01*
X104375466Y-89851241D01*
X104392260Y-89919062D01*
X104369722Y-89985197D01*
X104324670Y-90024234D01*
X104315906Y-90028699D01*
X104143937Y-90153640D01*
X103993614Y-90303963D01*
X103868675Y-90475929D01*
X103772168Y-90665335D01*
X103706477Y-90867510D01*
X103673224Y-91077463D01*
X103673224Y-91290036D01*
X103706477Y-91499992D01*
X103707954Y-91504536D01*
X103709948Y-91574378D01*
X103677704Y-91630534D01*
X103611308Y-91696931D01*
X103549985Y-91730416D01*
X103523626Y-91733250D01*
X91085851Y-91733250D01*
X91018812Y-91713565D01*
X90973057Y-91660761D01*
X90963113Y-91591603D01*
X90967920Y-91570932D01*
X90970416Y-91563250D01*
X90990970Y-91499993D01*
X91024224Y-91290037D01*
X91024224Y-91077463D01*
X90990970Y-90867507D01*
X90925281Y-90665338D01*
X90828775Y-90475934D01*
X90828773Y-90475931D01*
X90828772Y-90475929D01*
X90703833Y-90303963D01*
X90553510Y-90153640D01*
X90381544Y-90028701D01*
X90380839Y-90028341D01*
X90372778Y-90024235D01*
X90321983Y-89976262D01*
X90305187Y-89908442D01*
X90327723Y-89842306D01*
X90372778Y-89803265D01*
X90381540Y-89798801D01*
X90403513Y-89782836D01*
X90553510Y-89673859D01*
X90553512Y-89673856D01*
X90553516Y-89673854D01*
X90703828Y-89523542D01*
X90703830Y-89523538D01*
X90703833Y-89523536D01*
X90828772Y-89351570D01*
X90828771Y-89351570D01*
X90828775Y-89351566D01*
X90925281Y-89162162D01*
X90990970Y-88959993D01*
X91024224Y-88750037D01*
X91024224Y-88537463D01*
X90990970Y-88327507D01*
X90989493Y-88322964D01*
X90987497Y-88253124D01*
X91019741Y-88196966D01*
X98696140Y-80520569D01*
X98757463Y-80487084D01*
X98783821Y-80484250D01*
X104936561Y-80484250D01*
X105003600Y-80503935D01*
X105049355Y-80556739D01*
X105057813Y-80582291D01*
X105058723Y-80586542D01*
X105068165Y-80615035D01*
X105113910Y-80753084D01*
X105206012Y-80902406D01*
X105330068Y-81026462D01*
X105479390Y-81118564D01*
X105645927Y-81173749D01*
X105748715Y-81184250D01*
X106948732Y-81184249D01*
X107051521Y-81173749D01*
X107218058Y-81118564D01*
X107367380Y-81026462D01*
X107491436Y-80902406D01*
X107583538Y-80753084D01*
X107638723Y-80586547D01*
X107649224Y-80483759D01*
X107649223Y-79872844D01*
X107668907Y-79805807D01*
X107721711Y-79760052D01*
X107790870Y-79750108D01*
X107854426Y-79779133D01*
X107860904Y-79785165D01*
X117216565Y-89140826D01*
X117250050Y-89202149D01*
X117246815Y-89266824D01*
X117187634Y-89448965D01*
X117148224Y-89697788D01*
X117148224Y-89949712D01*
X117160735Y-90028701D01*
X117187634Y-90198535D01*
X117265484Y-90438133D01*
X117379856Y-90662598D01*
X117527925Y-90866399D01*
X117527929Y-90866404D01*
X117706069Y-91044544D01*
X117706074Y-91044548D01*
X117850137Y-91149215D01*
X117909879Y-91192620D01*
X118052908Y-91265497D01*
X118134340Y-91306989D01*
X118134342Y-91306989D01*
X118134345Y-91306991D01*
X118373939Y-91384840D01*
X118622762Y-91424250D01*
X118622763Y-91424250D01*
X118874685Y-91424250D01*
X118874686Y-91424250D01*
X119123509Y-91384840D01*
X119363103Y-91306991D01*
X119587569Y-91192620D01*
X119791380Y-91044543D01*
X119969517Y-90866406D01*
X120117594Y-90662595D01*
X120231965Y-90438129D01*
X120309814Y-90198535D01*
X120349224Y-89949712D01*
X120349224Y-89697788D01*
X120309814Y-89448965D01*
X120231965Y-89209371D01*
X120231963Y-89209368D01*
X120231963Y-89209366D01*
X120190471Y-89127934D01*
X120117594Y-88984905D01*
X120081071Y-88934635D01*
X119969522Y-88781100D01*
X119969518Y-88781095D01*
X119791378Y-88602955D01*
X119791373Y-88602951D01*
X119587572Y-88454882D01*
X119587571Y-88454881D01*
X119587569Y-88454880D01*
X119511834Y-88416291D01*
X119363107Y-88340510D01*
X119123509Y-88262660D01*
X119090608Y-88257449D01*
X118874686Y-88223250D01*
X118622762Y-88223250D01*
X118576584Y-88230564D01*
X118373938Y-88262660D01*
X118284899Y-88291591D01*
X118191798Y-88321841D01*
X118121958Y-88323836D01*
X118065800Y-88291591D01*
X105541348Y-75767139D01*
X110028224Y-75767139D01*
X110028224Y-75940361D01*
X110055322Y-76111451D01*
X110108851Y-76276195D01*
X110187492Y-76430538D01*
X110289310Y-76570678D01*
X110411796Y-76693164D01*
X110551936Y-76794982D01*
X110706279Y-76873623D01*
X110871023Y-76927152D01*
X111042113Y-76954250D01*
X111042114Y-76954250D01*
X111215334Y-76954250D01*
X111215335Y-76954250D01*
X111386425Y-76927152D01*
X111551169Y-76873623D01*
X111705512Y-76794982D01*
X111845652Y-76693164D01*
X111968138Y-76570678D01*
X112069956Y-76430538D01*
X112148597Y-76276195D01*
X112202126Y-76111451D01*
X112229224Y-75940361D01*
X112229224Y-75767139D01*
X112219578Y-75706236D01*
X113958224Y-75706236D01*
X113958224Y-76001263D01*
X113990295Y-76244863D01*
X113996731Y-76293743D01*
X114070936Y-76570680D01*
X114073085Y-76578701D01*
X114073088Y-76578711D01*
X114185978Y-76851250D01*
X114185982Y-76851260D01*
X114333485Y-77106743D01*
X114513076Y-77340790D01*
X114513082Y-77340797D01*
X114721676Y-77549391D01*
X114721683Y-77549397D01*
X114955730Y-77728988D01*
X115211213Y-77876491D01*
X115211214Y-77876491D01*
X115211217Y-77876493D01*
X115483772Y-77989389D01*
X115768731Y-78065743D01*
X116061218Y-78104250D01*
X116061225Y-78104250D01*
X116356223Y-78104250D01*
X116356230Y-78104250D01*
X116648717Y-78065743D01*
X116933676Y-77989389D01*
X117206231Y-77876493D01*
X117461718Y-77728988D01*
X117695766Y-77549396D01*
X117904370Y-77340792D01*
X118083962Y-77106744D01*
X118231467Y-76851257D01*
X118344363Y-76578702D01*
X118420717Y-76293743D01*
X118459224Y-76001256D01*
X118459224Y-75767139D01*
X120188224Y-75767139D01*
X120188224Y-75940361D01*
X120215322Y-76111451D01*
X120268851Y-76276195D01*
X120347492Y-76430538D01*
X120449310Y-76570678D01*
X120571796Y-76693164D01*
X120711936Y-76794982D01*
X120866279Y-76873623D01*
X121031023Y-76927152D01*
X121202113Y-76954250D01*
X121202114Y-76954250D01*
X121375334Y-76954250D01*
X121375335Y-76954250D01*
X121546425Y-76927152D01*
X121711169Y-76873623D01*
X121865512Y-76794982D01*
X122005652Y-76693164D01*
X122128138Y-76570678D01*
X122229956Y-76430538D01*
X122308597Y-76276195D01*
X122362126Y-76111451D01*
X122389224Y-75940361D01*
X122389224Y-75767139D01*
X122362126Y-75596049D01*
X122308597Y-75431305D01*
X122229956Y-75276962D01*
X122128138Y-75136822D01*
X122005652Y-75014336D01*
X121865512Y-74912518D01*
X121711169Y-74833877D01*
X121546425Y-74780348D01*
X121546423Y-74780347D01*
X121546422Y-74780347D01*
X121414995Y-74759531D01*
X121375335Y-74753250D01*
X121202113Y-74753250D01*
X121162452Y-74759531D01*
X121031026Y-74780347D01*
X120866276Y-74833878D01*
X120711935Y-74912518D01*
X120655013Y-74953875D01*
X120571796Y-75014336D01*
X120571794Y-75014338D01*
X120571793Y-75014338D01*
X120449312Y-75136819D01*
X120449312Y-75136820D01*
X120449310Y-75136822D01*
X120405583Y-75197006D01*
X120347492Y-75276961D01*
X120268852Y-75431302D01*
X120215321Y-75596052D01*
X120188224Y-75767139D01*
X118459224Y-75767139D01*
X118459224Y-75706244D01*
X118420717Y-75413757D01*
X118344363Y-75128798D01*
X118231467Y-74856243D01*
X118198765Y-74799602D01*
X118083962Y-74600756D01*
X117904371Y-74366709D01*
X117904365Y-74366702D01*
X117695771Y-74158108D01*
X117695764Y-74158102D01*
X117461717Y-73978511D01*
X117206234Y-73831008D01*
X117206224Y-73831004D01*
X116933685Y-73718114D01*
X116933678Y-73718112D01*
X116933676Y-73718111D01*
X116648717Y-73641757D01*
X116599837Y-73635321D01*
X116356237Y-73603250D01*
X116356230Y-73603250D01*
X116061218Y-73603250D01*
X116061210Y-73603250D01*
X115782809Y-73639903D01*
X115768731Y-73641757D01*
X115594152Y-73688535D01*
X115483772Y-73718111D01*
X115483762Y-73718114D01*
X115211223Y-73831004D01*
X115211213Y-73831008D01*
X114955730Y-73978511D01*
X114721683Y-74158102D01*
X114721676Y-74158108D01*
X114513082Y-74366702D01*
X114513076Y-74366709D01*
X114333485Y-74600756D01*
X114185982Y-74856239D01*
X114185978Y-74856249D01*
X114073088Y-75128788D01*
X114073085Y-75128798D01*
X114002027Y-75393994D01*
X113996732Y-75413754D01*
X113996730Y-75413765D01*
X113958224Y-75706236D01*
X112219578Y-75706236D01*
X112202126Y-75596049D01*
X112148597Y-75431305D01*
X112069956Y-75276962D01*
X111968138Y-75136822D01*
X111916206Y-75084890D01*
X111882721Y-75023567D01*
X111887705Y-74953875D01*
X111929577Y-74897942D01*
X111995041Y-74873525D01*
X112023285Y-74874736D01*
X112023936Y-74874839D01*
X112023939Y-74874840D01*
X112272762Y-74914250D01*
X112272763Y-74914250D01*
X112524685Y-74914250D01*
X112524686Y-74914250D01*
X112773509Y-74874840D01*
X113013103Y-74796991D01*
X113237569Y-74682620D01*
X113441380Y-74534543D01*
X113619517Y-74356406D01*
X113767594Y-74152595D01*
X113881965Y-73928129D01*
X113959814Y-73688535D01*
X113999224Y-73439712D01*
X113999224Y-73187788D01*
X113959814Y-72938965D01*
X113881965Y-72699371D01*
X113881963Y-72699368D01*
X113881963Y-72699366D01*
X113815173Y-72568284D01*
X113767594Y-72474905D01*
X113688544Y-72366102D01*
X113619522Y-72271100D01*
X113619518Y-72271095D01*
X113441378Y-72092955D01*
X113441373Y-72092951D01*
X113237572Y-71944882D01*
X113237571Y-71944881D01*
X113237569Y-71944880D01*
X113167471Y-71909163D01*
X113013107Y-71830510D01*
X112773509Y-71752660D01*
X112524686Y-71713250D01*
X112272762Y-71713250D01*
X112148350Y-71732955D01*
X112023938Y-71752660D01*
X111784340Y-71830510D01*
X111559875Y-71944882D01*
X111356074Y-72092951D01*
X111356069Y-72092955D01*
X111177929Y-72271095D01*
X111177925Y-72271100D01*
X111029856Y-72474901D01*
X110915484Y-72699366D01*
X110837634Y-72938964D01*
X110798224Y-73187788D01*
X110798224Y-73439711D01*
X110837634Y-73688535D01*
X110915484Y-73928133D01*
X111029856Y-74152598D01*
X111177925Y-74356399D01*
X111177929Y-74356404D01*
X111177931Y-74356406D01*
X111356068Y-74534543D01*
X111356069Y-74534544D01*
X111356068Y-74534544D01*
X111362385Y-74539133D01*
X111405051Y-74594464D01*
X111411029Y-74664077D01*
X111378423Y-74725872D01*
X111317584Y-74760229D01*
X111270102Y-74761924D01*
X111215335Y-74753250D01*
X111042113Y-74753250D01*
X111002452Y-74759531D01*
X110871026Y-74780347D01*
X110706276Y-74833878D01*
X110551935Y-74912518D01*
X110495013Y-74953875D01*
X110411796Y-75014336D01*
X110411794Y-75014338D01*
X110411793Y-75014338D01*
X110289312Y-75136819D01*
X110289312Y-75136820D01*
X110289310Y-75136822D01*
X110245583Y-75197006D01*
X110187492Y-75276961D01*
X110108852Y-75431302D01*
X110055321Y-75596052D01*
X110028224Y-75767139D01*
X105541348Y-75767139D01*
X101935607Y-72161398D01*
X105048224Y-72161398D01*
X105048224Y-72366101D01*
X105080246Y-72568284D01*
X105143505Y-72762973D01*
X105236439Y-72945363D01*
X105356752Y-73110963D01*
X105501510Y-73255721D01*
X105656473Y-73368306D01*
X105667114Y-73376037D01*
X105783331Y-73435253D01*
X105849500Y-73468968D01*
X105849502Y-73468968D01*
X105849505Y-73468970D01*
X105953861Y-73502877D01*
X106044189Y-73532227D01*
X106145281Y-73548238D01*
X106246372Y-73564250D01*
X106246373Y-73564250D01*
X106451075Y-73564250D01*
X106451076Y-73564250D01*
X106653258Y-73532227D01*
X106847943Y-73468970D01*
X107030334Y-73376037D01*
X107123314Y-73308482D01*
X107195937Y-73255721D01*
X107195939Y-73255718D01*
X107195943Y-73255716D01*
X107340690Y-73110969D01*
X107340692Y-73110965D01*
X107340695Y-73110963D01*
X107393456Y-73038340D01*
X107461011Y-72945360D01*
X107553944Y-72762969D01*
X107617201Y-72568284D01*
X107649224Y-72366102D01*
X107649224Y-72161398D01*
X107622797Y-71994548D01*
X107617201Y-71959215D01*
X107575382Y-71830510D01*
X107553944Y-71764531D01*
X107553942Y-71764528D01*
X107553942Y-71764526D01*
X107520227Y-71698357D01*
X107461011Y-71582140D01*
X107453280Y-71571499D01*
X107340695Y-71416536D01*
X107195937Y-71271778D01*
X107030337Y-71151465D01*
X107030336Y-71151464D01*
X107030334Y-71151463D01*
X106973377Y-71122441D01*
X106847947Y-71058531D01*
X106653258Y-70995272D01*
X106478719Y-70967628D01*
X106451076Y-70963250D01*
X106246372Y-70963250D01*
X106222053Y-70967101D01*
X106044189Y-70995272D01*
X105849500Y-71058531D01*
X105667110Y-71151465D01*
X105501510Y-71271778D01*
X105356752Y-71416536D01*
X105236439Y-71582136D01*
X105143505Y-71764526D01*
X105080246Y-71959215D01*
X105048224Y-72161398D01*
X101935607Y-72161398D01*
X101230882Y-71456673D01*
X101197397Y-71395350D01*
X101200631Y-71330678D01*
X101259814Y-71148535D01*
X101299224Y-70899712D01*
X101299224Y-70647788D01*
X101259814Y-70398965D01*
X101181965Y-70159371D01*
X101181963Y-70159368D01*
X101181963Y-70159366D01*
X101140471Y-70077934D01*
X101067594Y-69934905D01*
X101048676Y-69908867D01*
X100919522Y-69731100D01*
X100919518Y-69731095D01*
X100741378Y-69552955D01*
X100741373Y-69552951D01*
X100537572Y-69404882D01*
X100537571Y-69404881D01*
X100537569Y-69404880D01*
X100420729Y-69345347D01*
X100313107Y-69290510D01*
X100073509Y-69212660D01*
X99824686Y-69173250D01*
X99572762Y-69173250D01*
X99448350Y-69192955D01*
X99323938Y-69212660D01*
X99084340Y-69290510D01*
X98859875Y-69404882D01*
X98656074Y-69552951D01*
X98656069Y-69552955D01*
X98477929Y-69731095D01*
X98477925Y-69731100D01*
X98329856Y-69934901D01*
X98215484Y-70159366D01*
X98137634Y-70398964D01*
X98137634Y-70398965D01*
X98098224Y-70647788D01*
X98098224Y-70899712D01*
X98123379Y-71058531D01*
X98137634Y-71148535D01*
X98215484Y-71388133D01*
X98294137Y-71542497D01*
X98314336Y-71582140D01*
X98329856Y-71612598D01*
X98477925Y-71816399D01*
X98477929Y-71816404D01*
X98656069Y-71994544D01*
X98656074Y-71994548D01*
X98833841Y-72123702D01*
X98859879Y-72142620D01*
X99002908Y-72215497D01*
X99084340Y-72256989D01*
X99084342Y-72256989D01*
X99084345Y-72256991D01*
X99323939Y-72334840D01*
X99572762Y-72374250D01*
X99572763Y-72374250D01*
X99824685Y-72374250D01*
X99824686Y-72374250D01*
X100073509Y-72334840D01*
X100255652Y-72275657D01*
X100325488Y-72273662D01*
X100381647Y-72305908D01*
X102663976Y-74588237D01*
X102697461Y-74649560D01*
X102692477Y-74719252D01*
X102650605Y-74775185D01*
X102585141Y-74799602D01*
X102537978Y-74793849D01*
X102496426Y-74780348D01*
X102496422Y-74780347D01*
X102364995Y-74759531D01*
X102325335Y-74753250D01*
X102152113Y-74753250D01*
X102112452Y-74759531D01*
X101981026Y-74780347D01*
X101816276Y-74833878D01*
X101661935Y-74912518D01*
X101605013Y-74953875D01*
X101521796Y-75014336D01*
X101521794Y-75014338D01*
X101521793Y-75014338D01*
X101399312Y-75136819D01*
X101399312Y-75136820D01*
X101399310Y-75136822D01*
X101355583Y-75197006D01*
X101297492Y-75276961D01*
X101218852Y-75431302D01*
X101165321Y-75596052D01*
X101138224Y-75767139D01*
X101138224Y-75940361D01*
X101165322Y-76111451D01*
X101218851Y-76276195D01*
X101297492Y-76430538D01*
X101399310Y-76570678D01*
X101521796Y-76693164D01*
X101661936Y-76794982D01*
X101816279Y-76873623D01*
X101981023Y-76927152D01*
X102152113Y-76954250D01*
X102152114Y-76954250D01*
X102325334Y-76954250D01*
X102325335Y-76954250D01*
X102496425Y-76927152D01*
X102661169Y-76873623D01*
X102815512Y-76794982D01*
X102955652Y-76693164D01*
X103078138Y-76570678D01*
X103179956Y-76430538D01*
X103258597Y-76276195D01*
X103312126Y-76111451D01*
X103339224Y-75940361D01*
X103339224Y-75767139D01*
X103312126Y-75596049D01*
X103298623Y-75554494D01*
X103296629Y-75484656D01*
X103332709Y-75424823D01*
X103395410Y-75393994D01*
X103464824Y-75401958D01*
X103504236Y-75428497D01*
X106447308Y-78371569D01*
X106480793Y-78432892D01*
X106475809Y-78502584D01*
X106433937Y-78558517D01*
X106368473Y-78582934D01*
X106359627Y-78583250D01*
X105748722Y-78583250D01*
X105748704Y-78583251D01*
X105645927Y-78593750D01*
X105645924Y-78593751D01*
X105479392Y-78648935D01*
X105479387Y-78648937D01*
X105330066Y-78741039D01*
X105206013Y-78865092D01*
X105113911Y-79014413D01*
X105113909Y-79014418D01*
X105058724Y-79180954D01*
X105057812Y-79185217D01*
X105024525Y-79246648D01*
X104963310Y-79280331D01*
X104936561Y-79283250D01*
X98570394Y-79283250D01*
X98570378Y-79283249D01*
X98562782Y-79283249D01*
X98404667Y-79283249D01*
X98297311Y-79312015D01*
X98251934Y-79324174D01*
X98251933Y-79324175D01*
X98201820Y-79353109D01*
X98201819Y-79353110D01*
X98158413Y-79378170D01*
X98115009Y-79403229D01*
X98115006Y-79403231D01*
X98003202Y-79515036D01*
X90195984Y-87322253D01*
X90134661Y-87355738D01*
X90069986Y-87352503D01*
X89989968Y-87326504D01*
X89989964Y-87326503D01*
X89828681Y-87300958D01*
X89780011Y-87293250D01*
X87667437Y-87293250D01*
X87618766Y-87300958D01*
X87457484Y-87326503D01*
X87255309Y-87392194D01*
X87065903Y-87488701D01*
X86893937Y-87613640D01*
X86743614Y-87763963D01*
X86618675Y-87935929D01*
X86522168Y-88125335D01*
X86456477Y-88327510D01*
X86423224Y-88537463D01*
X86423224Y-88750036D01*
X86452461Y-88934635D01*
X86456478Y-88959993D01*
X86515234Y-89140826D01*
X86522168Y-89162164D01*
X86618675Y-89351570D01*
X86743614Y-89523536D01*
X86893937Y-89673859D01*
X87065906Y-89798800D01*
X87074670Y-89803266D01*
X87125466Y-89851241D01*
X87142260Y-89919062D01*
X87119722Y-89985197D01*
X87074670Y-90024234D01*
X87065906Y-90028699D01*
X86893937Y-90153640D01*
X86743614Y-90303963D01*
X86618675Y-90475929D01*
X86522168Y-90665335D01*
X86456477Y-90867510D01*
X86423224Y-91077463D01*
X86423224Y-91290036D01*
X86455015Y-91490761D01*
X86456478Y-91499993D01*
X86470635Y-91543565D01*
X86479528Y-91570932D01*
X86481523Y-91640773D01*
X86445443Y-91700606D01*
X86382742Y-91731434D01*
X86361597Y-91733250D01*
X77199665Y-91733250D01*
X77162058Y-91743326D01*
X77162059Y-91743327D01*
X77046938Y-91774173D01*
X77046933Y-91774176D01*
X76910014Y-91853225D01*
X76910006Y-91853231D01*
X76798202Y-91965036D01*
X76098637Y-92664600D01*
X76037314Y-92698085D01*
X75967622Y-92693101D01*
X75911689Y-92651229D01*
X75887272Y-92585765D01*
X75888482Y-92557530D01*
X75899224Y-92489712D01*
X75899224Y-92237788D01*
X75859814Y-91988965D01*
X75781965Y-91749371D01*
X75781963Y-91749368D01*
X75781963Y-91749366D01*
X75736816Y-91660761D01*
X75667594Y-91524905D01*
X75605362Y-91439250D01*
X75519522Y-91321100D01*
X75519518Y-91321095D01*
X75341378Y-91142955D01*
X75341373Y-91142951D01*
X75137572Y-90994882D01*
X75137571Y-90994881D01*
X75137569Y-90994880D01*
X75058370Y-90954526D01*
X74913107Y-90880510D01*
X74673509Y-90802660D01*
X74424686Y-90763250D01*
X74172762Y-90763250D01*
X74048350Y-90782955D01*
X73923938Y-90802660D01*
X73684340Y-90880510D01*
X73459875Y-90994882D01*
X73256074Y-91142951D01*
X73256069Y-91142955D01*
X73077929Y-91321095D01*
X73077925Y-91321100D01*
X72929856Y-91524901D01*
X72815484Y-91749366D01*
X72737634Y-91988964D01*
X72698224Y-92237788D01*
X72698224Y-92358000D01*
X72678539Y-92425039D01*
X72625735Y-92470794D01*
X72574224Y-92482000D01*
X70452527Y-92482000D01*
X70385488Y-92462315D01*
X70339733Y-92409511D01*
X70329789Y-92340353D01*
X70352209Y-92285115D01*
X70392826Y-92229208D01*
X70461011Y-92135360D01*
X70553944Y-91952969D01*
X70617201Y-91758284D01*
X70649224Y-91556102D01*
X70649224Y-91351398D01*
X70629178Y-91224835D01*
X70617201Y-91149215D01*
X70578590Y-91030383D01*
X70553944Y-90954531D01*
X70553942Y-90954528D01*
X70553942Y-90954526D01*
X70516228Y-90880509D01*
X70461011Y-90772140D01*
X70453280Y-90761499D01*
X70340695Y-90606536D01*
X70195937Y-90461778D01*
X70030337Y-90341465D01*
X70030336Y-90341464D01*
X70030334Y-90341463D01*
X69956736Y-90303963D01*
X69847947Y-90248531D01*
X69653258Y-90185272D01*
X69478719Y-90157628D01*
X69451076Y-90153250D01*
X69246372Y-90153250D01*
X69222053Y-90157101D01*
X69044189Y-90185272D01*
X68849500Y-90248531D01*
X68667110Y-90341465D01*
X68501510Y-90461778D01*
X68356752Y-90606536D01*
X68236439Y-90772136D01*
X68143505Y-90954526D01*
X68080246Y-91149215D01*
X68048224Y-91351398D01*
X68048224Y-91556101D01*
X68077478Y-91740807D01*
X68068523Y-91810101D01*
X68023527Y-91863553D01*
X67956775Y-91884192D01*
X67889462Y-91865467D01*
X67882129Y-91860530D01*
X67797657Y-91799157D01*
X67748629Y-91774176D01*
X67587220Y-91691933D01*
X67362592Y-91618946D01*
X67129321Y-91582000D01*
X67129316Y-91582000D01*
X66893132Y-91582000D01*
X66893127Y-91582000D01*
X66659855Y-91618946D01*
X66435227Y-91691933D01*
X66224790Y-91799157D01*
X66140328Y-91860523D01*
X66033714Y-91937983D01*
X66033712Y-91937985D01*
X66033711Y-91937985D01*
X65866709Y-92104987D01*
X65866709Y-92104988D01*
X65866707Y-92104990D01*
X65844642Y-92135360D01*
X65727881Y-92296066D01*
X65725383Y-92300969D01*
X65670079Y-92409511D01*
X65667641Y-92414295D01*
X65619666Y-92465091D01*
X65557156Y-92482000D01*
X55097893Y-92482000D01*
X55097877Y-92481999D01*
X55090281Y-92481999D01*
X54932167Y-92481999D01*
X54824811Y-92510765D01*
X54779434Y-92522924D01*
X54779433Y-92522925D01*
X54729320Y-92551859D01*
X54729319Y-92551860D01*
X54685913Y-92576920D01*
X54642509Y-92601979D01*
X54642506Y-92601981D01*
X54223404Y-93021084D01*
X54162081Y-93054569D01*
X54092389Y-93049585D01*
X54036456Y-93007713D01*
X54012039Y-92942249D01*
X54011723Y-92933403D01*
X54011723Y-92034629D01*
X54011722Y-92034623D01*
X54011721Y-92034616D01*
X54005315Y-91975017D01*
X54001592Y-91965036D01*
X53955021Y-91840171D01*
X53955017Y-91840164D01*
X53868771Y-91724955D01*
X53868768Y-91724952D01*
X53753559Y-91638706D01*
X53753552Y-91638702D01*
X53618706Y-91588408D01*
X53618707Y-91588408D01*
X53559107Y-91582001D01*
X53559105Y-91582000D01*
X53559097Y-91582000D01*
X53559088Y-91582000D01*
X51463353Y-91582000D01*
X51463347Y-91582001D01*
X51403740Y-91588408D01*
X51268895Y-91638702D01*
X51268888Y-91638706D01*
X51153679Y-91724952D01*
X51153676Y-91724955D01*
X51067430Y-91840164D01*
X51067426Y-91840171D01*
X51017132Y-91975017D01*
X51010725Y-92034616D01*
X51010725Y-92034623D01*
X51010724Y-92034635D01*
X51010724Y-93682400D01*
X50991039Y-93749439D01*
X50974406Y-93770081D01*
X50842510Y-93901978D01*
X50842509Y-93901977D01*
X50842508Y-93901980D01*
X50730705Y-94013782D01*
X50730701Y-94013787D01*
X50680814Y-94100196D01*
X50680814Y-94100197D01*
X50651647Y-94150714D01*
X50641972Y-94186822D01*
X50610723Y-94303443D01*
X50610723Y-94303445D01*
X50610723Y-94471546D01*
X50610724Y-94471559D01*
X50610724Y-98534308D01*
X50610723Y-98534326D01*
X50610723Y-98700032D01*
X50610722Y-98700032D01*
X48973000Y-98700032D01*
X48973000Y-88934635D01*
X57910724Y-88934635D01*
X57910724Y-91030370D01*
X57910725Y-91030376D01*
X57917132Y-91089983D01*
X57967426Y-91224828D01*
X57967430Y-91224835D01*
X58053676Y-91340044D01*
X58053679Y-91340047D01*
X58168888Y-91426293D01*
X58168895Y-91426297D01*
X58303741Y-91476591D01*
X58303740Y-91476591D01*
X58310668Y-91477335D01*
X58363351Y-91483000D01*
X61659096Y-91482999D01*
X61718707Y-91476591D01*
X61853555Y-91426296D01*
X61968770Y-91340046D01*
X62055020Y-91224831D01*
X62105315Y-91089983D01*
X62111724Y-91030373D01*
X62111723Y-88934628D01*
X62105315Y-88875017D01*
X62098321Y-88856266D01*
X62055021Y-88740171D01*
X62055017Y-88740164D01*
X61968771Y-88624955D01*
X61968768Y-88624952D01*
X61853559Y-88538706D01*
X61853552Y-88538702D01*
X61718706Y-88488408D01*
X61718707Y-88488408D01*
X61659107Y-88482001D01*
X61659105Y-88482000D01*
X61659097Y-88482000D01*
X61659088Y-88482000D01*
X58363353Y-88482000D01*
X58363347Y-88482001D01*
X58303740Y-88488408D01*
X58168895Y-88538702D01*
X58168888Y-88538706D01*
X58053679Y-88624952D01*
X58053676Y-88624955D01*
X57967430Y-88740164D01*
X57967426Y-88740171D01*
X57917132Y-88875017D01*
X57912739Y-88915885D01*
X57910725Y-88934623D01*
X57910724Y-88934635D01*
X48973000Y-88934635D01*
X48973000Y-88640898D01*
X48992685Y-88573859D01*
X48999750Y-88563966D01*
X49019733Y-88538706D01*
X54845946Y-81173748D01*
X59122964Y-75767139D01*
X71928224Y-75767139D01*
X71928224Y-75940361D01*
X71955322Y-76111451D01*
X72008851Y-76276195D01*
X72087492Y-76430538D01*
X72189310Y-76570678D01*
X72311796Y-76693164D01*
X72451936Y-76794982D01*
X72606279Y-76873623D01*
X72771023Y-76927152D01*
X72942113Y-76954250D01*
X72942114Y-76954250D01*
X73115334Y-76954250D01*
X73115335Y-76954250D01*
X73286425Y-76927152D01*
X73451169Y-76873623D01*
X73605512Y-76794982D01*
X73745652Y-76693164D01*
X73868138Y-76570678D01*
X73969956Y-76430538D01*
X74048597Y-76276195D01*
X74102126Y-76111451D01*
X74129224Y-75940361D01*
X74129224Y-75767139D01*
X74119578Y-75706236D01*
X75858224Y-75706236D01*
X75858224Y-76001263D01*
X75890295Y-76244863D01*
X75896731Y-76293743D01*
X75970936Y-76570680D01*
X75973085Y-76578701D01*
X75973088Y-76578711D01*
X76085978Y-76851250D01*
X76085982Y-76851260D01*
X76233485Y-77106743D01*
X76413076Y-77340790D01*
X76413082Y-77340797D01*
X76621676Y-77549391D01*
X76621683Y-77549397D01*
X76855730Y-77728988D01*
X77111213Y-77876491D01*
X77111214Y-77876491D01*
X77111217Y-77876493D01*
X77383772Y-77989389D01*
X77668731Y-78065743D01*
X77961218Y-78104250D01*
X77961225Y-78104250D01*
X78256223Y-78104250D01*
X78256230Y-78104250D01*
X78548717Y-78065743D01*
X78833676Y-77989389D01*
X79106231Y-77876493D01*
X79361718Y-77728988D01*
X79595766Y-77549396D01*
X79804370Y-77340792D01*
X79825848Y-77312802D01*
X79882276Y-77271599D01*
X79952022Y-77267444D01*
X80012942Y-77301656D01*
X80045695Y-77363374D01*
X80048224Y-77388288D01*
X80048224Y-88257449D01*
X80028539Y-88324488D01*
X79980519Y-88367934D01*
X79809875Y-88454882D01*
X79606074Y-88602951D01*
X79606069Y-88602955D01*
X79427929Y-88781095D01*
X79427925Y-88781100D01*
X79279856Y-88984901D01*
X79165484Y-89209366D01*
X79087634Y-89448964D01*
X79087634Y-89448965D01*
X79048224Y-89697788D01*
X79048224Y-89949712D01*
X79060735Y-90028701D01*
X79087634Y-90198535D01*
X79165484Y-90438133D01*
X79279856Y-90662598D01*
X79427925Y-90866399D01*
X79427929Y-90866404D01*
X79606069Y-91044544D01*
X79606074Y-91044548D01*
X79750137Y-91149215D01*
X79809879Y-91192620D01*
X79952908Y-91265497D01*
X80034340Y-91306989D01*
X80034342Y-91306989D01*
X80034345Y-91306991D01*
X80273939Y-91384840D01*
X80522762Y-91424250D01*
X80522763Y-91424250D01*
X80774685Y-91424250D01*
X80774686Y-91424250D01*
X81023509Y-91384840D01*
X81263103Y-91306991D01*
X81487569Y-91192620D01*
X81691380Y-91044543D01*
X81869517Y-90866406D01*
X82017594Y-90662595D01*
X82131965Y-90438129D01*
X82209814Y-90198535D01*
X82249224Y-89949712D01*
X82249224Y-89697788D01*
X82209814Y-89448965D01*
X82131965Y-89209371D01*
X82131963Y-89209368D01*
X82131963Y-89209366D01*
X82090471Y-89127934D01*
X82017594Y-88984905D01*
X81981071Y-88934635D01*
X81869522Y-88781100D01*
X81869518Y-88781095D01*
X81691378Y-88602955D01*
X81691373Y-88602951D01*
X81487572Y-88454882D01*
X81487571Y-88454881D01*
X81487569Y-88454880D01*
X81411834Y-88416291D01*
X81316929Y-88367934D01*
X81266133Y-88319959D01*
X81249224Y-88257449D01*
X81249224Y-79283733D01*
X86048224Y-79283733D01*
X86048224Y-80483751D01*
X86048225Y-80483768D01*
X86058724Y-80586546D01*
X86058725Y-80586549D01*
X86096931Y-80701844D01*
X86113910Y-80753084D01*
X86206012Y-80902406D01*
X86330068Y-81026462D01*
X86479390Y-81118564D01*
X86645927Y-81173749D01*
X86748715Y-81184250D01*
X87948732Y-81184249D01*
X88051521Y-81173749D01*
X88218058Y-81118564D01*
X88367380Y-81026462D01*
X88491436Y-80902406D01*
X88583538Y-80753084D01*
X88638723Y-80586547D01*
X88649224Y-80483759D01*
X88649223Y-79283742D01*
X88638723Y-79180953D01*
X88583538Y-79014416D01*
X88491436Y-78865094D01*
X88367380Y-78741038D01*
X88218058Y-78648936D01*
X88051521Y-78593751D01*
X88051519Y-78593750D01*
X87948734Y-78583250D01*
X86748722Y-78583250D01*
X86748705Y-78583251D01*
X86645927Y-78593750D01*
X86645924Y-78593751D01*
X86479392Y-78648935D01*
X86479387Y-78648937D01*
X86330066Y-78741039D01*
X86206013Y-78865092D01*
X86113911Y-79014413D01*
X86113910Y-79014416D01*
X86058725Y-79180953D01*
X86058725Y-79180954D01*
X86058724Y-79180954D01*
X86048224Y-79283733D01*
X81249224Y-79283733D01*
X81249224Y-75767139D01*
X82088224Y-75767139D01*
X82088224Y-75940361D01*
X82115322Y-76111451D01*
X82168851Y-76276195D01*
X82247492Y-76430538D01*
X82349310Y-76570678D01*
X82471796Y-76693164D01*
X82611936Y-76794982D01*
X82766279Y-76873623D01*
X82931023Y-76927152D01*
X83102113Y-76954250D01*
X83102114Y-76954250D01*
X83275334Y-76954250D01*
X83275335Y-76954250D01*
X83446425Y-76927152D01*
X83611169Y-76873623D01*
X83765512Y-76794982D01*
X83905652Y-76693164D01*
X84028138Y-76570678D01*
X84129956Y-76430538D01*
X84208597Y-76276195D01*
X84262126Y-76111451D01*
X84289224Y-75940361D01*
X84289224Y-75767139D01*
X90978224Y-75767139D01*
X90978224Y-75940361D01*
X91005322Y-76111451D01*
X91058851Y-76276195D01*
X91137492Y-76430538D01*
X91239310Y-76570678D01*
X91361796Y-76693164D01*
X91501936Y-76794982D01*
X91656279Y-76873623D01*
X91821023Y-76927152D01*
X91992113Y-76954250D01*
X91992114Y-76954250D01*
X92165334Y-76954250D01*
X92165335Y-76954250D01*
X92336425Y-76927152D01*
X92501169Y-76873623D01*
X92655512Y-76794982D01*
X92795652Y-76693164D01*
X92918138Y-76570678D01*
X93019956Y-76430538D01*
X93098597Y-76276195D01*
X93152126Y-76111451D01*
X93179224Y-75940361D01*
X93179224Y-75767139D01*
X93169578Y-75706236D01*
X94908224Y-75706236D01*
X94908224Y-76001263D01*
X94940295Y-76244863D01*
X94946731Y-76293743D01*
X95020936Y-76570680D01*
X95023085Y-76578701D01*
X95023088Y-76578711D01*
X95135978Y-76851250D01*
X95135982Y-76851260D01*
X95283485Y-77106743D01*
X95463076Y-77340790D01*
X95463082Y-77340797D01*
X95671676Y-77549391D01*
X95671683Y-77549397D01*
X95905730Y-77728988D01*
X96161213Y-77876491D01*
X96161214Y-77876491D01*
X96161217Y-77876493D01*
X96433772Y-77989389D01*
X96718731Y-78065743D01*
X97011218Y-78104250D01*
X97011225Y-78104250D01*
X97306223Y-78104250D01*
X97306230Y-78104250D01*
X97598717Y-78065743D01*
X97883676Y-77989389D01*
X98156231Y-77876493D01*
X98411718Y-77728988D01*
X98645766Y-77549396D01*
X98854370Y-77340792D01*
X99033962Y-77106744D01*
X99181467Y-76851257D01*
X99294363Y-76578702D01*
X99370717Y-76293743D01*
X99409224Y-76001256D01*
X99409224Y-75706244D01*
X99370717Y-75413757D01*
X99294363Y-75128798D01*
X99181467Y-74856243D01*
X99148765Y-74799602D01*
X99033962Y-74600756D01*
X98854371Y-74366709D01*
X98854365Y-74366702D01*
X98645771Y-74158108D01*
X98645764Y-74158102D01*
X98411717Y-73978511D01*
X98156234Y-73831008D01*
X98156224Y-73831004D01*
X97883685Y-73718114D01*
X97883678Y-73718112D01*
X97883676Y-73718111D01*
X97598717Y-73641757D01*
X97549837Y-73635321D01*
X97306237Y-73603250D01*
X97306230Y-73603250D01*
X97011218Y-73603250D01*
X97011210Y-73603250D01*
X96732809Y-73639903D01*
X96718731Y-73641757D01*
X96544152Y-73688535D01*
X96433772Y-73718111D01*
X96433762Y-73718114D01*
X96161223Y-73831004D01*
X96161213Y-73831008D01*
X95905730Y-73978511D01*
X95671683Y-74158102D01*
X95671676Y-74158108D01*
X95463082Y-74366702D01*
X95463076Y-74366709D01*
X95283485Y-74600756D01*
X95135982Y-74856239D01*
X95135978Y-74856249D01*
X95023088Y-75128788D01*
X95023085Y-75128798D01*
X94952027Y-75393994D01*
X94946732Y-75413754D01*
X94946730Y-75413765D01*
X94908224Y-75706236D01*
X93169578Y-75706236D01*
X93152126Y-75596049D01*
X93098597Y-75431305D01*
X93019956Y-75276962D01*
X92918138Y-75136822D01*
X92866206Y-75084890D01*
X92832721Y-75023567D01*
X92837705Y-74953875D01*
X92879577Y-74897942D01*
X92945041Y-74873525D01*
X92973285Y-74874736D01*
X92973936Y-74874839D01*
X92973939Y-74874840D01*
X93222762Y-74914250D01*
X93222763Y-74914250D01*
X93474685Y-74914250D01*
X93474686Y-74914250D01*
X93723509Y-74874840D01*
X93963103Y-74796991D01*
X94187569Y-74682620D01*
X94391380Y-74534543D01*
X94569517Y-74356406D01*
X94717594Y-74152595D01*
X94831965Y-73928129D01*
X94909814Y-73688535D01*
X94949224Y-73439712D01*
X94949224Y-73187788D01*
X94909814Y-72938965D01*
X94831965Y-72699371D01*
X94831963Y-72699368D01*
X94831963Y-72699366D01*
X94765173Y-72568284D01*
X94717594Y-72474905D01*
X94638544Y-72366102D01*
X94569522Y-72271100D01*
X94569518Y-72271095D01*
X94391378Y-72092955D01*
X94391373Y-72092951D01*
X94187572Y-71944882D01*
X94187571Y-71944881D01*
X94187569Y-71944880D01*
X94117471Y-71909163D01*
X93963107Y-71830510D01*
X93723509Y-71752660D01*
X93474686Y-71713250D01*
X93222762Y-71713250D01*
X93098350Y-71732955D01*
X92973938Y-71752660D01*
X92734340Y-71830510D01*
X92509875Y-71944882D01*
X92306074Y-72092951D01*
X92306069Y-72092955D01*
X92127929Y-72271095D01*
X92127925Y-72271100D01*
X91979856Y-72474901D01*
X91865484Y-72699366D01*
X91787634Y-72938964D01*
X91748224Y-73187788D01*
X91748224Y-73439711D01*
X91787634Y-73688535D01*
X91865484Y-73928133D01*
X91979856Y-74152598D01*
X92127925Y-74356399D01*
X92127929Y-74356404D01*
X92127931Y-74356406D01*
X92306068Y-74534543D01*
X92306069Y-74534544D01*
X92306068Y-74534544D01*
X92312385Y-74539133D01*
X92355051Y-74594464D01*
X92361029Y-74664077D01*
X92328423Y-74725872D01*
X92267584Y-74760229D01*
X92220102Y-74761924D01*
X92165335Y-74753250D01*
X91992113Y-74753250D01*
X91952452Y-74759531D01*
X91821026Y-74780347D01*
X91656276Y-74833878D01*
X91501935Y-74912518D01*
X91445013Y-74953875D01*
X91361796Y-75014336D01*
X91361794Y-75014338D01*
X91361793Y-75014338D01*
X91239312Y-75136819D01*
X91239312Y-75136820D01*
X91239310Y-75136822D01*
X91195583Y-75197006D01*
X91137492Y-75276961D01*
X91058852Y-75431302D01*
X91005321Y-75596052D01*
X90978224Y-75767139D01*
X84289224Y-75767139D01*
X84262126Y-75596049D01*
X84208597Y-75431305D01*
X84129956Y-75276962D01*
X84028138Y-75136822D01*
X83905652Y-75014336D01*
X83765512Y-74912518D01*
X83611169Y-74833877D01*
X83446425Y-74780348D01*
X83446423Y-74780347D01*
X83446422Y-74780347D01*
X83314995Y-74759531D01*
X83275335Y-74753250D01*
X83102113Y-74753250D01*
X83062452Y-74759531D01*
X82931026Y-74780347D01*
X82766276Y-74833878D01*
X82611935Y-74912518D01*
X82555013Y-74953875D01*
X82471796Y-75014336D01*
X82471794Y-75014338D01*
X82471793Y-75014338D01*
X82349312Y-75136819D01*
X82349312Y-75136820D01*
X82349310Y-75136822D01*
X82305583Y-75197006D01*
X82247492Y-75276961D01*
X82168852Y-75431302D01*
X82115321Y-75596052D01*
X82088224Y-75767139D01*
X81249224Y-75767139D01*
X81249224Y-72340050D01*
X81268909Y-72273011D01*
X81316928Y-72229565D01*
X81450715Y-72161398D01*
X86048224Y-72161398D01*
X86048224Y-72366101D01*
X86080246Y-72568284D01*
X86143505Y-72762973D01*
X86236439Y-72945363D01*
X86356752Y-73110963D01*
X86501510Y-73255721D01*
X86656473Y-73368306D01*
X86667114Y-73376037D01*
X86783331Y-73435253D01*
X86849500Y-73468968D01*
X86849502Y-73468968D01*
X86849505Y-73468970D01*
X86953861Y-73502877D01*
X87044189Y-73532227D01*
X87145281Y-73548238D01*
X87246372Y-73564250D01*
X87246373Y-73564250D01*
X87451075Y-73564250D01*
X87451076Y-73564250D01*
X87653258Y-73532227D01*
X87847943Y-73468970D01*
X88030334Y-73376037D01*
X88123314Y-73308482D01*
X88195937Y-73255721D01*
X88195939Y-73255718D01*
X88195943Y-73255716D01*
X88340690Y-73110969D01*
X88340692Y-73110965D01*
X88340695Y-73110963D01*
X88393456Y-73038340D01*
X88461011Y-72945360D01*
X88553944Y-72762969D01*
X88617201Y-72568284D01*
X88649224Y-72366102D01*
X88649224Y-72161398D01*
X88622797Y-71994548D01*
X88617201Y-71959215D01*
X88575382Y-71830510D01*
X88553944Y-71764531D01*
X88553942Y-71764528D01*
X88553942Y-71764526D01*
X88520227Y-71698357D01*
X88461011Y-71582140D01*
X88453280Y-71571499D01*
X88340695Y-71416536D01*
X88195937Y-71271778D01*
X88030337Y-71151465D01*
X88030336Y-71151464D01*
X88030334Y-71151463D01*
X87973377Y-71122441D01*
X87847947Y-71058531D01*
X87653258Y-70995272D01*
X87478719Y-70967628D01*
X87451076Y-70963250D01*
X87246372Y-70963250D01*
X87222053Y-70967101D01*
X87044189Y-70995272D01*
X86849500Y-71058531D01*
X86667110Y-71151465D01*
X86501510Y-71271778D01*
X86356752Y-71416536D01*
X86236439Y-71582136D01*
X86143505Y-71764526D01*
X86080246Y-71959215D01*
X86048224Y-72161398D01*
X81450715Y-72161398D01*
X81487569Y-72142620D01*
X81557293Y-72091962D01*
X81606506Y-72056208D01*
X81691374Y-71994548D01*
X81691376Y-71994545D01*
X81691380Y-71994543D01*
X81869517Y-71816406D01*
X82017594Y-71612595D01*
X82131965Y-71388129D01*
X82209814Y-71148535D01*
X82249224Y-70899712D01*
X82249224Y-70647788D01*
X82209814Y-70398965D01*
X82131965Y-70159371D01*
X82131963Y-70159368D01*
X82131963Y-70159366D01*
X82090471Y-70077934D01*
X82017594Y-69934905D01*
X81998676Y-69908867D01*
X81869522Y-69731100D01*
X81869518Y-69731095D01*
X81691378Y-69552955D01*
X81691373Y-69552951D01*
X81487572Y-69404882D01*
X81487571Y-69404881D01*
X81487569Y-69404880D01*
X81370729Y-69345347D01*
X81263107Y-69290510D01*
X81023509Y-69212660D01*
X80774686Y-69173250D01*
X80522762Y-69173250D01*
X80398350Y-69192955D01*
X80273938Y-69212660D01*
X80034340Y-69290510D01*
X79809875Y-69404882D01*
X79606074Y-69552951D01*
X79606069Y-69552955D01*
X79427929Y-69731095D01*
X79427925Y-69731100D01*
X79279856Y-69934901D01*
X79165484Y-70159366D01*
X79087634Y-70398964D01*
X79087634Y-70398965D01*
X79048224Y-70647788D01*
X79048224Y-70899712D01*
X79073379Y-71058531D01*
X79087634Y-71148535D01*
X79165484Y-71388133D01*
X79244137Y-71542497D01*
X79264336Y-71582140D01*
X79279856Y-71612598D01*
X79427925Y-71816399D01*
X79427929Y-71816404D01*
X79606069Y-71994544D01*
X79606074Y-71994548D01*
X79783841Y-72123702D01*
X79809879Y-72142620D01*
X79980519Y-72229565D01*
X80031315Y-72277539D01*
X80048224Y-72340050D01*
X80048224Y-74319211D01*
X80028539Y-74386250D01*
X79975735Y-74432005D01*
X79906577Y-74441949D01*
X79843021Y-74412924D01*
X79825849Y-74394699D01*
X79804368Y-74366705D01*
X79595771Y-74158108D01*
X79595764Y-74158102D01*
X79361717Y-73978511D01*
X79106234Y-73831008D01*
X79106224Y-73831004D01*
X78833685Y-73718114D01*
X78833678Y-73718112D01*
X78833676Y-73718111D01*
X78548717Y-73641757D01*
X78499837Y-73635321D01*
X78256237Y-73603250D01*
X78256230Y-73603250D01*
X77961218Y-73603250D01*
X77961210Y-73603250D01*
X77682809Y-73639903D01*
X77668731Y-73641757D01*
X77494152Y-73688535D01*
X77383772Y-73718111D01*
X77383762Y-73718114D01*
X77111223Y-73831004D01*
X77111213Y-73831008D01*
X76855730Y-73978511D01*
X76621683Y-74158102D01*
X76621676Y-74158108D01*
X76413082Y-74366702D01*
X76413076Y-74366709D01*
X76233485Y-74600756D01*
X76085982Y-74856239D01*
X76085978Y-74856249D01*
X75973088Y-75128788D01*
X75973085Y-75128798D01*
X75902027Y-75393994D01*
X75896732Y-75413754D01*
X75896730Y-75413765D01*
X75858224Y-75706236D01*
X74119578Y-75706236D01*
X74102126Y-75596049D01*
X74048597Y-75431305D01*
X73969956Y-75276962D01*
X73868138Y-75136822D01*
X73816206Y-75084890D01*
X73782721Y-75023567D01*
X73787705Y-74953875D01*
X73829577Y-74897942D01*
X73895041Y-74873525D01*
X73923285Y-74874736D01*
X73923936Y-74874839D01*
X73923939Y-74874840D01*
X74172762Y-74914250D01*
X74172763Y-74914250D01*
X74424685Y-74914250D01*
X74424686Y-74914250D01*
X74673509Y-74874840D01*
X74913103Y-74796991D01*
X75137569Y-74682620D01*
X75341380Y-74534543D01*
X75519517Y-74356406D01*
X75667594Y-74152595D01*
X75781965Y-73928129D01*
X75859814Y-73688535D01*
X75899224Y-73439712D01*
X75899224Y-73187788D01*
X75859814Y-72938965D01*
X75781965Y-72699371D01*
X75781963Y-72699368D01*
X75781963Y-72699366D01*
X75715173Y-72568284D01*
X75667594Y-72474905D01*
X75588544Y-72366102D01*
X75519522Y-72271100D01*
X75519518Y-72271095D01*
X75341378Y-72092955D01*
X75341373Y-72092951D01*
X75137572Y-71944882D01*
X75137571Y-71944881D01*
X75137569Y-71944880D01*
X75067471Y-71909163D01*
X74913107Y-71830510D01*
X74673509Y-71752660D01*
X74424686Y-71713250D01*
X74172762Y-71713250D01*
X74048350Y-71732955D01*
X73923938Y-71752660D01*
X73684340Y-71830510D01*
X73459875Y-71944882D01*
X73256074Y-72092951D01*
X73256069Y-72092955D01*
X73077929Y-72271095D01*
X73077925Y-72271100D01*
X72929856Y-72474901D01*
X72815484Y-72699366D01*
X72737634Y-72938964D01*
X72698224Y-73187788D01*
X72698224Y-73439711D01*
X72737634Y-73688535D01*
X72815484Y-73928133D01*
X72929856Y-74152598D01*
X73077925Y-74356399D01*
X73077929Y-74356404D01*
X73077931Y-74356406D01*
X73256068Y-74534543D01*
X73256069Y-74534544D01*
X73256068Y-74534544D01*
X73262385Y-74539133D01*
X73305051Y-74594464D01*
X73311029Y-74664077D01*
X73278423Y-74725872D01*
X73217584Y-74760229D01*
X73170102Y-74761924D01*
X73115335Y-74753250D01*
X72942113Y-74753250D01*
X72902452Y-74759531D01*
X72771026Y-74780347D01*
X72606276Y-74833878D01*
X72451935Y-74912518D01*
X72395013Y-74953875D01*
X72311796Y-75014336D01*
X72311794Y-75014338D01*
X72311793Y-75014338D01*
X72189312Y-75136819D01*
X72189312Y-75136820D01*
X72189310Y-75136822D01*
X72145583Y-75197006D01*
X72087492Y-75276961D01*
X72008852Y-75431302D01*
X71955321Y-75596052D01*
X71928224Y-75767139D01*
X59122964Y-75767139D01*
X59187677Y-75685335D01*
X74192889Y-56717139D01*
X90978224Y-56717139D01*
X90978224Y-56890361D01*
X91005322Y-57061451D01*
X91058851Y-57226195D01*
X91137492Y-57380538D01*
X91239310Y-57520678D01*
X91361796Y-57643164D01*
X91501936Y-57744982D01*
X91656279Y-57823623D01*
X91821023Y-57877152D01*
X91992113Y-57904250D01*
X91992114Y-57904250D01*
X92165334Y-57904250D01*
X92165335Y-57904250D01*
X92336425Y-57877152D01*
X92501169Y-57823623D01*
X92655512Y-57744982D01*
X92795652Y-57643164D01*
X92918138Y-57520678D01*
X93019956Y-57380538D01*
X93098597Y-57226195D01*
X93152126Y-57061451D01*
X93179224Y-56890361D01*
X93179224Y-56717139D01*
X93169578Y-56656236D01*
X94908224Y-56656236D01*
X94908224Y-56951263D01*
X94940295Y-57194863D01*
X94946731Y-57243743D01*
X95020936Y-57520680D01*
X95023085Y-57528701D01*
X95023088Y-57528711D01*
X95135978Y-57801250D01*
X95135982Y-57801260D01*
X95283485Y-58056743D01*
X95463076Y-58290790D01*
X95463082Y-58290797D01*
X95671676Y-58499391D01*
X95671683Y-58499397D01*
X95905730Y-58678988D01*
X96161213Y-58826491D01*
X96161214Y-58826491D01*
X96161217Y-58826493D01*
X96433772Y-58939389D01*
X96718731Y-59015743D01*
X97011218Y-59054250D01*
X97011225Y-59054250D01*
X97306223Y-59054250D01*
X97306230Y-59054250D01*
X97598717Y-59015743D01*
X97883676Y-58939389D01*
X98156231Y-58826493D01*
X98411718Y-58678988D01*
X98645766Y-58499396D01*
X98854370Y-58290792D01*
X99033962Y-58056744D01*
X99181467Y-57801257D01*
X99294363Y-57528702D01*
X99370717Y-57243743D01*
X99409224Y-56951256D01*
X99409224Y-56717139D01*
X101138224Y-56717139D01*
X101138224Y-56890361D01*
X101165322Y-57061451D01*
X101218851Y-57226195D01*
X101297492Y-57380538D01*
X101399310Y-57520678D01*
X101521796Y-57643164D01*
X101661936Y-57744982D01*
X101816279Y-57823623D01*
X101981023Y-57877152D01*
X102152113Y-57904250D01*
X102152114Y-57904250D01*
X102325334Y-57904250D01*
X102325335Y-57904250D01*
X102496425Y-57877152D01*
X102661169Y-57823623D01*
X102815512Y-57744982D01*
X102955652Y-57643164D01*
X103078138Y-57520678D01*
X103179956Y-57380538D01*
X103258597Y-57226195D01*
X103312126Y-57061451D01*
X103339224Y-56890361D01*
X103339224Y-56717139D01*
X103312126Y-56546049D01*
X103258597Y-56381305D01*
X103179956Y-56226962D01*
X103078138Y-56086822D01*
X102955652Y-55964336D01*
X102815512Y-55862518D01*
X102661169Y-55783877D01*
X102496425Y-55730348D01*
X102496423Y-55730347D01*
X102496422Y-55730347D01*
X102364995Y-55709531D01*
X102325335Y-55703250D01*
X102152113Y-55703250D01*
X102112452Y-55709531D01*
X101981026Y-55730347D01*
X101816276Y-55783878D01*
X101661935Y-55862518D01*
X101605013Y-55903875D01*
X101521796Y-55964336D01*
X101521794Y-55964338D01*
X101521793Y-55964338D01*
X101399312Y-56086819D01*
X101399312Y-56086820D01*
X101399310Y-56086822D01*
X101355583Y-56147006D01*
X101297492Y-56226961D01*
X101218852Y-56381302D01*
X101165321Y-56546052D01*
X101138224Y-56717139D01*
X99409224Y-56717139D01*
X99409224Y-56656244D01*
X99370717Y-56363757D01*
X99294363Y-56078798D01*
X99181467Y-55806243D01*
X99126033Y-55710229D01*
X99033962Y-55550756D01*
X98854371Y-55316709D01*
X98854365Y-55316702D01*
X98645771Y-55108108D01*
X98645764Y-55108102D01*
X98411717Y-54928511D01*
X98156234Y-54781008D01*
X98156224Y-54781004D01*
X97883685Y-54668114D01*
X97883678Y-54668112D01*
X97883676Y-54668111D01*
X97598717Y-54591757D01*
X97549837Y-54585321D01*
X97306237Y-54553250D01*
X97306230Y-54553250D01*
X97011218Y-54553250D01*
X97011210Y-54553250D01*
X96732809Y-54589903D01*
X96718731Y-54591757D01*
X96544152Y-54638535D01*
X96433772Y-54668111D01*
X96433762Y-54668114D01*
X96161223Y-54781004D01*
X96161213Y-54781008D01*
X95905730Y-54928511D01*
X95671683Y-55108102D01*
X95671676Y-55108108D01*
X95463082Y-55316702D01*
X95463076Y-55316709D01*
X95283485Y-55550756D01*
X95135982Y-55806239D01*
X95135978Y-55806249D01*
X95023088Y-56078788D01*
X95023085Y-56078798D01*
X94946732Y-56363754D01*
X94946730Y-56363765D01*
X94908224Y-56656236D01*
X93169578Y-56656236D01*
X93152126Y-56546049D01*
X93098597Y-56381305D01*
X93019956Y-56226962D01*
X92918138Y-56086822D01*
X92866206Y-56034890D01*
X92832721Y-55973567D01*
X92837705Y-55903875D01*
X92879577Y-55847942D01*
X92945041Y-55823525D01*
X92973285Y-55824736D01*
X92973936Y-55824839D01*
X92973939Y-55824840D01*
X93222762Y-55864250D01*
X93222763Y-55864250D01*
X93474685Y-55864250D01*
X93474686Y-55864250D01*
X93723509Y-55824840D01*
X93963103Y-55746991D01*
X94187569Y-55632620D01*
X94391380Y-55484543D01*
X94569517Y-55306406D01*
X94717594Y-55102595D01*
X94831965Y-54878129D01*
X94909814Y-54638535D01*
X94949224Y-54389712D01*
X94949224Y-54137788D01*
X94909814Y-53888965D01*
X94831965Y-53649371D01*
X94831963Y-53649368D01*
X94831963Y-53649366D01*
X94790471Y-53567934D01*
X94717594Y-53424905D01*
X94674871Y-53366102D01*
X94569522Y-53221100D01*
X94569518Y-53221095D01*
X94391378Y-53042955D01*
X94391373Y-53042951D01*
X94187572Y-52894882D01*
X94187571Y-52894881D01*
X94187569Y-52894880D01*
X94117471Y-52859163D01*
X93963107Y-52780510D01*
X93723509Y-52702660D01*
X93474686Y-52663250D01*
X93222762Y-52663250D01*
X93098350Y-52682955D01*
X92973938Y-52702660D01*
X92734340Y-52780510D01*
X92509875Y-52894882D01*
X92306074Y-53042951D01*
X92306069Y-53042955D01*
X92127929Y-53221095D01*
X92127925Y-53221100D01*
X91979856Y-53424901D01*
X91865484Y-53649366D01*
X91787634Y-53888964D01*
X91748224Y-54137788D01*
X91748224Y-54389711D01*
X91787634Y-54638535D01*
X91865484Y-54878133D01*
X91979856Y-55102598D01*
X92127925Y-55306399D01*
X92127929Y-55306404D01*
X92127931Y-55306406D01*
X92306068Y-55484543D01*
X92306069Y-55484544D01*
X92306068Y-55484544D01*
X92312385Y-55489133D01*
X92355051Y-55544464D01*
X92361029Y-55614077D01*
X92328423Y-55675872D01*
X92267584Y-55710229D01*
X92220102Y-55711924D01*
X92165335Y-55703250D01*
X91992113Y-55703250D01*
X91952452Y-55709531D01*
X91821026Y-55730347D01*
X91656276Y-55783878D01*
X91501935Y-55862518D01*
X91445013Y-55903875D01*
X91361796Y-55964336D01*
X91361794Y-55964338D01*
X91361793Y-55964338D01*
X91239312Y-56086819D01*
X91239312Y-56086820D01*
X91239310Y-56086822D01*
X91195583Y-56147006D01*
X91137492Y-56226961D01*
X91058852Y-56381302D01*
X91005321Y-56546052D01*
X90978224Y-56717139D01*
X74192889Y-56717139D01*
X74257602Y-56635335D01*
X78242665Y-51597788D01*
X98098224Y-51597788D01*
X98098224Y-51849711D01*
X98137634Y-52098535D01*
X98215484Y-52338133D01*
X98294137Y-52492497D01*
X98329478Y-52561858D01*
X98329856Y-52562598D01*
X98477925Y-52766399D01*
X98477929Y-52766404D01*
X98656069Y-52944544D01*
X98656074Y-52944548D01*
X98833841Y-53073702D01*
X98859879Y-53092620D01*
X98994864Y-53161398D01*
X99084340Y-53206989D01*
X99084342Y-53206989D01*
X99084345Y-53206991D01*
X99323939Y-53284840D01*
X99572762Y-53324250D01*
X99572763Y-53324250D01*
X99824685Y-53324250D01*
X99824686Y-53324250D01*
X100073509Y-53284840D01*
X100313103Y-53206991D01*
X100537569Y-53092620D01*
X100741380Y-52944543D01*
X100919517Y-52766406D01*
X101056476Y-52577898D01*
X101111805Y-52535232D01*
X101181419Y-52529253D01*
X101243214Y-52561858D01*
X101244475Y-52563102D01*
X108054103Y-59372730D01*
X108087588Y-59434053D01*
X108082604Y-59503745D01*
X108040732Y-59559678D01*
X107975268Y-59584095D01*
X107953827Y-59583770D01*
X107948734Y-59583250D01*
X106748722Y-59583250D01*
X106748705Y-59583251D01*
X106645927Y-59593750D01*
X106645924Y-59593751D01*
X106479392Y-59648935D01*
X106479387Y-59648937D01*
X106330066Y-59741039D01*
X106206013Y-59865092D01*
X106113911Y-60014413D01*
X106113910Y-60014416D01*
X106058725Y-60180953D01*
X106058725Y-60180954D01*
X106058724Y-60180954D01*
X106048224Y-60283733D01*
X106048224Y-61483751D01*
X106048225Y-61483768D01*
X106058724Y-61586546D01*
X106058725Y-61586549D01*
X106113909Y-61753081D01*
X106113910Y-61753084D01*
X106206012Y-61902406D01*
X106330068Y-62026462D01*
X106479390Y-62118564D01*
X106645927Y-62173749D01*
X106748715Y-62184250D01*
X107948732Y-62184249D01*
X108051521Y-62173749D01*
X108218058Y-62118564D01*
X108367380Y-62026462D01*
X108491436Y-61902406D01*
X108583538Y-61753084D01*
X108638723Y-61586547D01*
X108649224Y-61483759D01*
X108649223Y-60283742D01*
X108648703Y-60278653D01*
X108661472Y-60209961D01*
X108709351Y-60159076D01*
X108777141Y-60142154D01*
X108843318Y-60164569D01*
X108859739Y-60178366D01*
X117530770Y-68849398D01*
X117909371Y-69227999D01*
X117942856Y-69289322D01*
X117937872Y-69359014D01*
X117896000Y-69414947D01*
X117894575Y-69415998D01*
X117706074Y-69552951D01*
X117706069Y-69552955D01*
X117527929Y-69731095D01*
X117527925Y-69731100D01*
X117379856Y-69934901D01*
X117265484Y-70159366D01*
X117187634Y-70398964D01*
X117187634Y-70398965D01*
X117148224Y-70647788D01*
X117148224Y-70899712D01*
X117173379Y-71058531D01*
X117187634Y-71148535D01*
X117265484Y-71388133D01*
X117344137Y-71542497D01*
X117364336Y-71582140D01*
X117379856Y-71612598D01*
X117527925Y-71816399D01*
X117527929Y-71816404D01*
X117706069Y-71994544D01*
X117706074Y-71994548D01*
X117883841Y-72123702D01*
X117909879Y-72142620D01*
X118052908Y-72215497D01*
X118134340Y-72256989D01*
X118134342Y-72256989D01*
X118134345Y-72256991D01*
X118373939Y-72334840D01*
X118622762Y-72374250D01*
X118622763Y-72374250D01*
X118874685Y-72374250D01*
X118874686Y-72374250D01*
X119123509Y-72334840D01*
X119363103Y-72256991D01*
X119550715Y-72161398D01*
X124048224Y-72161398D01*
X124048224Y-72366101D01*
X124080246Y-72568284D01*
X124143505Y-72762973D01*
X124236439Y-72945363D01*
X124356752Y-73110963D01*
X124501510Y-73255721D01*
X124656473Y-73368306D01*
X124667114Y-73376037D01*
X124783331Y-73435253D01*
X124849500Y-73468968D01*
X124849502Y-73468968D01*
X124849505Y-73468970D01*
X124953861Y-73502877D01*
X125044189Y-73532227D01*
X125145281Y-73548238D01*
X125246372Y-73564250D01*
X125246373Y-73564250D01*
X125451075Y-73564250D01*
X125451076Y-73564250D01*
X125653258Y-73532227D01*
X125847943Y-73468970D01*
X126030334Y-73376037D01*
X126123314Y-73308482D01*
X126195937Y-73255721D01*
X126195939Y-73255718D01*
X126195943Y-73255716D01*
X126340690Y-73110969D01*
X126340692Y-73110965D01*
X126340695Y-73110963D01*
X126393456Y-73038340D01*
X126461011Y-72945360D01*
X126553944Y-72762969D01*
X126617201Y-72568284D01*
X126649224Y-72366102D01*
X126649224Y-72161398D01*
X126622797Y-71994548D01*
X126617201Y-71959215D01*
X126575382Y-71830510D01*
X126553944Y-71764531D01*
X126553942Y-71764528D01*
X126553942Y-71764526D01*
X126520227Y-71698357D01*
X126461011Y-71582140D01*
X126453280Y-71571499D01*
X126340695Y-71416536D01*
X126195937Y-71271778D01*
X126030337Y-71151465D01*
X126030336Y-71151464D01*
X126030334Y-71151463D01*
X125973377Y-71122441D01*
X125847947Y-71058531D01*
X125653258Y-70995272D01*
X125478719Y-70967628D01*
X125451076Y-70963250D01*
X125246372Y-70963250D01*
X125222053Y-70967101D01*
X125044189Y-70995272D01*
X124849500Y-71058531D01*
X124667110Y-71151465D01*
X124501510Y-71271778D01*
X124356752Y-71416536D01*
X124236439Y-71582136D01*
X124143505Y-71764526D01*
X124080246Y-71959215D01*
X124048224Y-72161398D01*
X119550715Y-72161398D01*
X119587569Y-72142620D01*
X119657293Y-72091962D01*
X119706506Y-72056208D01*
X119791374Y-71994548D01*
X119791376Y-71994545D01*
X119791380Y-71994543D01*
X119969517Y-71816406D01*
X120117594Y-71612595D01*
X120231965Y-71388129D01*
X120309814Y-71148535D01*
X120349224Y-70899712D01*
X120349224Y-70647788D01*
X120309814Y-70398965D01*
X120231965Y-70159371D01*
X120231963Y-70159368D01*
X120231963Y-70159366D01*
X120190471Y-70077934D01*
X120117594Y-69934905D01*
X120098676Y-69908867D01*
X119969522Y-69731100D01*
X119969518Y-69731095D01*
X119791378Y-69552955D01*
X119791373Y-69552951D01*
X119587572Y-69404882D01*
X119587571Y-69404881D01*
X119587569Y-69404880D01*
X119416930Y-69317935D01*
X119366134Y-69269960D01*
X119349225Y-69207450D01*
X119349225Y-69139060D01*
X119308300Y-68986330D01*
X119308297Y-68986325D01*
X119229248Y-68849406D01*
X119229242Y-68849398D01*
X111863595Y-61483751D01*
X103541241Y-53161398D01*
X106048224Y-53161398D01*
X106048224Y-53366101D01*
X106080246Y-53568284D01*
X106143505Y-53762973D01*
X106236439Y-53945363D01*
X106356752Y-54110963D01*
X106501510Y-54255721D01*
X106656473Y-54368306D01*
X106667114Y-54376037D01*
X106783331Y-54435253D01*
X106849500Y-54468968D01*
X106849502Y-54468968D01*
X106849505Y-54468970D01*
X106953861Y-54502877D01*
X107044189Y-54532227D01*
X107145281Y-54548238D01*
X107246372Y-54564250D01*
X107246373Y-54564250D01*
X107451075Y-54564250D01*
X107451076Y-54564250D01*
X107653258Y-54532227D01*
X107847943Y-54468970D01*
X108030334Y-54376037D01*
X108123314Y-54308482D01*
X108195937Y-54255721D01*
X108195939Y-54255718D01*
X108195943Y-54255716D01*
X108340690Y-54110969D01*
X108340692Y-54110965D01*
X108340695Y-54110963D01*
X108393456Y-54038340D01*
X108461011Y-53945360D01*
X108553944Y-53762969D01*
X108617201Y-53568284D01*
X108649224Y-53366102D01*
X108649224Y-53161398D01*
X108617201Y-52959215D01*
X108559136Y-52780510D01*
X108553944Y-52764531D01*
X108553942Y-52764528D01*
X108553942Y-52764526D01*
X108520227Y-52698357D01*
X108461011Y-52582140D01*
X108422587Y-52529253D01*
X108340695Y-52416536D01*
X108195937Y-52271778D01*
X108030337Y-52151465D01*
X108030336Y-52151464D01*
X108030334Y-52151463D01*
X107973377Y-52122441D01*
X107847947Y-52058531D01*
X107653258Y-51995272D01*
X107478719Y-51967628D01*
X107451076Y-51963250D01*
X107246372Y-51963250D01*
X107222053Y-51967101D01*
X107044189Y-51995272D01*
X106849500Y-52058531D01*
X106667110Y-52151465D01*
X106501510Y-52271778D01*
X106356752Y-52416536D01*
X106236439Y-52582136D01*
X106143505Y-52764526D01*
X106080246Y-52959215D01*
X106048224Y-53161398D01*
X103541241Y-53161398D01*
X101741947Y-51362104D01*
X101741946Y-51362102D01*
X101623075Y-51243231D01*
X101623074Y-51243230D01*
X101536262Y-51193110D01*
X101536262Y-51193109D01*
X101536258Y-51193108D01*
X101486143Y-51164173D01*
X101333415Y-51123249D01*
X101333412Y-51123249D01*
X101265024Y-51123249D01*
X101197985Y-51103564D01*
X101154539Y-51055544D01*
X101140014Y-51027038D01*
X101067594Y-50884905D01*
X101048676Y-50858867D01*
X100919522Y-50681100D01*
X100919518Y-50681095D01*
X100741378Y-50502955D01*
X100741373Y-50502951D01*
X100537572Y-50354882D01*
X100537571Y-50354881D01*
X100537569Y-50354880D01*
X100467471Y-50319163D01*
X100313107Y-50240510D01*
X100073509Y-50162660D01*
X99824686Y-50123250D01*
X99572762Y-50123250D01*
X99448350Y-50142955D01*
X99323938Y-50162660D01*
X99084340Y-50240510D01*
X98859875Y-50354882D01*
X98656074Y-50502951D01*
X98656069Y-50502955D01*
X98477929Y-50681095D01*
X98477925Y-50681100D01*
X98329856Y-50884901D01*
X98215484Y-51109366D01*
X98137634Y-51348964D01*
X98098224Y-51597788D01*
X78242665Y-51597788D01*
X78307378Y-51515984D01*
X83677505Y-44727568D01*
X83734536Y-44687204D01*
X83774755Y-44680500D01*
X111170245Y-44680500D01*
X111237284Y-44700185D01*
G37*
%TD.AperFunction*%
%TA.AperFunction,NonConductor*%
G36*
X125011544Y-92711620D02*
G01*
X125044182Y-92722225D01*
X125044185Y-92722225D01*
X125044190Y-92722227D01*
X125246372Y-92754250D01*
X125246373Y-92754250D01*
X125451075Y-92754250D01*
X125451076Y-92754250D01*
X125653258Y-92722227D01*
X125653263Y-92722225D01*
X125653265Y-92722225D01*
X125685904Y-92711620D01*
X125755745Y-92709623D01*
X125815579Y-92745703D01*
X125846408Y-92808403D01*
X125848224Y-92829550D01*
X125848224Y-94111620D01*
X125848225Y-94111626D01*
X125854632Y-94171233D01*
X125904926Y-94306078D01*
X125904930Y-94306085D01*
X125991176Y-94421294D01*
X125991179Y-94421297D01*
X126108922Y-94509440D01*
X126150793Y-94565373D01*
X126155777Y-94635065D01*
X126134929Y-94681591D01*
X126065383Y-94777313D01*
X125958157Y-94987753D01*
X125885170Y-95212381D01*
X125848224Y-95445652D01*
X125848224Y-95681847D01*
X125885170Y-95915118D01*
X125958157Y-96139746D01*
X126065381Y-96350183D01*
X126204207Y-96541260D01*
X126204209Y-96541262D01*
X126371214Y-96708267D01*
X126378327Y-96713435D01*
X126420990Y-96768767D01*
X126426966Y-96838380D01*
X126394358Y-96900174D01*
X126378327Y-96914065D01*
X126371214Y-96919232D01*
X126204209Y-97086237D01*
X126204209Y-97086238D01*
X126204207Y-97086240D01*
X126154795Y-97154250D01*
X126065381Y-97277316D01*
X125958157Y-97487755D01*
X125958156Y-97487757D01*
X125958156Y-97487758D01*
X125905863Y-97648701D01*
X125893234Y-97687568D01*
X125853796Y-97745244D01*
X125789438Y-97772442D01*
X125775303Y-97773250D01*
X124973224Y-97773250D01*
X124906185Y-97753565D01*
X124860430Y-97700761D01*
X124849224Y-97649250D01*
X124849224Y-92829550D01*
X124868909Y-92762511D01*
X124921713Y-92716756D01*
X124990871Y-92706812D01*
X125011544Y-92711620D01*
G37*
%TD.AperFunction*%
%TA.AperFunction,NonConductor*%
G36*
X86524982Y-92953935D02*
G01*
X86570737Y-93006739D01*
X86580681Y-93075897D01*
X86568428Y-93114545D01*
X86522168Y-93205335D01*
X86456477Y-93407510D01*
X86428438Y-93584543D01*
X86423224Y-93617463D01*
X86423224Y-93830037D01*
X86431752Y-93883878D01*
X86452326Y-94013782D01*
X86456478Y-94039993D01*
X86504185Y-94186820D01*
X86522168Y-94242164D01*
X86618675Y-94431570D01*
X86743614Y-94603536D01*
X86893933Y-94753855D01*
X86893938Y-94753859D01*
X87067583Y-94880019D01*
X87110249Y-94935348D01*
X87116228Y-95004962D01*
X87083623Y-95066757D01*
X87050994Y-95090821D01*
X87015906Y-95108699D01*
X86843937Y-95233640D01*
X86693614Y-95383963D01*
X86568675Y-95555929D01*
X86472168Y-95745335D01*
X86406477Y-95947510D01*
X86373224Y-96157463D01*
X86373224Y-96370036D01*
X86400343Y-96541262D01*
X86406478Y-96579993D01*
X86460443Y-96746080D01*
X86472168Y-96782164D01*
X86568675Y-96971570D01*
X86693614Y-97143536D01*
X86843937Y-97293859D01*
X87015906Y-97418800D01*
X87024670Y-97423266D01*
X87075466Y-97471241D01*
X87092260Y-97539062D01*
X87069722Y-97605197D01*
X87024670Y-97644234D01*
X87015906Y-97648699D01*
X86843937Y-97773640D01*
X86693614Y-97923963D01*
X86568675Y-98095929D01*
X86472168Y-98285335D01*
X86406477Y-98487510D01*
X86373224Y-98697463D01*
X86373224Y-98910036D01*
X86404667Y-99108563D01*
X86406478Y-99119993D01*
X86471199Y-99319184D01*
X86472168Y-99322164D01*
X86568675Y-99511570D01*
X86693614Y-99683536D01*
X86843937Y-99833859D01*
X87015906Y-99958800D01*
X87024670Y-99963266D01*
X87075466Y-100011241D01*
X87092260Y-100079062D01*
X87069722Y-100145197D01*
X87024670Y-100184234D01*
X87015906Y-100188699D01*
X86843937Y-100313640D01*
X86693614Y-100463963D01*
X86568672Y-100635934D01*
X86568671Y-100635935D01*
X86548489Y-100675545D01*
X86500515Y-100726341D01*
X86438005Y-100743250D01*
X66134093Y-100743250D01*
X66067054Y-100723565D01*
X66046412Y-100706931D01*
X64360336Y-99020855D01*
X64360334Y-99020852D01*
X64241463Y-98901981D01*
X64241462Y-98901980D01*
X64137512Y-98841965D01*
X64137511Y-98841964D01*
X64104529Y-98822922D01*
X64048627Y-98807943D01*
X63951803Y-98781999D01*
X63793689Y-98781999D01*
X63786093Y-98781999D01*
X63786077Y-98782000D01*
X54032333Y-98782000D01*
X53965294Y-98762315D01*
X53919539Y-98709511D01*
X53909595Y-98640353D01*
X53914402Y-98619681D01*
X53939670Y-98541917D01*
X53974777Y-98433868D01*
X53984742Y-98370950D01*
X54011724Y-98200597D01*
X54011724Y-97964402D01*
X65510724Y-97964402D01*
X65510724Y-98200597D01*
X65547670Y-98433868D01*
X65620657Y-98658496D01*
X65718327Y-98850183D01*
X65727881Y-98868933D01*
X65866707Y-99060010D01*
X66033714Y-99227017D01*
X66224791Y-99365843D01*
X66274924Y-99391387D01*
X66435227Y-99473066D01*
X66435229Y-99473066D01*
X66435232Y-99473068D01*
X66553716Y-99511566D01*
X66659855Y-99546053D01*
X66893127Y-99583000D01*
X66893132Y-99583000D01*
X67129321Y-99583000D01*
X67362592Y-99546053D01*
X67420298Y-99527303D01*
X67587216Y-99473068D01*
X67589187Y-99472064D01*
X67677319Y-99427158D01*
X67797657Y-99365843D01*
X67851339Y-99326839D01*
X67917143Y-99303360D01*
X67985197Y-99319184D01*
X68033893Y-99369289D01*
X68048224Y-99427158D01*
X68048224Y-99673750D01*
X68048225Y-99673769D01*
X68058724Y-99776546D01*
X68058725Y-99776549D01*
X68113909Y-99943081D01*
X68113911Y-99943086D01*
X68123604Y-99958801D01*
X68206012Y-100092406D01*
X68330068Y-100216462D01*
X68479390Y-100308564D01*
X68645927Y-100363749D01*
X68748715Y-100374250D01*
X69948732Y-100374249D01*
X70051521Y-100363749D01*
X70218058Y-100308564D01*
X70367380Y-100216462D01*
X70491436Y-100092406D01*
X70583538Y-99943084D01*
X70638723Y-99776547D01*
X70649224Y-99673759D01*
X70649223Y-98473742D01*
X70643234Y-98415118D01*
X70638723Y-98370953D01*
X70638722Y-98370950D01*
X70610352Y-98285335D01*
X70583538Y-98204416D01*
X70491436Y-98055094D01*
X70367380Y-97931038D01*
X70218058Y-97838936D01*
X70051521Y-97783751D01*
X70051519Y-97783750D01*
X69948734Y-97773250D01*
X68748722Y-97773250D01*
X68748705Y-97773251D01*
X68645927Y-97783750D01*
X68645917Y-97783753D01*
X68625239Y-97790605D01*
X68555411Y-97793006D01*
X68495370Y-97757274D01*
X68468306Y-97711217D01*
X68460622Y-97687568D01*
X68401792Y-97506508D01*
X68294567Y-97296067D01*
X68155741Y-97104990D01*
X67988734Y-96937983D01*
X67797657Y-96799157D01*
X67777968Y-96789125D01*
X67587220Y-96691933D01*
X67362592Y-96618946D01*
X67129321Y-96582000D01*
X67129316Y-96582000D01*
X66893132Y-96582000D01*
X66893127Y-96582000D01*
X66659855Y-96618946D01*
X66435227Y-96691933D01*
X66224790Y-96799157D01*
X66178898Y-96832500D01*
X66033714Y-96937983D01*
X66033712Y-96937985D01*
X66033711Y-96937985D01*
X65866709Y-97104987D01*
X65866709Y-97104988D01*
X65866707Y-97104990D01*
X65807086Y-97187050D01*
X65727881Y-97296066D01*
X65620657Y-97506503D01*
X65547670Y-97731131D01*
X65510724Y-97964402D01*
X54011724Y-97964402D01*
X53974777Y-97731131D01*
X53901790Y-97506503D01*
X53794566Y-97296066D01*
X53780944Y-97277317D01*
X53655741Y-97104990D01*
X53488734Y-96937983D01*
X53481625Y-96932818D01*
X53438959Y-96877488D01*
X53432980Y-96807875D01*
X53465586Y-96746080D01*
X53481625Y-96732182D01*
X53481724Y-96732109D01*
X53488734Y-96727017D01*
X53655741Y-96560010D01*
X53794567Y-96368933D01*
X53901792Y-96158492D01*
X53974777Y-95933868D01*
X53988855Y-95844982D01*
X54011724Y-95700597D01*
X54011724Y-95464402D01*
X53974777Y-95231135D01*
X53974777Y-95231132D01*
X53933771Y-95104933D01*
X53931777Y-95035093D01*
X53964020Y-94978937D01*
X55223640Y-93719319D01*
X55284963Y-93685834D01*
X55311321Y-93683000D01*
X65557156Y-93683000D01*
X65624195Y-93702685D01*
X65667640Y-93750703D01*
X65727881Y-93868933D01*
X65866707Y-94060010D01*
X66033714Y-94227017D01*
X66224791Y-94365843D01*
X66260301Y-94383936D01*
X66435227Y-94473066D01*
X66435229Y-94473066D01*
X66435232Y-94473068D01*
X66531776Y-94504437D01*
X66659855Y-94546053D01*
X66893127Y-94583000D01*
X66893132Y-94583000D01*
X67129321Y-94583000D01*
X67362592Y-94546053D01*
X67422560Y-94526568D01*
X67587216Y-94473068D01*
X67797657Y-94365843D01*
X67988734Y-94227017D01*
X68155741Y-94060010D01*
X68294567Y-93868933D01*
X68354807Y-93750704D01*
X68402782Y-93699909D01*
X68465292Y-93683000D01*
X72484024Y-93683000D01*
X72551063Y-93702685D01*
X72596818Y-93755489D01*
X72606762Y-93824647D01*
X72577737Y-93888203D01*
X72540319Y-93917485D01*
X72451935Y-93962518D01*
X72371980Y-94020609D01*
X72311796Y-94064336D01*
X72311794Y-94064338D01*
X72311793Y-94064338D01*
X72189312Y-94186819D01*
X72189312Y-94186820D01*
X72189310Y-94186822D01*
X72160109Y-94227014D01*
X72087492Y-94326961D01*
X72008852Y-94481302D01*
X71955321Y-94646052D01*
X71928224Y-94817139D01*
X71928224Y-94990360D01*
X71946370Y-95104934D01*
X71955322Y-95161451D01*
X72008851Y-95326195D01*
X72087492Y-95480538D01*
X72189310Y-95620678D01*
X72311796Y-95743164D01*
X72451936Y-95844982D01*
X72606279Y-95923623D01*
X72771023Y-95977152D01*
X72942113Y-96004250D01*
X72942114Y-96004250D01*
X73115334Y-96004250D01*
X73115335Y-96004250D01*
X73286425Y-95977152D01*
X73451169Y-95923623D01*
X73605512Y-95844982D01*
X73745652Y-95743164D01*
X73868138Y-95620678D01*
X73969956Y-95480538D01*
X74048597Y-95326195D01*
X74102126Y-95161451D01*
X74129224Y-94990361D01*
X74129224Y-94817139D01*
X74102126Y-94646049D01*
X74063304Y-94526568D01*
X74061309Y-94456727D01*
X74097389Y-94396894D01*
X74160090Y-94366066D01*
X74181235Y-94364250D01*
X75762055Y-94364250D01*
X75762071Y-94364251D01*
X75768437Y-94364251D01*
X75770150Y-94364754D01*
X75777435Y-94365208D01*
X75777443Y-94365209D01*
X75777239Y-94366835D01*
X75835476Y-94383936D01*
X75881231Y-94436740D01*
X75891375Y-94504434D01*
X75883501Y-94564250D01*
X75858224Y-94756236D01*
X75858224Y-95051263D01*
X75882236Y-95233646D01*
X75896731Y-95343743D01*
X75970936Y-95620680D01*
X75973085Y-95628701D01*
X75973088Y-95628711D01*
X76085978Y-95901250D01*
X76085982Y-95901260D01*
X76233485Y-96156743D01*
X76413076Y-96390790D01*
X76413082Y-96390797D01*
X76621676Y-96599391D01*
X76621683Y-96599397D01*
X76855730Y-96778988D01*
X77111213Y-96926491D01*
X77111214Y-96926491D01*
X77111217Y-96926493D01*
X77383772Y-97039389D01*
X77668731Y-97115743D01*
X77961218Y-97154250D01*
X77961225Y-97154250D01*
X78256223Y-97154250D01*
X78256230Y-97154250D01*
X78548717Y-97115743D01*
X78833676Y-97039389D01*
X79106231Y-96926493D01*
X79361718Y-96778988D01*
X79595766Y-96599396D01*
X79804370Y-96390792D01*
X79983962Y-96156744D01*
X80131467Y-95901257D01*
X80244363Y-95628702D01*
X80320717Y-95343743D01*
X80359224Y-95051256D01*
X80359224Y-94817139D01*
X82088224Y-94817139D01*
X82088224Y-94990360D01*
X82106370Y-95104934D01*
X82115322Y-95161451D01*
X82168851Y-95326195D01*
X82247492Y-95480538D01*
X82349310Y-95620678D01*
X82471796Y-95743164D01*
X82611936Y-95844982D01*
X82766279Y-95923623D01*
X82931023Y-95977152D01*
X83102113Y-96004250D01*
X83102114Y-96004250D01*
X83275334Y-96004250D01*
X83275335Y-96004250D01*
X83446425Y-95977152D01*
X83611169Y-95923623D01*
X83765512Y-95844982D01*
X83905652Y-95743164D01*
X84028138Y-95620678D01*
X84129956Y-95480538D01*
X84208597Y-95326195D01*
X84262126Y-95161451D01*
X84289224Y-94990361D01*
X84289224Y-94817139D01*
X84262126Y-94646049D01*
X84208597Y-94481305D01*
X84129956Y-94326962D01*
X84028138Y-94186822D01*
X83905652Y-94064336D01*
X83765512Y-93962518D01*
X83611169Y-93883877D01*
X83446425Y-93830348D01*
X83446423Y-93830347D01*
X83446422Y-93830347D01*
X83314995Y-93809531D01*
X83275335Y-93803250D01*
X83102113Y-93803250D01*
X83062452Y-93809531D01*
X82931026Y-93830347D01*
X82766276Y-93883878D01*
X82611935Y-93962518D01*
X82531980Y-94020609D01*
X82471796Y-94064336D01*
X82471794Y-94064338D01*
X82471793Y-94064338D01*
X82349312Y-94186819D01*
X82349312Y-94186820D01*
X82349310Y-94186822D01*
X82320109Y-94227014D01*
X82247492Y-94326961D01*
X82168852Y-94481302D01*
X82115321Y-94646052D01*
X82088224Y-94817139D01*
X80359224Y-94817139D01*
X80359224Y-94756244D01*
X80358909Y-94753855D01*
X80355056Y-94724586D01*
X80320717Y-94463757D01*
X80244363Y-94178798D01*
X80241229Y-94171233D01*
X80176011Y-94013782D01*
X80131467Y-93906243D01*
X80076033Y-93810229D01*
X79983962Y-93650756D01*
X79804371Y-93416709D01*
X79804365Y-93416702D01*
X79595771Y-93208108D01*
X79595764Y-93208102D01*
X79528679Y-93156626D01*
X79487476Y-93100198D01*
X79483321Y-93030452D01*
X79517533Y-92969532D01*
X79579250Y-92936779D01*
X79604165Y-92934250D01*
X86457943Y-92934250D01*
X86524982Y-92953935D01*
G37*
%TD.AperFunction*%
M02*
